<svg width="317" height="68" viewBox="0 0 317 68" fill="none" xmlns="http://www.w3.org/2000/svg">
<path d="M44.5691 14.5352C43.5688 6.35829 36.5046 0 27.9591 0H0V54.7429H33.5142L36.5877 63.453C37.0792 64.8512 38.0933 65.9827 39.4397 66.6356C40.2254 67.0185 41.0699 67.2099 41.9179 67.2099C42.5374 67.2099 43.1604 67.1074 43.7661 66.8988C48.2171 65.364 51.2076 61.2071 51.2076 56.5478V56.3222L44.5726 14.5352H44.5691ZM5.88394 48.9315V30.2771H17.5237V24.4658H5.88394V5.81134H27.9591C33.5281 5.81134 38.1279 9.975 38.7405 15.3146C38.789 15.7317 38.8132 16.1419 38.8132 16.535C38.8132 16.7196 38.8063 16.9042 38.7994 17.0854C38.7994 17.1469 38.7924 17.2084 38.7855 17.2699C38.7786 17.3896 38.7682 17.5127 38.7544 17.6323C38.7475 17.7041 38.7405 17.7793 38.7301 17.8511C38.7163 17.9571 38.7025 18.0664 38.6852 18.1724C38.6748 18.2476 38.6609 18.3262 38.6505 18.4015C38.6298 18.5143 38.6055 18.6237 38.5848 18.733C38.5536 18.8869 38.5156 19.0373 38.4775 19.1911C38.4636 19.2526 38.4463 19.3108 38.429 19.3723C38.3979 19.4851 38.3633 19.5945 38.3287 19.7073C38.3148 19.7552 38.2975 19.7996 38.2837 19.8475C38.2456 19.9671 38.2041 20.0867 38.1591 20.2064C38.1556 20.2201 38.1487 20.2337 38.1452 20.2474C37.9929 20.6542 37.8164 21.0473 37.6191 21.4302C37.6087 21.4541 37.5949 21.4746 37.5845 21.4986C37.5222 21.6148 37.4599 21.731 37.3907 21.8472C37.3734 21.8746 37.3561 21.9054 37.3388 21.9327C37.1519 22.2472 36.9511 22.5549 36.7331 22.8488C36.6742 22.9309 36.6119 23.0129 36.5496 23.0916C36.5081 23.1428 36.4666 23.1975 36.425 23.2488C36.3316 23.365 36.2347 23.4778 36.1343 23.5906C36.1204 23.6077 36.1031 23.6248 36.0893 23.6419C35.6913 24.0863 35.2517 24.4999 34.7775 24.8794L34.5872 25.0332C33.2823 26.0314 31.7317 26.7424 30.0254 27.0672C28.544 27.3475 27.2599 28.25 26.5089 29.5353C25.7613 30.8172 25.6159 32.3521 26.1074 33.7468L31.4652 48.9384H5.88394V48.9315ZM42.0667 61.3234L31.9325 32.5948C35.4075 31.7607 38.4186 29.8703 40.6442 27.3133L45.3167 56.7495C45.2371 58.7732 43.9599 60.5645 42.0667 61.3234Z" fill="url(#paint0_linear_1432_543)"/>
<path d="M89.999 47.8678C87.4429 47.8678 85.1723 47.2424 83.1873 46.0051C81.2022 44.7678 79.6386 43.0683 78.5101 40.9201C77.3816 38.7718 76.8105 36.3109 76.8105 33.5372C76.8105 30.7636 77.3816 28.5066 78.5101 26.4263C79.6386 24.3461 81.1886 22.7145 83.1601 21.5316C85.1315 20.3487 87.3749 19.7505 89.8903 19.7505C92.4056 19.7505 94.581 20.2943 96.5389 21.3957C98.4832 22.4834 100.006 24.0062 101.107 25.9368C102.195 27.8675 102.712 30.0701 102.644 32.5583C102.644 32.9526 102.63 33.3741 102.589 33.8092C102.549 34.2442 102.521 34.7201 102.481 35.2368H81.311C81.3789 36.9499 81.8004 38.4591 82.5754 39.778C83.3368 41.0968 84.3565 42.1166 85.6074 42.8644C86.8583 43.6122 88.2995 43.9793 89.9039 43.9793C92.0113 43.9793 93.806 43.585 95.288 42.7828C96.7701 41.9806 97.8306 40.8385 98.4832 39.3429L102.032 40.7705C100.944 43.0683 99.3534 44.8222 97.2731 46.0459C95.1929 47.2696 92.7727 47.8814 89.999 47.8814V47.8678ZM98.1433 31.6881C98.1841 30.1245 97.8442 28.7377 97.1372 27.5276C96.4301 26.3311 95.4376 25.3794 94.1595 24.686C92.8815 23.9926 91.4131 23.6526 89.7271 23.6526C88.2723 23.6526 86.9399 23.9926 85.7434 24.686C84.5469 25.3794 83.5408 26.3311 82.7658 27.5548C81.9772 28.7785 81.5149 30.1517 81.3653 31.6881H98.1433Z" fill="url(#paint1_linear_1432_543)"/>
<path d="M123.243 9.22632C126.343 9.22632 128.899 9.77017 130.925 10.8443C132.951 11.9184 134.46 13.3596 135.466 15.1679C136.472 16.9763 136.975 18.9341 136.975 21.0416C136.975 22.4692 136.717 23.8696 136.214 25.2837C135.697 26.6841 134.895 27.9621 133.807 29.1042C132.719 30.2463 131.305 31.1709 129.565 31.8643C127.838 32.5577 125.731 32.8976 123.256 32.8976H114.895V47.5002H107.512V9.22632H123.256H123.243ZM129.416 21.0416C129.416 19.3284 128.899 17.9688 127.852 16.9355C126.805 15.9021 125.201 15.3991 123.012 15.3991H114.867V26.7113H123.012C124.466 26.7113 125.677 26.4801 126.615 26.0315C127.566 25.5828 128.26 24.9165 128.722 24.06C129.184 23.2034 129.402 22.1973 129.402 21.028L129.416 21.0416ZM127.39 30.4503L137.723 47.5138H129.47L119.572 30.4503H127.39Z" fill="#17355D"/>
<path d="M154.066 47.8678C151.333 47.8678 148.927 47.2696 146.846 46.0595C144.766 44.863 143.162 43.1771 142.006 41.0288C140.864 38.8806 140.279 36.4061 140.279 33.5916C140.279 30.7772 140.85 28.5066 142.006 26.4263C143.148 24.3461 144.725 22.7145 146.738 21.5316C148.736 20.3487 151.034 19.7505 153.631 19.7505C156.228 19.7505 158.566 20.3215 160.579 21.45C162.577 22.5785 164.141 24.1557 165.256 26.1816C166.371 28.2074 166.928 30.5596 166.928 33.2653C166.928 33.6596 166.901 34.1083 166.847 34.6113C166.792 35.1008 166.724 35.6175 166.656 36.1749H147.852C148.002 37.3442 148.369 38.3368 148.967 39.1525C149.566 39.9683 150.313 40.6074 151.211 41.0696C152.108 41.5319 153.114 41.7495 154.243 41.7495C155.589 41.7495 156.799 41.4775 157.873 40.9337C158.947 40.3898 159.722 39.642 160.198 38.6903L166.371 40.553C165.283 42.8915 163.651 44.6863 161.503 45.9643C159.355 47.2424 156.88 47.8814 154.066 47.8814V47.8678ZM159.26 31.0899C159.219 30.0701 158.947 29.1456 158.444 28.3298C157.927 27.514 157.261 26.875 156.418 26.4127C155.575 25.964 154.651 25.7329 153.631 25.7329C152.72 25.7329 151.863 25.964 151.061 26.4127C150.259 26.875 149.579 27.5004 149.008 28.3026C148.437 29.1048 148.07 30.0294 147.893 31.0899H159.26Z" fill="#17355D"/>
<path d="M172.216 17.6971C172.216 15.3313 172.652 13.4007 173.508 11.9051C174.365 10.4095 175.643 9.33534 177.329 8.68272C179.028 8.03009 181.149 7.83974 183.692 8.13886V14.3116C182.087 14.0941 180.945 14.3116 180.279 14.9642C179.599 15.6169 179.273 16.6366 179.273 18.0234V20.1581H183.977V26.3308H179.273V47.4868H172.216V26.3308H168.994V20.1581H172.216V17.6971Z" fill="#17355D"/>
<path d="M199.451 47.8678C196.718 47.8678 194.311 47.2696 192.231 46.0595C190.151 44.863 188.546 43.1771 187.391 41.0288C186.249 38.8806 185.664 36.4061 185.664 33.5916C185.664 30.7772 186.235 28.5066 187.391 26.4263C188.533 24.3461 190.11 22.7145 192.122 21.5316C194.121 20.3487 196.419 19.7505 199.016 19.7505C201.613 19.7505 203.951 20.3215 205.963 21.45C207.962 22.5785 209.526 24.1557 210.641 26.1816C211.756 28.2074 212.313 30.5596 212.313 33.2653C212.313 33.6596 212.286 34.1083 212.231 34.6113C212.177 35.1008 212.109 35.6175 212.041 36.1749H193.237C193.387 37.3442 193.754 38.3368 194.352 39.1525C194.95 39.9683 195.698 40.6074 196.596 41.0696C197.493 41.5319 198.499 41.7495 199.628 41.7495C200.974 41.7495 202.184 41.4775 203.258 40.9337C204.332 40.3898 205.107 39.642 205.583 38.6903L211.756 40.553C210.668 42.8915 209.036 44.6863 206.888 45.9643C204.74 47.2424 202.265 47.8814 199.451 47.8814V47.8678ZM204.645 31.0899C204.604 30.0701 204.332 29.1456 203.829 28.3298C203.312 27.514 202.646 26.875 201.803 26.4127C200.96 25.964 200.035 25.7329 199.016 25.7329C198.105 25.7329 197.248 25.964 196.446 26.4127C195.644 26.875 194.964 27.5004 194.393 28.3026C193.822 29.1048 193.455 30.0294 193.278 31.0899H204.645Z" fill="#17355D"/>
<path d="M216.283 20.1582H222.619L223.109 23.6525C223.87 22.7008 224.74 21.9258 225.705 21.3275C226.671 20.7293 227.731 20.3078 228.901 20.0631C230.07 19.8319 231.294 19.8591 232.558 20.1446V26.7117C231.579 26.3854 230.546 26.2902 229.472 26.4398C228.398 26.5893 227.391 26.97 226.467 27.5819C225.542 28.2073 224.767 29.0911 224.169 30.2332C223.571 31.3753 223.272 32.8301 223.272 34.584V47.487H216.27V20.1582H216.283Z" fill="#17355D"/>
<path d="M235.685 20.1582H242.021L242.511 23.6525C243.272 22.7008 244.142 21.9258 245.108 21.3275C246.073 20.7293 247.134 20.3078 248.303 20.0631C249.472 19.8319 250.696 19.8591 251.96 20.1446V26.7117C250.981 26.3854 249.948 26.2902 248.874 26.4398C247.8 26.5893 246.794 26.97 245.869 27.5819C244.945 28.2073 244.17 29.0911 243.571 30.2332C242.973 31.3753 242.674 32.8301 242.674 34.584V47.487H235.672V20.1582H235.685Z" fill="#17355D"/>
<path d="M271.171 47.4867L270.627 44.1556C269.716 45.2841 268.683 46.1815 267.541 46.8341C266.399 47.4867 264.849 47.813 262.918 47.813C261.096 47.813 259.505 47.5003 258.132 46.8613C256.759 46.2222 255.698 45.3249 254.937 44.1828C254.176 43.0407 253.795 41.6811 253.795 40.1039C253.795 37.8061 254.624 35.9026 256.283 34.3934C257.942 32.8842 260.444 31.9188 263.802 31.5245L270.641 30.7631V28.8461C270.641 28.0847 270.287 27.364 269.608 26.7114C268.914 26.0588 267.826 25.7325 266.331 25.7325C265.012 25.7325 263.883 26.0452 262.918 26.6842C261.953 27.3233 261.3 28.275 260.974 29.5531L254.964 27.364C255.698 24.9167 257.072 23.0404 259.125 21.7351C261.164 20.4163 263.68 19.7637 266.671 19.7637C270.315 19.7637 273.061 20.661 274.897 22.4694C276.732 24.2777 277.657 26.657 277.657 29.6075V47.4867H271.212H271.171ZM270.627 35.6307L264.726 36.3921C263.53 36.5416 262.605 36.8951 261.994 37.4526C261.368 38.0236 261.069 38.7034 261.069 39.5056C261.069 40.3078 261.382 40.9197 261.994 41.4499C262.619 41.9802 263.489 42.2385 264.618 42.2385C265.896 42.2385 266.983 42.0074 267.867 41.5315C268.765 41.0556 269.444 40.3622 269.92 39.4512C270.396 38.5403 270.627 37.4118 270.627 36.0657V35.6307Z" fill="#17355D"/>
<path d="M282.646 8.12476H289.649V47.4863H282.646V8.12476Z" fill="#17355D"/>
<path d="M299.928 38.5816C300.145 39.4926 300.526 40.186 301.043 40.6619C301.573 41.1378 302.171 41.4777 302.851 41.668C303.531 41.872 304.211 41.9671 304.904 41.9671C306.182 41.9671 307.188 41.7224 307.909 41.2329C308.643 40.7435 308.997 40.118 308.997 39.343C308.997 38.6904 308.738 38.1738 308.235 37.7795C307.719 37.3988 307.08 37.0996 306.291 36.8821C305.502 36.6646 304.673 36.4606 303.803 36.2839C302.824 36.0255 301.777 35.74 300.662 35.4409C299.547 35.1282 298.5 34.6795 297.521 34.0948C296.542 33.5102 295.727 32.7488 295.088 31.8242C294.449 30.8997 294.136 29.7168 294.136 28.3028C294.136 26.5896 294.598 25.1076 295.509 23.8432C296.42 22.5787 297.698 21.5998 299.357 20.8655C301.016 20.1313 302.933 19.7778 305.122 19.7778C307.705 19.7778 309.894 20.3217 311.689 21.423C313.47 22.5107 314.762 24.0879 315.564 26.1273L309.445 27.8813C309.228 27.3646 308.902 26.9567 308.466 26.6168C308.031 26.2905 307.515 26.0458 306.903 25.9098C306.291 25.7738 305.693 25.6923 305.067 25.6923C304.007 25.6923 303.137 25.8962 302.443 26.3177C301.75 26.7392 301.41 27.3102 301.41 28.0444C301.41 28.4795 301.532 28.833 301.791 29.105C302.049 29.3769 302.402 29.608 302.851 29.7848C303.3 29.9615 303.83 30.1247 304.442 30.2742C305.054 30.4238 305.706 30.587 306.441 30.7637C307.569 31.0628 308.711 31.3891 309.853 31.7698C310.995 32.1505 312.056 32.64 313.021 33.2247C313.987 33.8093 314.762 34.5843 315.346 35.5768C315.931 36.5558 316.257 37.8066 316.325 39.2887C316.325 40.893 315.863 42.3478 314.952 43.6395C314.041 44.9312 312.722 45.9645 311.009 46.7259C309.296 47.4873 307.216 47.868 304.782 47.868C301.94 47.868 299.52 47.2697 297.535 46.0597C295.55 44.8632 294.245 42.9869 293.633 40.4308L299.914 38.568L299.928 38.5816Z" fill="#17355D"/>
<defs>
<linearGradient id="paint0_linear_1432_543" x1="25.602" y1="6.95994" x2="25.602" y2="76.8533" gradientUnits="userSpaceOnUse">
<stop stop-color="#4699F7"/>
<stop offset="1" stop-color="#67DE7F"/>
</linearGradient>
<linearGradient id="paint1_linear_1432_543" x1="57.762" y1="61.6138" x2="115.791" y2="11.8782" gradientUnits="userSpaceOnUse">
<stop stop-color="#67DE7F"/>
<stop offset="1" stop-color="#4699F7"/>
</linearGradient>
</defs>
</svg>
