<svg width="430" height="229" viewBox="0 0 430 229" fill="none" xmlns="http://www.w3.org/2000/svg">
<g filter="url(#filter0_d_294_266)">
<rect x="30" y="51.8655" width="370" height="117.153" rx="12" fill="white"/>
<g filter="url(#filter1_d_294_266)">
<path d="M55.6778 70.78C55.7258 71.004 55.8218 71.212 55.9658 71.404C56.1178 71.596 56.3218 71.752 56.5778 71.872C56.8338 71.992 57.1498 72.052 57.5258 72.052C58.0858 72.052 58.4978 71.924 58.7618 71.668C59.0338 71.404 59.1698 71.096 59.1698 70.744C59.1698 70.456 59.0858 70.22 58.9178 70.036C58.7578 69.844 58.5338 69.684 58.2458 69.556C57.9658 69.42 57.6418 69.3 57.2738 69.196C56.9538 69.1 56.6378 69 56.3258 68.896C56.0218 68.784 55.7458 68.648 55.4978 68.488C55.2498 68.32 55.0538 68.108 54.9098 67.852C54.7658 67.588 54.6938 67.26 54.6938 66.868C54.6938 66.38 54.8098 65.96 55.0418 65.608C55.2738 65.256 55.5978 64.988 56.0138 64.804C56.4378 64.612 56.9258 64.516 57.4778 64.516C57.9418 64.516 58.3578 64.584 58.7258 64.72C59.0938 64.848 59.4018 65.036 59.6498 65.284C59.9058 65.524 60.0938 65.816 60.2138 66.16L59.1218 66.556C59.0738 66.38 58.9738 66.216 58.8218 66.064C58.6698 65.904 58.4778 65.776 58.2458 65.68C58.0138 65.584 57.7538 65.536 57.4658 65.536C57.1698 65.528 56.9018 65.576 56.6618 65.68C56.4298 65.776 56.2418 65.916 56.0978 66.1C55.9618 66.284 55.8938 66.504 55.8938 66.76C55.8938 67.04 55.9738 67.26 56.1338 67.42C56.2938 67.58 56.5058 67.712 56.7698 67.816C57.0418 67.92 57.3378 68.02 57.6578 68.116C57.9938 68.22 58.3218 68.332 58.6418 68.452C58.9618 68.572 59.2498 68.724 59.5058 68.908C59.7698 69.092 59.9818 69.324 60.1418 69.604C60.3018 69.876 60.3818 70.22 60.3818 70.636C60.3818 71.084 60.2778 71.492 60.0698 71.86C59.8618 72.228 59.5458 72.524 59.1218 72.748C58.7058 72.972 58.1818 73.084 57.5498 73.084C57.0298 73.084 56.5618 73.004 56.1458 72.844C55.7298 72.684 55.3858 72.464 55.1138 72.184C54.8498 71.896 54.6738 71.564 54.5858 71.188L55.6778 70.78ZM66.8273 73H65.7953L65.7113 72.292C65.5193 72.548 65.2753 72.744 64.9793 72.88C64.6913 73.016 64.3673 73.084 64.0073 73.084C63.5433 73.084 63.1393 72.988 62.7953 72.796C62.4513 72.596 62.1833 72.308 61.9913 71.932C61.8073 71.548 61.7153 71.072 61.7153 70.504V67H62.8553V70.36C62.8553 70.912 62.9673 71.332 63.1913 71.62C63.4233 71.908 63.7713 72.052 64.2353 72.052C64.6913 72.052 65.0473 71.904 65.3033 71.608C65.5673 71.312 65.6993 70.872 65.6993 70.288V67H66.8273V73ZM68.5378 67H69.5698L69.6418 67.804C69.8098 67.596 70.0018 67.424 70.2178 67.288C70.4418 67.144 70.6818 67.044 70.9378 66.988C71.2018 66.932 71.4738 66.936 71.7538 67V68.068C71.4898 68.004 71.2338 67.996 70.9858 68.044C70.7378 68.092 70.5138 68.196 70.3138 68.356C70.1218 68.508 69.9658 68.712 69.8458 68.968C69.7258 69.224 69.6658 69.532 69.6658 69.892V73H68.5378V67ZM77.28 67H78.312V72.016C78.312 72.72 78.144 73.324 77.808 73.828C77.472 74.332 76.988 74.72 76.356 74.992C75.732 75.264 74.976 75.4 74.088 75.4L73.908 74.404C74.98 74.38 75.792 74.164 76.344 73.756C76.896 73.356 77.172 72.776 77.172 72.016V71.956L77.304 71.968C77.112 72.272 76.836 72.536 76.476 72.76C76.124 72.976 75.684 73.084 75.156 73.084C74.62 73.084 74.144 72.956 73.728 72.7C73.32 72.444 73 72.084 72.768 71.62C72.544 71.156 72.432 70.616 72.432 70C72.432 69.384 72.544 68.844 72.768 68.38C73 67.916 73.32 67.556 73.728 67.3C74.144 67.044 74.62 66.916 75.156 66.916C75.484 66.916 75.776 66.96 76.032 67.048C76.296 67.136 76.524 67.256 76.716 67.408C76.908 67.552 77.068 67.716 77.196 67.9L77.28 67ZM73.644 70C73.644 70.616 73.804 71.112 74.124 71.488C74.452 71.864 74.888 72.052 75.432 72.052C75.752 72.052 76.044 71.972 76.308 71.812C76.572 71.644 76.78 71.408 76.932 71.104C77.092 70.792 77.172 70.424 77.172 70C77.172 69.568 77.092 69.2 76.932 68.896C76.78 68.592 76.568 68.36 76.296 68.2C76.032 68.032 75.744 67.948 75.432 67.948C74.888 67.948 74.452 68.136 74.124 68.512C73.804 68.888 73.644 69.384 73.644 70ZM82.6262 73.084C82.0502 73.084 81.5382 72.952 81.0902 72.688C80.6502 72.416 80.3022 72.044 80.0462 71.572C79.7982 71.1 79.6742 70.56 79.6742 69.952C79.6742 69.368 79.7982 68.848 80.0462 68.392C80.2942 67.936 80.6342 67.576 81.0662 67.312C81.5062 67.048 82.0022 66.916 82.5542 66.916C83.1142 66.916 83.6102 67.04 84.0422 67.288C84.4742 67.528 84.8102 67.868 85.0502 68.308C85.2902 68.74 85.4062 69.24 85.3982 69.808C85.3982 69.904 85.3942 70.004 85.3862 70.108C85.3782 70.204 85.3662 70.312 85.3502 70.432H80.9102C80.9342 70.752 81.0222 71.036 81.1742 71.284C81.3342 71.524 81.5342 71.712 81.7742 71.848C82.0222 71.984 82.3022 72.052 82.6142 72.052C83.0142 72.052 83.3622 71.976 83.6582 71.824C83.9542 71.664 84.1622 71.452 84.2822 71.188L85.2662 71.536C85.0262 72.024 84.6742 72.404 84.2102 72.676C83.7542 72.948 83.2262 73.084 82.6262 73.084ZM84.1622 69.46C84.1622 69.172 84.0902 68.912 83.9462 68.68C83.8022 68.448 83.6062 68.268 83.3582 68.14C83.1182 68.004 82.8462 67.936 82.5422 67.936C82.2702 67.936 82.0182 68.004 81.7862 68.14C81.5622 68.268 81.3702 68.448 81.2102 68.68C81.0582 68.904 80.9622 69.164 80.9222 69.46H84.1622ZM86.7839 67H87.8159L87.8879 67.804C88.0559 67.596 88.2479 67.424 88.4639 67.288C88.6879 67.144 88.9279 67.044 89.1839 66.988C89.4479 66.932 89.7199 66.936 89.9999 67V68.068C89.7359 68.004 89.4799 67.996 89.2319 68.044C88.9839 68.092 88.7599 68.196 88.5599 68.356C88.3679 68.508 88.2119 68.712 88.0919 68.968C87.9719 69.224 87.9119 69.532 87.9119 69.892V73H86.7839V67ZM95.2353 67H96.4113L92.9313 75.4H91.8153L92.8713 72.88L90.4953 67H91.7433L93.4833 71.548L95.2353 67ZM104.074 68.596C104.466 68.596 104.786 68.536 105.034 68.416C105.29 68.288 105.478 68.112 105.598 67.888C105.718 67.664 105.778 67.404 105.778 67.108C105.778 66.636 105.642 66.268 105.37 66.004C105.098 65.74 104.666 65.608 104.074 65.608H102.142V68.596H104.074ZM106.978 67.108C106.978 67.412 106.926 67.716 106.822 68.02C106.718 68.316 106.55 68.584 106.318 68.824C106.086 69.064 105.782 69.256 105.406 69.4C105.038 69.536 104.594 69.604 104.074 69.604H102.142V73H100.942V64.6H104.074C104.73 64.6 105.27 64.716 105.694 64.948C106.126 65.172 106.446 65.476 106.654 65.86C106.87 66.236 106.978 66.652 106.978 67.108ZM110.47 73.084C109.894 73.084 109.382 72.952 108.934 72.688C108.494 72.416 108.146 72.044 107.89 71.572C107.642 71.1 107.518 70.56 107.518 69.952C107.518 69.368 107.642 68.848 107.89 68.392C108.138 67.936 108.478 67.576 108.91 67.312C109.35 67.048 109.846 66.916 110.398 66.916C110.958 66.916 111.454 67.04 111.886 67.288C112.318 67.528 112.654 67.868 112.894 68.308C113.134 68.74 113.25 69.24 113.242 69.808C113.242 69.904 113.238 70.004 113.23 70.108C113.222 70.204 113.21 70.312 113.194 70.432H108.754C108.778 70.752 108.866 71.036 109.018 71.284C109.178 71.524 109.378 71.712 109.618 71.848C109.866 71.984 110.146 72.052 110.458 72.052C110.858 72.052 111.206 71.976 111.502 71.824C111.798 71.664 112.006 71.452 112.126 71.188L113.11 71.536C112.87 72.024 112.518 72.404 112.054 72.676C111.598 72.948 111.07 73.084 110.47 73.084ZM112.006 69.46C112.006 69.172 111.934 68.912 111.79 68.68C111.646 68.448 111.45 68.268 111.202 68.14C110.962 68.004 110.69 67.936 110.386 67.936C110.114 67.936 109.862 68.004 109.63 68.14C109.406 68.268 109.214 68.448 109.054 68.68C108.902 68.904 108.806 69.164 108.766 69.46H112.006ZM114.628 67H115.66L115.732 67.804C115.9 67.596 116.092 67.424 116.308 67.288C116.532 67.144 116.772 67.044 117.028 66.988C117.292 66.932 117.564 66.936 117.844 67V68.068C117.58 68.004 117.324 67.996 117.076 68.044C116.828 68.092 116.604 68.196 116.404 68.356C116.212 68.508 116.056 68.712 115.936 68.968C115.816 69.224 115.756 69.532 115.756 69.892V73H114.628V67ZM119.275 66.328C119.275 65.872 119.351 65.488 119.503 65.176C119.663 64.864 119.907 64.64 120.235 64.504C120.563 64.36 120.995 64.312 121.531 64.36V65.356C121.115 65.316 120.823 65.38 120.655 65.548C120.495 65.716 120.415 65.976 120.415 66.328V67H121.603V68.008H120.415V73H119.275V68.008H118.507V67H119.275V66.328ZM125.377 73.084C124.809 73.084 124.297 72.96 123.841 72.712C123.393 72.456 123.041 72.1 122.785 71.644C122.529 71.18 122.401 70.636 122.401 70.012C122.401 69.38 122.533 68.832 122.797 68.368C123.061 67.904 123.421 67.548 123.877 67.3C124.333 67.044 124.845 66.916 125.413 66.916C125.981 66.916 126.493 67.044 126.949 67.3C127.413 67.548 127.777 67.904 128.041 68.368C128.305 68.824 128.437 69.364 128.437 69.988C128.437 70.62 128.301 71.168 128.029 71.632C127.765 72.096 127.401 72.456 126.937 72.712C126.473 72.96 125.953 73.084 125.377 73.084ZM125.365 72.052C125.685 72.052 125.985 71.98 126.265 71.836C126.545 71.684 126.773 71.456 126.949 71.152C127.133 70.848 127.225 70.46 127.225 69.988C127.225 69.524 127.137 69.144 126.961 68.848C126.793 68.544 126.569 68.32 126.289 68.176C126.009 68.024 125.709 67.948 125.389 67.948C125.077 67.948 124.785 68.024 124.513 68.176C124.249 68.32 124.033 68.544 123.865 68.848C123.697 69.152 123.613 69.54 123.613 70.012C123.613 70.476 123.693 70.86 123.853 71.164C124.021 71.46 124.237 71.684 124.501 71.836C124.765 71.98 125.053 72.052 125.365 72.052ZM129.815 67H130.847L130.919 67.804C131.087 67.596 131.279 67.424 131.495 67.288C131.719 67.144 131.959 67.044 132.215 66.988C132.479 66.932 132.751 66.936 133.031 67V68.068C132.767 68.004 132.511 67.996 132.263 68.044C132.015 68.092 131.791 68.196 131.591 68.356C131.399 68.508 131.243 68.712 131.123 68.968C131.003 69.224 130.943 69.532 130.943 69.892V73H129.815V67ZM134.175 67H135.207L135.279 67.696C135.471 67.456 135.711 67.268 135.999 67.132C136.287 66.988 136.611 66.916 136.971 66.916C137.379 66.916 137.747 67.008 138.075 67.192C138.411 67.368 138.675 67.632 138.867 67.984C139.067 67.632 139.351 67.368 139.719 67.192C140.087 67.008 140.491 66.916 140.931 66.916C141.387 66.916 141.787 67.016 142.131 67.216C142.483 67.408 142.755 67.696 142.947 68.08C143.139 68.464 143.235 68.944 143.235 69.52V73H142.095V69.664C142.095 69.104 141.975 68.68 141.735 68.392C141.495 68.096 141.151 67.948 140.703 67.948C140.247 67.948 139.887 68.1 139.623 68.404C139.359 68.708 139.227 69.152 139.227 69.736V73H138.087V69.664C138.087 69.104 137.975 68.68 137.751 68.392C137.527 68.096 137.191 67.948 136.743 67.948C136.287 67.948 135.931 68.1 135.675 68.404C135.427 68.708 135.303 69.152 135.303 69.736V73H134.175V67ZM147.454 73.084C146.878 73.084 146.366 72.952 145.918 72.688C145.478 72.416 145.13 72.044 144.874 71.572C144.626 71.1 144.502 70.56 144.502 69.952C144.502 69.368 144.626 68.848 144.874 68.392C145.122 67.936 145.462 67.576 145.894 67.312C146.334 67.048 146.83 66.916 147.382 66.916C147.942 66.916 148.438 67.04 148.87 67.288C149.302 67.528 149.638 67.868 149.878 68.308C150.118 68.74 150.234 69.24 150.226 69.808C150.226 69.904 150.222 70.004 150.214 70.108C150.206 70.204 150.194 70.312 150.178 70.432H145.738C145.762 70.752 145.85 71.036 146.002 71.284C146.162 71.524 146.362 71.712 146.602 71.848C146.85 71.984 147.13 72.052 147.442 72.052C147.842 72.052 148.19 71.976 148.486 71.824C148.782 71.664 148.99 71.452 149.11 71.188L150.094 71.536C149.854 72.024 149.502 72.404 149.038 72.676C148.582 72.948 148.054 73.084 147.454 73.084ZM148.99 69.46C148.99 69.172 148.918 68.912 148.774 68.68C148.63 68.448 148.434 68.268 148.186 68.14C147.946 68.004 147.674 67.936 147.37 67.936C147.098 67.936 146.846 68.004 146.614 68.14C146.39 68.268 146.198 68.448 146.038 68.68C145.886 68.904 145.79 69.164 145.75 69.46H148.99ZM156.136 68.02L156.004 68.056V64.36H157.144V73H156.112L156.028 72.1C155.828 72.372 155.556 72.604 155.212 72.796C154.876 72.988 154.464 73.084 153.976 73.084C153.432 73.084 152.956 72.956 152.548 72.7C152.148 72.444 151.832 72.084 151.6 71.62C151.376 71.156 151.264 70.616 151.264 70C151.264 69.384 151.376 68.844 151.6 68.38C151.832 67.916 152.148 67.556 152.548 67.3C152.956 67.044 153.432 66.916 153.976 66.916C154.496 66.916 154.936 67.024 155.296 67.24C155.664 67.448 155.944 67.708 156.136 68.02ZM152.476 70C152.476 70.616 152.636 71.112 152.956 71.488C153.276 71.864 153.704 72.052 154.24 72.052C154.568 72.052 154.864 71.972 155.128 71.812C155.392 71.652 155.604 71.42 155.764 71.116C155.924 70.804 156.004 70.432 156.004 70C156.004 69.568 155.924 69.2 155.764 68.896C155.604 68.592 155.392 68.36 155.128 68.2C154.864 68.032 154.568 67.948 154.24 67.948C153.712 67.948 153.284 68.136 152.956 68.512C152.636 68.888 152.476 69.384 152.476 70Z" fill="black"/>
</g>
<g filter="url(#filter2_d_294_266)">
<path d="M46.8574 143.312C46.8574 143.312 69.0194 119.493 81.7975 124.925C94.5755 130.358 87.2635 138.908 106.031 138.769C124.799 138.63 133.908 119.493 146.087 127.711V127.711C154.125 133.135 162.665 127.867 167.631 119.539C169.316 116.712 171.431 114.644 174.039 114.479C182.824 113.921 181.626 126.736 189.014 124.925C196.401 123.115 198.007 83.2886 218.372 86.6318C238.737 89.975 240.126 133.144 250.708 137.183C261.289 141.222 260.724 119.081 274.42 121.609C288.116 124.138 291.909 127.13 296.755 124.77C299.916 123.231 300.701 118.493 308.409 119.493V119.493C319.537 120.937 331.043 129.808 340.626 123.969C343.499 122.218 346.362 120.637 348.939 119.493C359.92 114.618 370.502 113.643 370.502 113.643" stroke="url(#paint0_linear_294_266)" stroke-width="3" stroke-linecap="round"/>
</g>
<rect opacity="0.5" x="202" y="80" width="25" height="63" rx="12" fill="url(#paint1_linear_294_266)"/>
<path d="M274.262 64.6C275.166 64.6 275.946 64.776 276.602 65.128C277.266 65.472 277.778 65.964 278.138 66.604C278.506 67.236 278.69 67.972 278.69 68.812C278.69 69.652 278.506 70.388 278.138 71.02C277.778 71.644 277.266 72.132 276.602 72.484C275.946 72.828 275.166 73 274.262 73H270.974V64.6H274.262ZM274.166 71.452C274.998 71.452 275.646 71.216 276.11 70.744C276.574 70.272 276.806 69.628 276.806 68.812C276.806 67.988 276.574 67.34 276.11 66.868C275.646 66.388 274.998 66.148 274.166 66.148H272.834V71.452H274.166ZM284.166 73L284.046 72.256C283.838 72.512 283.614 72.712 283.374 72.856C283.134 73 282.81 73.072 282.402 73.072C282.034 73.072 281.702 73.008 281.406 72.88C281.11 72.744 280.874 72.548 280.698 72.292C280.53 72.036 280.446 71.728 280.446 71.368C280.446 70.872 280.622 70.46 280.974 70.132C281.334 69.804 281.89 69.6 282.642 69.52L284.046 69.364V68.968C284.046 68.832 283.978 68.7 283.842 68.572C283.714 68.436 283.51 68.368 283.23 68.368C282.982 68.368 282.766 68.432 282.582 68.56C282.406 68.688 282.286 68.872 282.222 69.112L280.722 68.572C280.898 68.036 281.206 67.628 281.646 67.348C282.094 67.06 282.646 66.916 283.302 66.916C284.118 66.916 284.738 67.12 285.162 67.528C285.586 67.936 285.798 68.484 285.798 69.172V73H284.166ZM284.046 70.444L282.93 70.576C282.706 70.608 282.534 70.68 282.414 70.792C282.302 70.896 282.246 71.028 282.246 71.188C282.246 71.34 282.31 71.468 282.438 71.572C282.566 71.676 282.742 71.728 282.966 71.728C283.19 71.728 283.382 71.684 283.542 71.596C283.702 71.5 283.826 71.368 283.914 71.2C284.002 71.024 284.046 70.808 284.046 70.552V70.444ZM288.25 67H290.002V73H288.25V67ZM289.126 66.388C288.798 66.388 288.53 66.292 288.322 66.1C288.122 65.9 288.022 65.66 288.022 65.38C288.022 65.092 288.122 64.852 288.322 64.66C288.53 64.46 288.798 64.36 289.126 64.36C289.446 64.36 289.706 64.46 289.906 64.66C290.114 64.852 290.218 65.092 290.218 65.38C290.218 65.66 290.114 65.9 289.906 66.1C289.706 66.292 289.446 66.388 289.126 66.388ZM292.509 64.36H294.261V73H292.509V64.36ZM300.679 67H302.575L299.023 75.4H297.235L298.423 72.724L296.047 67H298.003L299.335 70.588L300.679 67Z" fill="black"/>
<path d="M313.235 73H312.179L309.815 64.6H310.835L312.707 71.836L314.771 64.6H315.839L317.891 71.824L319.775 64.6H320.783L318.419 73H317.363L315.299 66.04L313.235 73ZM324.208 73.084C323.648 73.084 323.148 72.948 322.708 72.676C322.276 72.404 321.936 72.032 321.688 71.56C321.44 71.088 321.316 70.548 321.316 69.94C321.316 69.356 321.44 68.836 321.688 68.38C321.936 67.924 322.276 67.568 322.708 67.312C323.14 67.048 323.632 66.916 324.184 66.916C324.728 66.916 325.212 67.036 325.636 67.276C326.068 67.516 326.404 67.848 326.644 68.272C326.884 68.696 326.996 69.18 326.98 69.724C326.98 69.812 326.976 69.904 326.968 70C326.96 70.096 326.952 70.2 326.944 70.312H322.3C322.316 70.688 322.408 71.02 322.576 71.308C322.744 71.596 322.964 71.824 323.236 71.992C323.516 72.152 323.832 72.232 324.184 72.232C324.648 72.232 325.04 72.144 325.36 71.968C325.688 71.792 325.924 71.54 326.068 71.212L326.848 71.524C326.608 72.028 326.26 72.416 325.804 72.688C325.348 72.952 324.816 73.084 324.208 73.084ZM325.996 69.532C326.004 69.188 325.928 68.884 325.768 68.62C325.616 68.356 325.4 68.148 325.12 67.996C324.84 67.844 324.516 67.768 324.148 67.768C323.828 67.768 323.536 67.844 323.272 67.996C323.008 68.148 322.788 68.36 322.612 68.632C322.444 68.896 322.344 69.196 322.312 69.532H325.996ZM330.981 73.084C330.421 73.084 329.921 72.948 329.481 72.676C329.049 72.404 328.709 72.032 328.461 71.56C328.213 71.088 328.089 70.548 328.089 69.94C328.089 69.356 328.213 68.836 328.461 68.38C328.709 67.924 329.049 67.568 329.481 67.312C329.913 67.048 330.405 66.916 330.957 66.916C331.501 66.916 331.985 67.036 332.409 67.276C332.841 67.516 333.177 67.848 333.417 68.272C333.657 68.696 333.769 69.18 333.753 69.724C333.753 69.812 333.749 69.904 333.741 70C333.733 70.096 333.725 70.2 333.717 70.312H329.073C329.089 70.688 329.181 71.02 329.349 71.308C329.517 71.596 329.737 71.824 330.009 71.992C330.289 72.152 330.605 72.232 330.957 72.232C331.421 72.232 331.813 72.144 332.133 71.968C332.461 71.792 332.697 71.54 332.841 71.212L333.621 71.524C333.381 72.028 333.033 72.416 332.577 72.688C332.121 72.952 331.589 73.084 330.981 73.084ZM332.769 69.532C332.777 69.188 332.701 68.884 332.541 68.62C332.389 68.356 332.173 68.148 331.893 67.996C331.613 67.844 331.289 67.768 330.921 67.768C330.601 67.768 330.309 67.844 330.045 67.996C329.781 68.148 329.561 68.36 329.385 68.632C329.217 68.896 329.117 69.196 329.085 69.532H332.769ZM335.235 64.36H336.147V69.604H336.699L339.063 67H340.335L337.503 70L340.347 73H339.063L336.699 70.384H336.147V73H335.235V64.36Z" fill="black"/>
<path d="M349.861 73H348.901V64.6H349.957L353.077 71.68L356.185 64.6H357.229V73H356.269V66.496L353.413 73H352.729L349.861 66.496V73ZM361.768 73.084C361.2 73.084 360.692 72.96 360.244 72.712C359.796 72.464 359.444 72.112 359.188 71.656C358.932 71.192 358.804 70.644 358.804 70.012C358.804 69.372 358.932 68.82 359.188 68.356C359.452 67.892 359.808 67.536 360.256 67.288C360.712 67.04 361.224 66.916 361.792 66.916C362.36 66.916 362.868 67.04 363.316 67.288C363.772 67.536 364.128 67.892 364.384 68.356C364.648 68.812 364.78 69.356 364.78 69.988C364.78 70.628 364.648 71.18 364.384 71.644C364.12 72.108 363.76 72.464 363.304 72.712C362.848 72.96 362.336 73.084 361.768 73.084ZM361.756 72.232C362.108 72.232 362.44 72.156 362.752 72.004C363.064 71.844 363.316 71.6 363.508 71.272C363.708 70.936 363.808 70.512 363.808 70C363.808 69.48 363.712 69.056 363.52 68.728C363.328 68.4 363.076 68.16 362.764 68.008C362.46 67.848 362.132 67.768 361.78 67.768C361.428 67.768 361.1 67.848 360.796 68.008C360.492 68.16 360.244 68.404 360.052 68.74C359.868 69.068 359.776 69.488 359.776 70C359.776 70.52 359.868 70.944 360.052 71.272C360.236 71.6 360.476 71.844 360.772 72.004C361.076 72.156 361.404 72.232 361.756 72.232ZM366.254 67H367.082L367.13 67.852C367.322 67.556 367.574 67.328 367.886 67.168C368.198 67 368.562 66.916 368.978 66.916C369.434 66.916 369.834 67.016 370.178 67.216C370.522 67.408 370.79 67.7 370.982 68.092C371.174 68.476 371.27 68.96 371.27 69.544V73H370.37V69.652C370.37 69.028 370.234 68.556 369.962 68.236C369.698 67.908 369.314 67.744 368.81 67.744C368.29 67.744 367.882 67.916 367.586 68.26C367.298 68.604 367.154 69.112 367.154 69.784V73H366.254V67ZM373.4 67V65.32H374.3V67H375.896V67.84H374.3V71.068C374.3 71.436 374.376 71.704 374.528 71.872C374.688 72.04 374.888 72.14 375.128 72.172C375.376 72.204 375.632 72.204 375.896 72.172V72.952C375.584 73.024 375.276 73.044 374.972 73.012C374.676 72.98 374.408 72.892 374.168 72.748C373.936 72.596 373.748 72.384 373.604 72.112C373.468 71.84 373.4 71.492 373.4 71.068V67.84H372.5V67H373.4ZM377.235 64.36H378.135V67.816C378.327 67.528 378.587 67.308 378.915 67.156C379.243 66.996 379.611 66.916 380.019 66.916C380.459 66.916 380.851 67.016 381.195 67.216C381.539 67.416 381.807 67.712 381.999 68.104C382.199 68.496 382.299 68.984 382.299 69.568V73H381.339V69.676C381.339 69.052 381.207 68.576 380.943 68.248C380.679 67.912 380.295 67.744 379.791 67.744C379.271 67.744 378.863 67.92 378.567 68.272C378.279 68.624 378.135 69.136 378.135 69.808V73H377.235V64.36Z" fill="black"/>
<path d="M48.8485 159H48.1165V150.6H48.9085L52.1605 158.004L55.4005 150.6H56.1925V159H55.4605V152.076L52.4245 159H51.8845L48.8485 152.076V159ZM61.9241 159.084C61.3321 159.084 60.7841 158.98 60.2801 158.772C59.7761 158.564 59.3361 158.272 58.9601 157.896C58.5841 157.512 58.2921 157.06 58.0841 156.54C57.8841 156.012 57.7841 155.432 57.7841 154.8C57.7841 154.168 57.8841 153.592 58.0841 153.072C58.2921 152.544 58.5841 152.092 58.9601 151.716C59.3361 151.332 59.7761 151.036 60.2801 150.828C60.7841 150.62 61.3321 150.516 61.9241 150.516C62.5081 150.516 63.0481 150.62 63.5441 150.828C64.0481 151.036 64.4841 151.332 64.8521 151.716C65.2281 152.092 65.5201 152.544 65.7281 153.072C65.9361 153.592 66.0401 154.168 66.0401 154.8C66.0401 155.432 65.9361 156.012 65.7281 156.54C65.5201 157.06 65.2281 157.512 64.8521 157.896C64.4841 158.272 64.0481 158.564 63.5441 158.772C63.0481 158.98 62.5081 159.084 61.9241 159.084ZM61.9241 158.448C62.5561 158.448 63.1241 158.3 63.6281 158.004C64.1401 157.708 64.5441 157.288 64.8401 156.744C65.1441 156.2 65.2961 155.552 65.2961 154.8C65.2961 154.048 65.1441 153.4 64.8401 152.856C64.5441 152.304 64.1401 151.884 63.6281 151.596C63.1241 151.3 62.5561 151.152 61.9241 151.152C61.2841 151.152 60.7081 151.3 60.1961 151.596C59.6841 151.884 59.2761 152.304 58.9721 152.856C58.6761 153.4 58.5281 154.048 58.5281 154.8C58.5281 155.552 58.6761 156.2 58.9721 156.744C59.2761 157.288 59.6841 157.708 60.1961 158.004C60.7081 158.3 61.2841 158.448 61.9241 158.448ZM73.8803 150.6V159H73.1483L68.3603 151.776V159H67.6283V150.6H68.3603L73.1483 157.812V150.6H73.8803Z" fill="black"/>
<path d="M95.8681 150.969H102.024V151.605H99.3121V159.369H98.5921V151.605H95.8681V150.969ZM103.555 150.969H104.287V156.249C104.287 156.857 104.395 157.353 104.611 157.737C104.827 158.113 105.115 158.389 105.475 158.565C105.843 158.733 106.251 158.817 106.699 158.817C107.147 158.817 107.547 158.733 107.899 158.565C108.259 158.389 108.543 158.113 108.751 157.737C108.967 157.353 109.075 156.857 109.075 156.249V150.969H109.807V156.237C109.807 156.797 109.723 157.281 109.555 157.689C109.395 158.089 109.171 158.421 108.883 158.685C108.595 158.941 108.263 159.133 107.887 159.261C107.511 159.389 107.111 159.453 106.687 159.453C106.119 159.453 105.599 159.341 105.127 159.117C104.655 158.885 104.275 158.533 103.987 158.061C103.699 157.589 103.555 156.981 103.555 156.237V150.969ZM117.288 151.605H112.608V154.761H116.124V155.397H112.608V158.733H117.288V159.369H111.876V150.969H117.288V151.605Z" fill="black"/>
<path d="M149.261 159.369H148.481L146.141 150.969H146.921L148.877 158.433L151.073 150.969H151.877L154.073 158.421L156.029 150.969H156.809L154.469 159.369H153.677L151.469 152.073L149.261 159.369ZM163.628 151.605H158.948V154.761H162.464V155.397H158.948V158.733H163.628V159.369H158.216V150.969H163.628V151.605ZM168.181 150.969C169.125 150.969 169.925 151.137 170.581 151.473C171.245 151.809 171.749 152.293 172.093 152.925C172.445 153.557 172.621 154.309 172.621 155.181C172.621 156.053 172.445 156.801 172.093 157.425C171.749 158.049 171.245 158.529 170.581 158.865C169.925 159.201 169.125 159.369 168.181 159.369H165.505V150.969H168.181ZM168.181 158.733C169.413 158.733 170.337 158.421 170.953 157.797C171.577 157.165 171.889 156.293 171.889 155.181C171.889 154.069 171.577 153.197 170.953 152.565C170.337 151.925 169.413 151.605 168.181 151.605H166.237V158.733H168.181Z" fill="black"/>
<path d="M200.396 150.969H206.996V152.157H204.416V159.369H202.988V152.157H200.396V150.969ZM209.925 150.969H211.353V154.521H215.313V150.969H216.729V159.369H215.313V155.709H211.353V159.369H209.925V150.969ZM220.075 150.969H221.491V156.321C221.491 156.745 221.575 157.101 221.743 157.389C221.919 157.677 222.155 157.893 222.451 158.037C222.747 158.173 223.083 158.241 223.459 158.241C223.851 158.241 224.195 158.173 224.491 158.037C224.787 157.893 225.019 157.677 225.187 157.389C225.363 157.101 225.451 156.745 225.451 156.321V150.969H226.867V156.285C226.867 156.821 226.771 157.289 226.579 157.689C226.395 158.081 226.139 158.409 225.811 158.673C225.491 158.937 225.127 159.133 224.719 159.261C224.319 159.389 223.895 159.453 223.447 159.453C222.855 159.453 222.303 159.337 221.791 159.105C221.279 158.873 220.863 158.525 220.543 158.061C220.231 157.589 220.075 156.997 220.075 156.285V150.969Z" fill="black"/>
<path d="M259.49 150.969H264.902V151.605H260.222V154.761H263.738V155.397H260.222V159.369H259.49V150.969ZM271.381 153.417C271.381 152.865 271.221 152.425 270.901 152.097C270.581 151.769 270.045 151.605 269.293 151.605H267.229V155.217H269.317C269.797 155.217 270.189 155.141 270.493 154.989C270.797 154.837 271.021 154.625 271.165 154.353C271.309 154.081 271.381 153.769 271.381 153.417ZM269.293 150.969C269.957 150.969 270.493 151.077 270.901 151.293C271.317 151.509 271.625 151.801 271.825 152.169C272.025 152.537 272.125 152.953 272.125 153.417C272.125 153.761 272.069 154.081 271.957 154.377C271.845 154.673 271.673 154.933 271.441 155.157C271.209 155.373 270.917 155.545 270.565 155.673C270.213 155.801 269.797 155.865 269.317 155.865H267.229V159.369H266.497V150.969H269.293ZM269.929 155.589L272.269 159.369H271.441L269.137 155.589H269.929ZM273.857 150.969H274.589V159.369H273.857V150.969Z" fill="black"/>
<path d="M306.784 157.353C306.84 157.577 306.948 157.801 307.108 158.025C307.268 158.249 307.492 158.437 307.78 158.589C308.076 158.733 308.46 158.805 308.932 158.805C309.596 158.805 310.088 158.653 310.408 158.349C310.728 158.045 310.888 157.669 310.888 157.221C310.888 156.877 310.796 156.593 310.612 156.369C310.436 156.145 310.192 155.961 309.88 155.817C309.576 155.673 309.232 155.545 308.848 155.433C308.52 155.345 308.2 155.249 307.888 155.145C307.584 155.033 307.308 154.897 307.06 154.737C306.812 154.577 306.616 154.373 306.472 154.125C306.328 153.869 306.256 153.553 306.256 153.177C306.256 152.713 306.364 152.313 306.58 151.977C306.796 151.633 307.1 151.365 307.492 151.173C307.892 150.981 308.36 150.885 308.896 150.885C309.368 150.885 309.776 150.957 310.12 151.101C310.464 151.237 310.748 151.429 310.972 151.677C311.196 151.917 311.356 152.185 311.452 152.481L310.816 152.721C310.752 152.537 310.636 152.353 310.468 152.169C310.308 151.977 310.092 151.821 309.82 151.701C309.556 151.573 309.24 151.509 308.872 151.509C308.528 151.509 308.212 151.573 307.924 151.701C307.636 151.821 307.404 152.001 307.228 152.241C307.06 152.473 306.976 152.753 306.976 153.081C306.976 153.433 307.072 153.713 307.264 153.921C307.456 154.121 307.708 154.285 308.02 154.413C308.34 154.533 308.692 154.649 309.076 154.761C309.404 154.865 309.72 154.977 310.024 155.097C310.336 155.217 310.608 155.365 310.84 155.541C311.08 155.717 311.268 155.937 311.404 156.201C311.548 156.457 311.62 156.773 311.62 157.149C311.62 157.557 311.524 157.937 311.332 158.289C311.148 158.641 310.86 158.925 310.468 159.141C310.076 159.349 309.568 159.453 308.944 159.453C308.408 159.453 307.944 159.373 307.552 159.213C307.168 159.045 306.856 158.825 306.616 158.553C306.376 158.273 306.212 157.961 306.124 157.617L306.784 157.353ZM316.39 151.605H315.994L313.114 159.369H312.37L315.49 150.969H316.882L319.99 159.369H319.258L316.39 151.605ZM313.75 156.417H318.646V157.053H313.75V156.417ZM319.997 150.969H326.153V151.605H323.441V159.369H322.721V151.605H319.997V150.969Z" fill="black"/>
<path d="M354.976 157.353C355.032 157.577 355.14 157.801 355.3 158.025C355.46 158.249 355.684 158.437 355.972 158.589C356.268 158.733 356.652 158.805 357.124 158.805C357.788 158.805 358.28 158.653 358.6 158.349C358.92 158.045 359.08 157.669 359.08 157.221C359.08 156.877 358.988 156.593 358.804 156.369C358.628 156.145 358.384 155.961 358.072 155.817C357.768 155.673 357.424 155.545 357.04 155.433C356.712 155.345 356.392 155.249 356.08 155.145C355.776 155.033 355.5 154.897 355.252 154.737C355.004 154.577 354.808 154.373 354.664 154.125C354.52 153.869 354.448 153.553 354.448 153.177C354.448 152.713 354.556 152.313 354.772 151.977C354.988 151.633 355.292 151.365 355.684 151.173C356.084 150.981 356.552 150.885 357.088 150.885C357.56 150.885 357.968 150.957 358.312 151.101C358.656 151.237 358.94 151.429 359.164 151.677C359.388 151.917 359.548 152.185 359.644 152.481L359.008 152.721C358.944 152.537 358.828 152.353 358.66 152.169C358.5 151.977 358.284 151.821 358.012 151.701C357.748 151.573 357.432 151.509 357.064 151.509C356.72 151.509 356.404 151.573 356.116 151.701C355.828 151.821 355.596 152.001 355.42 152.241C355.252 152.473 355.168 152.753 355.168 153.081C355.168 153.433 355.264 153.713 355.456 153.921C355.648 154.121 355.9 154.285 356.212 154.413C356.532 154.533 356.884 154.649 357.268 154.761C357.596 154.865 357.912 154.977 358.216 155.097C358.528 155.217 358.8 155.365 359.032 155.541C359.272 155.717 359.46 155.937 359.596 156.201C359.74 156.457 359.812 156.773 359.812 157.149C359.812 157.557 359.716 157.937 359.524 158.289C359.34 158.641 359.052 158.925 358.66 159.141C358.268 159.349 357.76 159.453 357.136 159.453C356.6 159.453 356.136 159.373 355.744 159.213C355.36 159.045 355.048 158.825 354.808 158.553C354.568 158.273 354.404 157.961 354.316 157.617L354.976 157.353ZM361.461 150.969H362.193V156.249C362.193 156.857 362.301 157.353 362.517 157.737C362.733 158.113 363.021 158.389 363.381 158.565C363.749 158.733 364.157 158.817 364.605 158.817C365.053 158.817 365.453 158.733 365.805 158.565C366.165 158.389 366.449 158.113 366.657 157.737C366.873 157.353 366.981 156.857 366.981 156.249V150.969H367.713V156.237C367.713 156.797 367.629 157.281 367.461 157.689C367.301 158.089 367.077 158.421 366.789 158.685C366.501 158.941 366.169 159.133 365.793 159.261C365.417 159.389 365.017 159.453 364.593 159.453C364.025 159.453 363.505 159.341 363.033 159.117C362.561 158.885 362.181 158.533 361.893 158.061C361.605 157.589 361.461 156.981 361.461 156.237V150.969ZM376.035 150.969V159.369H375.303L370.515 152.145V159.369H369.783V150.969H370.515L375.303 158.181V150.969H376.035Z" fill="black"/>
<g filter="url(#filter3_d_294_266)">
<circle cx="214.79" cy="86.2105" r="3.16059" fill="url(#paint2_linear_294_266)"/>
</g>
<line x1="46.8574" y1="121.57" x2="370.923" y2="121.57" stroke="white" stroke-opacity="0.2" stroke-width="0.5" stroke-dasharray="10 10"/>
<line x1="46.8574" y1="90.164" x2="370.923" y2="90.164" stroke="#01A1F5" stroke-width="0.1"/>
<path d="M368.534 93.28L371.09 90.916C371.586 90.46 371.978 90.068 372.266 89.74C372.554 89.412 372.758 89.108 372.878 88.828C373.006 88.548 373.07 88.256 373.07 87.952C373.07 87.48 372.93 87.1 372.65 86.812C372.37 86.516 371.942 86.368 371.366 86.368C370.974 86.368 370.642 86.452 370.37 86.62C370.098 86.788 369.89 87.02 369.746 87.316C369.602 87.612 369.526 87.96 369.518 88.36H368.594C368.61 87.736 368.738 87.216 368.978 86.8C369.226 86.376 369.558 86.056 369.974 85.84C370.39 85.624 370.854 85.516 371.366 85.516C371.926 85.516 372.406 85.62 372.806 85.828C373.206 86.028 373.51 86.312 373.718 86.68C373.934 87.04 374.042 87.464 374.042 87.952C374.042 88.312 373.974 88.66 373.838 88.996C373.702 89.332 373.47 89.696 373.142 90.088C372.822 90.472 372.382 90.924 371.822 91.444L369.974 93.16H374.282V94H368.534V93.28ZM375.873 89.8C375.873 89.184 375.917 88.616 376.005 88.096C376.093 87.568 376.245 87.112 376.461 86.728C376.677 86.344 376.977 86.048 377.361 85.84C377.753 85.624 378.245 85.516 378.837 85.516C379.429 85.516 379.917 85.624 380.301 85.84C380.685 86.048 380.985 86.344 381.201 86.728C381.417 87.112 381.569 87.568 381.657 88.096C381.745 88.616 381.789 89.184 381.789 89.8C381.789 90.424 381.745 91 381.657 91.528C381.569 92.048 381.417 92.5 381.201 92.884C380.985 93.268 380.685 93.564 380.301 93.772C379.917 93.98 379.429 94.084 378.837 94.084C378.245 94.084 377.753 93.98 377.361 93.772C376.977 93.564 376.677 93.268 376.461 92.884C376.245 92.5 376.093 92.048 376.005 91.528C375.917 91 375.873 90.424 375.873 89.8ZM380.817 89.8C380.817 89.328 380.793 88.888 380.745 88.48C380.705 88.064 380.621 87.7 380.493 87.388C380.365 87.068 380.169 86.82 379.905 86.644C379.641 86.46 379.285 86.368 378.837 86.368C378.397 86.368 378.041 86.46 377.769 86.644C377.505 86.82 377.305 87.068 377.169 87.388C377.041 87.7 376.953 88.064 376.905 88.48C376.865 88.888 376.845 89.328 376.845 89.8C376.845 90.288 376.865 90.74 376.905 91.156C376.953 91.572 377.041 91.936 377.169 92.248C377.305 92.56 377.505 92.804 377.769 92.98C378.041 93.148 378.397 93.232 378.837 93.232C379.285 93.232 379.641 93.148 379.905 92.98C380.169 92.804 380.365 92.56 380.493 92.248C380.621 91.936 380.705 91.572 380.745 91.156C380.793 90.74 380.817 90.288 380.817 89.8ZM383.42 89.8C383.42 89.184 383.464 88.616 383.552 88.096C383.64 87.568 383.792 87.112 384.008 86.728C384.224 86.344 384.524 86.048 384.908 85.84C385.3 85.624 385.792 85.516 386.384 85.516C386.976 85.516 387.464 85.624 387.848 85.84C388.232 86.048 388.532 86.344 388.748 86.728C388.964 87.112 389.116 87.568 389.204 88.096C389.292 88.616 389.336 89.184 389.336 89.8C389.336 90.424 389.292 91 389.204 91.528C389.116 92.048 388.964 92.5 388.748 92.884C388.532 93.268 388.232 93.564 387.848 93.772C387.464 93.98 386.976 94.084 386.384 94.084C385.792 94.084 385.3 93.98 384.908 93.772C384.524 93.564 384.224 93.268 384.008 92.884C383.792 92.5 383.64 92.048 383.552 91.528C383.464 91 383.42 90.424 383.42 89.8ZM388.364 89.8C388.364 89.328 388.34 88.888 388.292 88.48C388.252 88.064 388.168 87.7 388.04 87.388C387.912 87.068 387.716 86.82 387.452 86.644C387.188 86.46 386.832 86.368 386.384 86.368C385.944 86.368 385.588 86.46 385.316 86.644C385.052 86.82 384.852 87.068 384.716 87.388C384.588 87.7 384.5 88.064 384.452 88.48C384.412 88.888 384.392 89.328 384.392 89.8C384.392 90.288 384.412 90.74 384.452 91.156C384.5 91.572 384.588 91.936 384.716 92.248C384.852 92.56 385.052 92.804 385.316 92.98C385.588 93.148 385.944 93.232 386.384 93.232C386.832 93.232 387.188 93.148 387.452 92.98C387.716 92.804 387.912 92.56 388.04 92.248C388.168 91.936 388.252 91.572 388.292 91.156C388.34 90.74 388.364 90.288 388.364 89.8Z" fill="#8A8B8C"/>
<path d="M371.311 117.44H370.135V116.6H372.271V125H371.311V117.44ZM374.103 120.8C374.103 120.184 374.147 119.616 374.235 119.096C374.323 118.568 374.475 118.112 374.691 117.728C374.907 117.344 375.207 117.048 375.591 116.84C375.983 116.624 376.475 116.516 377.067 116.516C377.659 116.516 378.147 116.624 378.531 116.84C378.915 117.048 379.215 117.344 379.431 117.728C379.647 118.112 379.799 118.568 379.887 119.096C379.975 119.616 380.019 120.184 380.019 120.8C380.019 121.424 379.975 122 379.887 122.528C379.799 123.048 379.647 123.5 379.431 123.884C379.215 124.268 378.915 124.564 378.531 124.772C378.147 124.98 377.659 125.084 377.067 125.084C376.475 125.084 375.983 124.98 375.591 124.772C375.207 124.564 374.907 124.268 374.691 123.884C374.475 123.5 374.323 123.048 374.235 122.528C374.147 122 374.103 121.424 374.103 120.8ZM379.047 120.8C379.047 120.328 379.023 119.888 378.975 119.48C378.935 119.064 378.851 118.7 378.723 118.388C378.595 118.068 378.399 117.82 378.135 117.644C377.871 117.46 377.515 117.368 377.067 117.368C376.627 117.368 376.271 117.46 375.999 117.644C375.735 117.82 375.535 118.068 375.399 118.388C375.271 118.7 375.183 119.064 375.135 119.48C375.095 119.888 375.075 120.328 375.075 120.8C375.075 121.288 375.095 121.74 375.135 122.156C375.183 122.572 375.271 122.936 375.399 123.248C375.535 123.56 375.735 123.804 375.999 123.98C376.271 124.148 376.627 124.232 377.067 124.232C377.515 124.232 377.871 124.148 378.135 123.98C378.399 123.804 378.595 123.56 378.723 123.248C378.851 122.936 378.935 122.572 378.975 122.156C379.023 121.74 379.047 121.288 379.047 120.8ZM381.65 120.8C381.65 120.184 381.694 119.616 381.782 119.096C381.87 118.568 382.022 118.112 382.238 117.728C382.454 117.344 382.754 117.048 383.138 116.84C383.53 116.624 384.022 116.516 384.614 116.516C385.206 116.516 385.694 116.624 386.078 116.84C386.462 117.048 386.762 117.344 386.978 117.728C387.194 118.112 387.346 118.568 387.434 119.096C387.522 119.616 387.566 120.184 387.566 120.8C387.566 121.424 387.522 122 387.434 122.528C387.346 123.048 387.194 123.5 386.978 123.884C386.762 124.268 386.462 124.564 386.078 124.772C385.694 124.98 385.206 125.084 384.614 125.084C384.022 125.084 383.53 124.98 383.138 124.772C382.754 124.564 382.454 124.268 382.238 123.884C382.022 123.5 381.87 123.048 381.782 122.528C381.694 122 381.65 121.424 381.65 120.8ZM386.594 120.8C386.594 120.328 386.57 119.888 386.522 119.48C386.482 119.064 386.398 118.7 386.27 118.388C386.142 118.068 385.946 117.82 385.682 117.644C385.418 117.46 385.062 117.368 384.614 117.368C384.174 117.368 383.818 117.46 383.546 117.644C383.282 117.82 383.082 118.068 382.946 118.388C382.818 118.7 382.73 119.064 382.682 119.48C382.642 119.888 382.622 120.328 382.622 120.8C382.622 121.288 382.642 121.74 382.682 122.156C382.73 122.572 382.818 122.936 382.946 123.248C383.082 123.56 383.282 123.804 383.546 123.98C383.818 124.148 384.174 124.232 384.614 124.232C385.062 124.232 385.418 124.148 385.682 123.98C385.946 123.804 386.142 123.56 386.27 123.248C386.398 122.936 386.482 122.572 386.522 122.156C386.57 121.74 386.594 121.288 386.594 120.8Z" fill="#8A8B8C"/>
</g>
<defs>
<filter id="filter0_d_294_266" x="-25" y="0.865479" width="480" height="227.153" filterUnits="userSpaceOnUse" color-interpolation-filters="sRGB">
<feFlood flood-opacity="0" result="BackgroundImageFix"/>
<feColorMatrix in="SourceAlpha" type="matrix" values="0 0 0 0 0 0 0 0 0 0 0 0 0 0 0 0 0 0 127 0" result="hardAlpha"/>
<feOffset dy="4"/>
<feGaussianBlur stdDeviation="27.5"/>
<feComposite in2="hardAlpha" operator="out"/>
<feColorMatrix type="matrix" values="0 0 0 0 0 0 0 0 0 0 0 0 0 0 0 0 0 0 0.11 0"/>
<feBlend mode="normal" in2="BackgroundImageFix" result="effect1_dropShadow_294_266"/>
<feBlend mode="normal" in="SourceGraphic" in2="effect1_dropShadow_294_266" result="shape"/>
</filter>
<filter id="filter1_d_294_266" x="21.5859" y="30.288" width="168.559" height="77.112" filterUnits="userSpaceOnUse" color-interpolation-filters="sRGB">
<feFlood flood-opacity="0" result="BackgroundImageFix"/>
<feColorMatrix in="SourceAlpha" type="matrix" values="0 0 0 0 0 0 0 0 0 0 0 0 0 0 0 0 0 0 127 0" result="hardAlpha"/>
<feOffset dy="-1"/>
<feGaussianBlur stdDeviation="16.5"/>
<feComposite in2="hardAlpha" operator="out"/>
<feColorMatrix type="matrix" values="0 0 0 0 0.1 0 0 0 0 0.745395 0 0 0 0 1 0 0 0 0.5 0"/>
<feBlend mode="normal" in2="BackgroundImageFix" result="effect1_dropShadow_294_266"/>
<feBlend mode="normal" in="SourceGraphic" in2="effect1_dropShadow_294_266" result="shape"/>
</filter>
<filter id="filter2_d_294_266" x="12.3574" y="50.9323" width="392.645" height="125.88" filterUnits="userSpaceOnUse" color-interpolation-filters="sRGB">
<feFlood flood-opacity="0" result="BackgroundImageFix"/>
<feColorMatrix in="SourceAlpha" type="matrix" values="0 0 0 0 0 0 0 0 0 0 0 0 0 0 0 0 0 0 127 0" result="hardAlpha"/>
<feOffset dy="-1"/>
<feGaussianBlur stdDeviation="16.5"/>
<feComposite in2="hardAlpha" operator="out"/>
<feColorMatrix type="matrix" values="0 0 0 0 0.1 0 0 0 0 0.745395 0 0 0 0 1 0 0 0 0.5 0"/>
<feBlend mode="normal" in2="BackgroundImageFix" result="effect1_dropShadow_294_266"/>
<feBlend mode="normal" in="SourceGraphic" in2="effect1_dropShadow_294_266" result="shape"/>
</filter>
<filter id="filter3_d_294_266" x="178.629" y="49.0499" width="72.3203" height="72.3212" filterUnits="userSpaceOnUse" color-interpolation-filters="sRGB">
<feFlood flood-opacity="0" result="BackgroundImageFix"/>
<feColorMatrix in="SourceAlpha" type="matrix" values="0 0 0 0 0 0 0 0 0 0 0 0 0 0 0 0 0 0 127 0" result="hardAlpha"/>
<feOffset dy="-1"/>
<feGaussianBlur stdDeviation="16.5"/>
<feComposite in2="hardAlpha" operator="out"/>
<feColorMatrix type="matrix" values="0 0 0 0 0.1 0 0 0 0 0.745395 0 0 0 0 1 0 0 0 0.5 0"/>
<feBlend mode="normal" in2="BackgroundImageFix" result="effect1_dropShadow_294_266"/>
<feBlend mode="normal" in="SourceGraphic" in2="effect1_dropShadow_294_266" result="shape"/>
</filter>
<linearGradient id="paint0_linear_294_266" x1="220.559" y1="87.0378" x2="220.948" y2="155.015" gradientUnits="userSpaceOnUse">
<stop stop-color="#67DE7F"/>
<stop offset="1" stop-color="white"/>
</linearGradient>
<linearGradient id="paint1_linear_294_266" x1="215.418" y1="80.6703" x2="219.894" y2="142.61" gradientUnits="userSpaceOnUse">
<stop stop-color="#26E2B3" stop-opacity="0"/>
<stop offset="1" stop-color="#67DE7F"/>
</linearGradient>
<linearGradient id="paint2_linear_294_266" x1="215.741" y1="83.3663" x2="215.082" y2="92.2584" gradientUnits="userSpaceOnUse">
<stop stop-color="#67DE7F"/>
<stop offset="1" stop-color="white"/>
</linearGradient>
</defs>
</svg>
