<svg width="67" height="87" viewBox="0 0 67 87" fill="none" xmlns="http://www.w3.org/2000/svg">
<path d="M57.4856 18.9036C56.1955 8.357 47.084 0.156006 36.0619 0.156006H0V70.7639H43.2269L47.1912 81.9984C47.8251 83.8017 49.1331 85.2611 50.8697 86.1033C51.883 86.5971 52.9723 86.844 54.066 86.844C54.8651 86.844 55.6687 86.7117 56.4499 86.4428C62.1909 84.4631 66.048 79.1015 66.048 73.0919V72.8009L57.4901 18.9036H57.4856ZM7.58916 63.2684V39.2077H22.6023V31.7122H7.58916V7.65153H36.0619C43.2448 7.65153 49.1777 13.0219 49.9679 19.9089C50.0304 20.4468 50.0616 20.9759 50.0616 21.483C50.0616 21.7211 50.0527 21.9592 50.0438 22.1929C50.0438 22.2722 50.0349 22.3516 50.0259 22.431C50.017 22.5853 50.0036 22.744 49.9858 22.8983C49.9768 22.9909 49.9679 23.0879 49.9545 23.1805C49.9366 23.3172 49.9188 23.4583 49.8965 23.595C49.8831 23.692 49.8652 23.7934 49.8518 23.8904C49.825 24.0359 49.7938 24.177 49.767 24.3181C49.7268 24.5165 49.6777 24.7105 49.6286 24.9089C49.6108 24.9882 49.5884 25.0632 49.5661 25.1426C49.5259 25.2881 49.4813 25.4292 49.4367 25.5747C49.4188 25.6364 49.3965 25.6937 49.3786 25.7554C49.3295 25.9098 49.2759 26.0641 49.2179 26.2184C49.2134 26.236 49.2045 26.2537 49.2001 26.2713C49.0036 26.796 48.776 27.303 48.5215 27.7969C48.5081 27.8277 48.4902 27.8542 48.4769 27.885C48.3965 28.035 48.3161 28.1849 48.2269 28.3348C48.2045 28.3701 48.1822 28.4097 48.1599 28.445C47.9188 28.8507 47.6599 29.2475 47.3787 29.6267C47.3028 29.7325 47.2224 29.8383 47.1421 29.9397C47.0885 30.0058 47.0349 30.0764 46.9813 30.1425C46.8608 30.2924 46.7358 30.4379 46.6063 30.5834C46.5885 30.6055 46.5662 30.6275 46.5483 30.6496C46.0349 31.2228 45.468 31.7563 44.8564 32.2457L44.6108 32.4441C42.9278 33.7316 40.9279 34.6487 38.727 35.0675C36.8163 35.4291 35.1601 36.5931 34.1914 38.2509C33.2271 39.9044 33.0396 41.8841 33.6735 43.683L40.5841 63.2772H7.58916V63.2684ZM54.258 79.2515L41.1868 42.1971C45.6689 41.1213 49.5527 38.683 52.4232 35.385L58.4499 73.352C58.3472 75.9622 56.6999 78.2726 54.258 79.2515Z" fill="url(#paint0_linear_554_1276)"/>
<defs>
<linearGradient id="paint0_linear_554_1276" x1="33.0218" y1="9.133" x2="33.0218" y2="99.2822" gradientUnits="userSpaceOnUse">
<stop stop-color="#4699F7"/>
<stop offset="1" stop-color="#67DE7F"/>
</linearGradient>
</defs>
</svg>
