<svg width="988" height="388" viewBox="0 0 988 388" fill="none" xmlns="http://www.w3.org/2000/svg">
<g filter="url(#filter0_d_294_142)">
<rect x="55" y="51" width="878" height="278" rx="12" fill="white"/>
<g filter="url(#filter1_d_294_142)">
<path d="M106.667 89V78.8182H110.107C110.902 78.8182 111.555 78.9541 112.066 79.2259C112.576 79.4943 112.954 79.8639 113.199 80.3345C113.444 80.8052 113.567 81.3404 113.567 81.9403C113.567 82.5402 113.444 83.0722 113.199 83.5362C112.954 84.0002 112.578 84.3648 112.071 84.63C111.564 84.8918 110.916 85.0227 110.127 85.0227H107.343V83.9091H110.087C110.631 83.9091 111.068 83.8295 111.4 83.6705C111.734 83.5114 111.976 83.286 112.125 82.9943C112.278 82.6993 112.354 82.348 112.354 81.9403C112.354 81.5327 112.278 81.1764 112.125 80.8714C111.973 80.5665 111.729 80.3312 111.395 80.1655C111.06 79.9964 110.617 79.9119 110.067 79.9119H107.9V89H106.667ZM111.459 84.4261L113.965 89H112.533L110.067 84.4261H111.459ZM118.582 89.1591C117.846 89.1591 117.212 88.9967 116.678 88.6719C116.148 88.3438 115.738 87.8864 115.45 87.2997C115.165 86.7098 115.023 86.0237 115.023 85.2415C115.023 84.4593 115.165 83.7699 115.45 83.1733C115.738 82.5734 116.14 82.1061 116.653 81.7713C117.17 81.4332 117.773 81.2642 118.463 81.2642C118.861 81.2642 119.253 81.3305 119.641 81.4631C120.029 81.5956 120.382 81.8111 120.7 82.1094C121.018 82.4044 121.272 82.7955 121.461 83.2827C121.65 83.7699 121.744 84.3698 121.744 85.0824V85.5795H115.858V84.5653H120.551C120.551 84.1345 120.465 83.75 120.292 83.4119C120.123 83.0739 119.881 82.8071 119.567 82.6115C119.255 82.416 118.887 82.3182 118.463 82.3182C117.996 82.3182 117.591 82.4342 117.25 82.6662C116.912 82.8949 116.652 83.1932 116.469 83.5611C116.287 83.929 116.196 84.3234 116.196 84.7443V85.4205C116.196 85.9972 116.295 86.486 116.494 86.8871C116.696 87.2848 116.976 87.5881 117.334 87.7969C117.692 88.0024 118.108 88.1051 118.582 88.1051C118.89 88.1051 119.169 88.062 119.417 87.9759C119.669 87.8864 119.886 87.7538 120.069 87.5781C120.251 87.3991 120.392 87.1771 120.491 86.9119L121.625 87.2301C121.506 87.6146 121.305 87.9527 121.023 88.2443C120.742 88.5327 120.394 88.758 119.979 88.9205C119.565 89.0795 119.099 89.1591 118.582 89.1591ZM126.93 81.3636V82.358H122.813V81.3636H126.93ZM124.046 89V80.3097C124.046 79.8722 124.149 79.5076 124.354 79.2159C124.56 78.9242 124.827 78.7055 125.155 78.5597C125.483 78.4138 125.829 78.3409 126.194 78.3409C126.482 78.3409 126.717 78.3641 126.9 78.4105C127.082 78.4569 127.218 78.5 127.307 78.5398L126.969 79.554C126.91 79.5341 126.827 79.5092 126.721 79.4794C126.618 79.4496 126.482 79.4347 126.313 79.4347C125.925 79.4347 125.645 79.5324 125.473 79.728C125.304 79.9235 125.219 80.2102 125.219 80.5881V89H124.046ZM131.461 89.1591C130.725 89.1591 130.091 88.9967 129.557 88.6719C129.027 88.3438 128.617 87.8864 128.329 87.2997C128.044 86.7098 127.901 86.0237 127.901 85.2415C127.901 84.4593 128.044 83.7699 128.329 83.1733C128.617 82.5734 129.018 82.1061 129.532 81.7713C130.049 81.4332 130.652 81.2642 131.342 81.2642C131.74 81.2642 132.132 81.3305 132.52 81.4631C132.908 81.5956 133.261 81.8111 133.579 82.1094C133.897 82.4044 134.151 82.7955 134.34 83.2827C134.529 83.7699 134.623 84.3698 134.623 85.0824V85.5795H128.737V84.5653H133.43C133.43 84.1345 133.344 83.75 133.171 83.4119C133.002 83.0739 132.76 82.8071 132.445 82.6115C132.134 82.416 131.766 82.3182 131.342 82.3182C130.874 82.3182 130.47 82.4342 130.129 82.6662C129.791 82.8949 129.53 83.1932 129.348 83.5611C129.166 83.929 129.075 84.3234 129.075 84.7443V85.4205C129.075 85.9972 129.174 86.486 129.373 86.8871C129.575 87.2848 129.855 87.5881 130.213 87.7969C130.571 88.0024 130.987 88.1051 131.461 88.1051C131.769 88.1051 132.048 88.062 132.296 87.9759C132.548 87.8864 132.765 87.7538 132.948 87.5781C133.13 87.3991 133.271 87.1771 133.37 86.9119L134.504 87.2301C134.384 87.6146 134.184 87.9527 133.902 88.2443C133.62 88.5327 133.272 88.758 132.858 88.9205C132.444 89.0795 131.978 89.1591 131.461 89.1591ZM136.408 89V81.3636H137.541V82.517H137.621C137.76 82.1392 138.012 81.8326 138.377 81.5973C138.741 81.362 139.152 81.2443 139.61 81.2443C139.696 81.2443 139.803 81.246 139.933 81.2493C140.062 81.2526 140.16 81.2576 140.226 81.2642V82.4574C140.186 82.4474 140.095 82.4325 139.953 82.4126C139.813 82.3894 139.666 82.3778 139.51 82.3778C139.139 82.3778 138.807 82.4557 138.516 82.6115C138.227 82.764 137.999 82.9761 137.83 83.2479C137.664 83.5163 137.581 83.8229 137.581 84.1676V89H136.408ZM141.617 89V81.3636H142.75V82.517H142.83C142.969 82.1392 143.221 81.8326 143.586 81.5973C143.95 81.362 144.361 81.2443 144.819 81.2443C144.905 81.2443 145.012 81.246 145.142 81.2493C145.271 81.2526 145.369 81.2576 145.435 81.2642V82.4574C145.395 82.4474 145.304 82.4325 145.162 82.4126C145.022 82.3894 144.875 82.3778 144.719 82.3778C144.348 82.3778 144.016 82.4557 143.725 82.6115C143.436 82.764 143.208 82.9761 143.039 83.2479C142.873 83.5163 142.79 83.8229 142.79 84.1676V89H141.617ZM149.073 89.179C148.589 89.179 148.15 89.0878 147.756 88.9055C147.361 88.7199 147.048 88.4531 146.816 88.1051C146.584 87.7538 146.468 87.3295 146.468 86.8324C146.468 86.3949 146.554 86.0402 146.726 85.7685C146.899 85.4934 147.129 85.2779 147.417 85.1222C147.706 84.9664 148.024 84.8504 148.372 84.7741C148.723 84.6946 149.076 84.6316 149.431 84.5852C149.895 84.5256 150.271 84.4808 150.559 84.451C150.851 84.4179 151.063 84.3632 151.196 84.2869C151.332 84.2107 151.4 84.0781 151.4 83.8892V83.8494C151.4 83.3589 151.265 82.9777 150.997 82.706C150.732 82.4342 150.329 82.2983 149.789 82.2983C149.229 82.2983 148.79 82.4209 148.471 82.6662C148.153 82.9115 147.93 83.1733 147.8 83.4517L146.687 83.054C146.885 82.59 147.151 82.2287 147.482 81.9702C147.817 81.7083 148.181 81.526 148.576 81.4233C148.974 81.3172 149.365 81.2642 149.749 81.2642C149.994 81.2642 150.276 81.294 150.594 81.3537C150.916 81.41 151.226 81.5277 151.524 81.7067C151.826 81.8857 152.076 82.1558 152.275 82.517C152.474 82.8783 152.573 83.3622 152.573 83.9688V89H151.4V87.9659H151.34C151.26 88.1316 151.128 88.3089 150.942 88.4979C150.757 88.6868 150.51 88.8475 150.202 88.9801C149.893 89.1127 149.517 89.179 149.073 89.179ZM149.252 88.125C149.716 88.125 150.107 88.0339 150.425 87.8516C150.747 87.6693 150.989 87.4339 151.151 87.1456C151.317 86.8572 151.4 86.554 151.4 86.2358V85.1619C151.35 85.2216 151.241 85.2763 151.072 85.326C150.906 85.3724 150.714 85.4138 150.495 85.4503C150.279 85.4834 150.069 85.5133 149.863 85.5398C149.661 85.563 149.497 85.5829 149.371 85.5994C149.066 85.6392 148.781 85.7038 148.516 85.7933C148.254 85.8795 148.042 86.0104 147.88 86.1861C147.721 86.3584 147.641 86.5937 147.641 86.892C147.641 87.2997 147.792 87.608 148.094 87.8168C148.398 88.0223 148.785 88.125 149.252 88.125ZM155.888 78.8182V89H154.714V78.8182H155.888ZM163.446 83.0739L162.392 83.3722C162.326 83.1965 162.228 83.0258 162.099 82.8601C161.973 82.6911 161.8 82.5518 161.581 82.4425C161.363 82.3331 161.083 82.2784 160.741 82.2784C160.274 82.2784 159.885 82.3861 159.573 82.6016C159.265 82.8137 159.111 83.0838 159.111 83.4119C159.111 83.7036 159.217 83.9339 159.429 84.103C159.641 84.272 159.972 84.4129 160.423 84.5256L161.557 84.804C162.239 84.9697 162.748 85.2232 163.083 85.5646C163.418 85.9027 163.585 86.3385 163.585 86.8722C163.585 87.3097 163.459 87.7008 163.207 88.0455C162.959 88.3902 162.611 88.6619 162.163 88.8608C161.716 89.0597 161.195 89.1591 160.602 89.1591C159.823 89.1591 159.179 88.9901 158.668 88.652C158.158 88.3139 157.835 87.8201 157.699 87.1705L158.812 86.892C158.918 87.303 159.119 87.6113 159.414 87.8168C159.712 88.0223 160.102 88.125 160.582 88.125C161.129 88.125 161.563 88.009 161.885 87.777C162.21 87.5417 162.372 87.2599 162.372 86.9318C162.372 86.6667 162.279 86.4446 162.094 86.2656C161.908 86.0833 161.623 85.9474 161.238 85.858L159.966 85.5597C159.266 85.3939 158.753 85.1371 158.425 84.7891C158.1 84.4377 157.937 83.9986 157.937 83.4716C157.937 83.0407 158.058 82.6596 158.3 82.3281C158.546 81.9967 158.879 81.7365 159.3 81.5476C159.724 81.3587 160.204 81.2642 160.741 81.2642C161.497 81.2642 162.09 81.4299 162.521 81.7614C162.955 82.0928 163.264 82.5303 163.446 83.0739ZM175.016 81.3636C174.956 80.8598 174.714 80.4688 174.29 80.1903C173.866 79.9119 173.346 79.7727 172.729 79.7727C172.278 79.7727 171.884 79.8456 171.546 79.9915C171.211 80.1373 170.949 80.3378 170.76 80.593C170.575 80.8482 170.482 81.1383 170.482 81.4631C170.482 81.7348 170.547 81.9685 170.676 82.1641C170.808 82.3563 170.977 82.517 171.183 82.6463C171.388 82.7723 171.604 82.8767 171.829 82.9595C172.055 83.0391 172.262 83.1037 172.451 83.1534L173.485 83.4318C173.75 83.5014 174.045 83.5975 174.37 83.7202C174.698 83.8428 175.011 84.0102 175.309 84.2223C175.611 84.4311 175.859 84.6996 176.055 85.0277C176.251 85.3558 176.348 85.7585 176.348 86.2358C176.348 86.786 176.204 87.2831 175.916 87.7273C175.631 88.1714 175.213 88.5244 174.663 88.7862C174.116 89.0481 173.452 89.179 172.669 89.179C171.94 89.179 171.309 89.0613 170.775 88.826C170.245 88.5907 169.827 88.2625 169.522 87.8416C169.221 87.4207 169.05 86.9318 169.01 86.375H170.283C170.316 86.7595 170.445 87.0777 170.671 87.3295C170.9 87.5781 171.188 87.7637 171.536 87.8864C171.887 88.0057 172.265 88.0653 172.669 88.0653C173.14 88.0653 173.563 87.9891 173.937 87.8366C174.312 87.6809 174.608 87.4654 174.827 87.1903C175.046 86.9119 175.155 86.5871 175.155 86.2159C175.155 85.8778 175.061 85.6027 174.872 85.3906C174.683 85.1785 174.434 85.0062 174.126 84.8736C173.818 84.741 173.485 84.625 173.127 84.5256L171.874 84.1676C171.078 83.9389 170.449 83.6125 169.985 83.1882C169.521 82.764 169.289 82.2088 169.289 81.5227C169.289 80.9527 169.443 80.4555 169.751 80.0312C170.063 79.6037 170.48 79.2723 171.004 79.0369C171.531 78.7983 172.119 78.679 172.769 78.679C173.425 78.679 174.008 78.7966 174.519 79.032C175.029 79.264 175.434 79.5821 175.732 79.9865C176.033 80.3909 176.193 80.8499 176.209 81.3636H175.016ZM181.418 89.1591C180.682 89.1591 180.048 88.9967 179.514 88.6719C178.984 88.3438 178.574 87.8864 178.286 87.2997C178.001 86.7098 177.858 86.0237 177.858 85.2415C177.858 84.4593 178.001 83.7699 178.286 83.1733C178.574 82.5734 178.975 82.1061 179.489 81.7713C180.006 81.4332 180.609 81.2642 181.299 81.2642C181.697 81.2642 182.089 81.3305 182.477 81.4631C182.865 81.5956 183.218 81.8111 183.536 82.1094C183.854 82.4044 184.108 82.7955 184.297 83.2827C184.486 83.7699 184.58 84.3698 184.58 85.0824V85.5795H178.694V84.5653H183.387C183.387 84.1345 183.301 83.75 183.128 83.4119C182.959 83.0739 182.717 82.8071 182.403 82.6115C182.091 82.416 181.723 82.3182 181.299 82.3182C180.831 82.3182 180.427 82.4342 180.086 82.6662C179.748 82.8949 179.488 83.1932 179.305 83.5611C179.123 83.929 179.032 84.3234 179.032 84.7443V85.4205C179.032 85.9972 179.131 86.486 179.33 86.8871C179.532 87.2848 179.812 87.5881 180.17 87.7969C180.528 88.0024 180.944 88.1051 181.418 88.1051C181.726 88.1051 182.005 88.062 182.253 87.9759C182.505 87.8864 182.722 87.7538 182.905 87.5781C183.087 87.3991 183.228 87.1771 183.327 86.9119L184.461 87.2301C184.341 87.6146 184.141 87.9527 183.859 88.2443C183.577 88.5327 183.229 88.758 182.815 88.9205C182.401 89.0795 181.935 89.1591 181.418 89.1591ZM187.538 84.4062V89H186.365V81.3636H187.498V82.5568H187.598C187.777 82.169 188.049 81.8575 188.413 81.6222C188.778 81.3835 189.248 81.2642 189.825 81.2642C190.342 81.2642 190.795 81.3703 191.182 81.5824C191.57 81.7912 191.872 82.1094 192.087 82.5369C192.303 82.9612 192.41 83.4981 192.41 84.1477V89H191.237V84.2273C191.237 83.6274 191.081 83.16 190.77 82.8253C190.458 82.4872 190.031 82.3182 189.487 82.3182C189.113 82.3182 188.778 82.3994 188.483 82.5618C188.191 82.7242 187.961 82.9612 187.792 83.2727C187.623 83.5843 187.538 83.9621 187.538 84.4062ZM197.875 81.3636V82.358H193.918V81.3636H197.875ZM195.071 79.5341H196.245V86.8125C196.245 87.1439 196.293 87.3925 196.389 87.5582C196.488 87.7206 196.614 87.83 196.767 87.8864C196.922 87.9394 197.087 87.9659 197.259 87.9659C197.388 87.9659 197.494 87.9593 197.577 87.946C197.66 87.9295 197.726 87.9162 197.776 87.9062L198.015 88.9602C197.935 88.9901 197.824 89.0199 197.681 89.0497C197.539 89.0829 197.358 89.0994 197.14 89.0994C196.808 89.0994 196.483 89.0282 196.165 88.8857C195.85 88.7431 195.588 88.526 195.38 88.2344C195.174 87.9427 195.071 87.5748 195.071 87.1307V79.5341Z" fill="black"/>
</g>
<g filter="url(#filter2_d_294_142)">
<path d="M95 268C95 268 147.59 211.478 177.912 224.369C208.234 237.26 190.882 257.55 235.418 257.219C279.953 256.889 301.569 211.478 330.469 230.98C332.552 232.386 334.532 233.705 336.412 234.944C352.521 245.558 370.36 235.496 378.316 217.921C382.732 208.167 388.785 200.088 396.799 199.579C417.645 198.256 414.803 228.666 432.333 224.369C449.862 220.073 453.674 125.566 502 133.5C550.326 141.433 553.621 243.871 578.731 253.456C603.841 263.042 602.5 210.5 635 216.5C667.5 222.5 676.5 229.601 688 224C695.5 220.347 697.364 209.105 715.654 211.478C718.994 211.912 722.174 213.587 725.139 216.037C741.663 229.686 765.149 239.524 783.09 227.8C792.771 221.474 803.007 215.396 811.832 211.478C837.89 199.91 863 197.596 863 197.596" stroke="url(#paint0_linear_294_142)" stroke-width="3" stroke-linecap="round"/>
</g>
<rect opacity="0.5" x="463" y="117" width="60" height="192" rx="12" fill="url(#paint1_linear_294_142)"/>
<path d="M719.722 78.2C720.777 78.2 721.687 78.4053 722.452 78.816C723.227 79.2173 723.824 79.7913 724.244 80.538C724.674 81.2753 724.888 82.134 724.888 83.114C724.888 84.094 724.674 84.9527 724.244 85.69C723.824 86.418 723.227 86.9873 722.452 87.398C721.687 87.7993 720.777 88 719.722 88H715.886V78.2H719.722ZM719.61 86.194C720.581 86.194 721.337 85.9187 721.878 85.368C722.42 84.8173 722.69 84.066 722.69 83.114C722.69 82.1527 722.42 81.3967 721.878 80.846C721.337 80.286 720.581 80.006 719.61 80.006H718.056V86.194H719.61ZM731.277 88L731.137 87.132C730.895 87.4307 730.633 87.664 730.353 87.832C730.073 88 729.695 88.084 729.219 88.084C728.79 88.084 728.403 88.0093 728.057 87.86C727.712 87.7013 727.437 87.4727 727.231 87.174C727.035 86.8753 726.937 86.516 726.937 86.096C726.937 85.5173 727.143 85.0367 727.553 84.654C727.973 84.2713 728.622 84.0333 729.499 83.94L731.137 83.758V83.296C731.137 83.1373 731.058 82.9833 730.899 82.834C730.75 82.6753 730.512 82.596 730.185 82.596C729.896 82.596 729.644 82.6707 729.429 82.82C729.224 82.9693 729.084 83.184 729.009 83.464L727.259 82.834C727.465 82.2087 727.824 81.7327 728.337 81.406C728.86 81.07 729.504 80.902 730.269 80.902C731.221 80.902 731.945 81.14 732.439 81.616C732.934 82.092 733.181 82.7313 733.181 83.534V88H731.277ZM731.137 85.018L729.835 85.172C729.574 85.2093 729.373 85.2933 729.233 85.424C729.103 85.5453 729.037 85.6993 729.037 85.886C729.037 86.0633 729.112 86.2127 729.261 86.334C729.411 86.4553 729.616 86.516 729.877 86.516C730.139 86.516 730.363 86.4647 730.549 86.362C730.736 86.25 730.881 86.096 730.983 85.9C731.086 85.6947 731.137 85.4427 731.137 85.144V85.018ZM736.041 81H738.085V88H736.041V81ZM737.063 80.286C736.681 80.286 736.368 80.174 736.125 79.95C735.892 79.7167 735.775 79.4367 735.775 79.11C735.775 78.774 735.892 78.494 736.125 78.27C736.368 78.0367 736.681 77.92 737.063 77.92C737.437 77.92 737.74 78.0367 737.973 78.27C738.216 78.494 738.337 78.774 738.337 79.11C738.337 79.4367 738.216 79.7167 737.973 79.95C737.74 80.174 737.437 80.286 737.063 80.286ZM741.01 77.92H743.054V88H741.01V77.92ZM750.542 81H752.754L748.61 90.8H746.524L747.91 87.678L745.138 81H747.42L748.974 85.186L750.542 81Z" fill="black"/>
<path d="M789.774 88H788.542L785.784 78.2H786.974L789.158 86.642L791.566 78.2H792.812L795.206 86.628L797.404 78.2H798.58L795.822 88H794.59L792.182 79.88L789.774 88ZM802.576 88.098C801.922 88.098 801.339 87.9393 800.826 87.622C800.322 87.3047 799.925 86.8707 799.636 86.32C799.346 85.7693 799.202 85.1393 799.202 84.43C799.202 83.7487 799.346 83.142 799.636 82.61C799.925 82.078 800.322 81.6627 800.826 81.364C801.33 81.056 801.904 80.902 802.548 80.902C803.182 80.902 803.747 81.042 804.242 81.322C804.746 81.602 805.138 81.9893 805.418 82.484C805.698 82.9787 805.828 83.5433 805.81 84.178C805.81 84.2807 805.805 84.388 805.796 84.5C805.786 84.612 805.777 84.7333 805.768 84.864H800.35C800.368 85.3027 800.476 85.69 800.672 86.026C800.868 86.362 801.124 86.628 801.442 86.824C801.768 87.0107 802.137 87.104 802.548 87.104C803.089 87.104 803.546 87.0013 803.92 86.796C804.302 86.5907 804.578 86.2967 804.746 85.914L805.656 86.278C805.376 86.866 804.97 87.3187 804.438 87.636C803.906 87.944 803.285 88.098 802.576 88.098ZM804.662 83.954C804.671 83.5527 804.582 83.198 804.396 82.89C804.218 82.582 803.966 82.3393 803.64 82.162C803.313 81.9847 802.935 81.896 802.506 81.896C802.132 81.896 801.792 81.9847 801.484 82.162C801.176 82.3393 800.919 82.5867 800.714 82.904C800.518 83.212 800.401 83.562 800.364 83.954H804.662ZM810.478 88.098C809.825 88.098 809.241 87.9393 808.728 87.622C808.224 87.3047 807.827 86.8707 807.538 86.32C807.249 85.7693 807.104 85.1393 807.104 84.43C807.104 83.7487 807.249 83.142 807.538 82.61C807.827 82.078 808.224 81.6627 808.728 81.364C809.232 81.056 809.806 80.902 810.45 80.902C811.085 80.902 811.649 81.042 812.144 81.322C812.648 81.602 813.04 81.9893 813.32 82.484C813.6 82.9787 813.731 83.5433 813.712 84.178C813.712 84.2807 813.707 84.388 813.698 84.5C813.689 84.612 813.679 84.7333 813.67 84.864H808.252C808.271 85.3027 808.378 85.69 808.574 86.026C808.77 86.362 809.027 86.628 809.344 86.824C809.671 87.0107 810.039 87.104 810.45 87.104C810.991 87.104 811.449 87.0013 811.822 86.796C812.205 86.5907 812.48 86.2967 812.648 85.914L813.558 86.278C813.278 86.866 812.872 87.3187 812.34 87.636C811.808 87.944 811.187 88.098 810.478 88.098ZM812.564 83.954C812.573 83.5527 812.485 83.198 812.298 82.89C812.121 82.582 811.869 82.3393 811.542 82.162C811.215 81.9847 810.837 81.896 810.408 81.896C810.035 81.896 809.694 81.9847 809.386 82.162C809.078 82.3393 808.821 82.5867 808.616 82.904C808.42 83.212 808.303 83.562 808.266 83.954H812.564ZM815.44 77.92H816.504V84.038H817.148L819.906 81H821.39L818.086 84.5L821.404 88H819.906L817.148 84.948H816.504V88H815.44V77.92Z" fill="black"/>
<path d="M855.754 88H854.634V78.2H855.866L859.506 86.46L863.132 78.2H864.35V88H863.23V80.412L859.898 88H859.1L855.754 80.412V88ZM869.646 88.098C868.983 88.098 868.391 87.9533 867.868 87.664C867.345 87.3747 866.935 86.964 866.636 86.432C866.337 85.8907 866.188 85.2513 866.188 84.514C866.188 83.7673 866.337 83.1233 866.636 82.582C866.944 82.0407 867.359 81.6253 867.882 81.336C868.414 81.0467 869.011 80.902 869.674 80.902C870.337 80.902 870.929 81.0467 871.452 81.336C871.984 81.6253 872.399 82.0407 872.698 82.582C873.006 83.114 873.16 83.7487 873.16 84.486C873.16 85.2327 873.006 85.8767 872.698 86.418C872.39 86.9593 871.97 87.3747 871.438 87.664C870.906 87.9533 870.309 88.098 869.646 88.098ZM869.632 87.104C870.043 87.104 870.43 87.0153 870.794 86.838C871.158 86.6513 871.452 86.3667 871.676 85.984C871.909 85.592 872.026 85.0973 872.026 84.5C872.026 83.8933 871.914 83.3987 871.69 83.016C871.466 82.6333 871.172 82.3533 870.808 82.176C870.453 81.9893 870.071 81.896 869.66 81.896C869.249 81.896 868.867 81.9893 868.512 82.176C868.157 82.3533 867.868 82.638 867.644 83.03C867.429 83.4127 867.322 83.9027 867.322 84.5C867.322 85.1067 867.429 85.6013 867.644 85.984C867.859 86.3667 868.139 86.6513 868.484 86.838C868.839 87.0153 869.221 87.104 869.632 87.104ZM874.88 81H875.846L875.902 81.994C876.126 81.6487 876.42 81.3827 876.784 81.196C877.148 81 877.572 80.902 878.058 80.902C878.59 80.902 879.056 81.0187 879.458 81.252C879.859 81.476 880.172 81.8167 880.396 82.274C880.62 82.722 880.732 83.2867 880.732 83.968V88H879.682V84.094C879.682 83.366 879.523 82.8153 879.206 82.442C878.898 82.0593 878.45 81.868 877.862 81.868C877.255 81.868 876.779 82.0687 876.434 82.47C876.098 82.8713 875.93 83.464 875.93 84.248V88H874.88V81ZM883.216 81V79.04H884.266V81H886.128V81.98H884.266V85.746C884.266 86.1753 884.355 86.488 884.532 86.684C884.719 86.88 884.952 86.9967 885.232 87.034C885.522 87.0713 885.82 87.0713 886.128 87.034V87.944C885.764 88.028 885.405 88.0513 885.05 88.014C884.705 87.9767 884.392 87.874 884.112 87.706C883.842 87.5287 883.622 87.2813 883.454 86.964C883.296 86.6467 883.216 86.2407 883.216 85.746V81.98H882.166V81H883.216ZM887.69 77.92H888.74V81.952C888.964 81.616 889.268 81.3593 889.65 81.182C890.033 80.9953 890.462 80.902 890.938 80.902C891.452 80.902 891.909 81.0187 892.31 81.252C892.712 81.4853 893.024 81.8307 893.248 82.288C893.482 82.7453 893.598 83.3147 893.598 83.996V88H892.478V84.122C892.478 83.394 892.324 82.8387 892.016 82.456C891.708 82.064 891.26 81.868 890.672 81.868C890.066 81.868 889.59 82.0733 889.244 82.484C888.908 82.8947 888.74 83.492 888.74 84.276V88H887.69V77.92Z" fill="black"/>
<path d="M97.3233 293H96.4693V283.2H97.3933L101.187 291.838L104.967 283.2H105.891V293H105.037V284.922L101.495 293H100.865L97.3233 284.922V293ZM112.578 293.098C111.887 293.098 111.248 292.977 110.66 292.734C110.072 292.492 109.559 292.151 109.12 291.712C108.681 291.264 108.341 290.737 108.098 290.13C107.865 289.514 107.748 288.838 107.748 288.1C107.748 287.363 107.865 286.691 108.098 286.084C108.341 285.468 108.681 284.941 109.12 284.502C109.559 284.054 110.072 283.709 110.66 283.466C111.248 283.224 111.887 283.102 112.578 283.102C113.259 283.102 113.889 283.224 114.468 283.466C115.056 283.709 115.565 284.054 115.994 284.502C116.433 284.941 116.773 285.468 117.016 286.084C117.259 286.691 117.38 287.363 117.38 288.1C117.38 288.838 117.259 289.514 117.016 290.13C116.773 290.737 116.433 291.264 115.994 291.712C115.565 292.151 115.056 292.492 114.468 292.734C113.889 292.977 113.259 293.098 112.578 293.098ZM112.578 292.356C113.315 292.356 113.978 292.184 114.566 291.838C115.163 291.493 115.635 291.003 115.98 290.368C116.335 289.734 116.512 288.978 116.512 288.1C116.512 287.223 116.335 286.467 115.98 285.832C115.635 285.188 115.163 284.698 114.566 284.362C113.978 284.017 113.315 283.844 112.578 283.844C111.831 283.844 111.159 284.017 110.562 284.362C109.965 284.698 109.489 285.188 109.134 285.832C108.789 286.467 108.616 287.223 108.616 288.1C108.616 288.978 108.789 289.734 109.134 290.368C109.489 291.003 109.965 291.493 110.562 291.838C111.159 292.184 111.831 292.356 112.578 292.356ZM126.527 283.2V293H125.673L120.087 284.572V293H119.233V283.2H120.087L125.673 291.614V283.2H126.527Z" fill="black"/>
<path d="M224.841 283.2H232.023V283.942H228.859V293H228.019V283.942H224.841V283.2ZM233.809 283.2H234.663V289.36C234.663 290.07 234.789 290.648 235.041 291.096C235.293 291.535 235.629 291.857 236.049 292.062C236.478 292.258 236.954 292.356 237.477 292.356C237.999 292.356 238.466 292.258 238.877 292.062C239.297 291.857 239.628 291.535 239.871 291.096C240.123 290.648 240.249 290.07 240.249 289.36V283.2H241.103V289.346C241.103 290 241.005 290.564 240.809 291.04C240.622 291.507 240.361 291.894 240.025 292.202C239.689 292.501 239.301 292.725 238.863 292.874C238.424 293.024 237.957 293.098 237.463 293.098C236.8 293.098 236.193 292.968 235.643 292.706C235.092 292.436 234.649 292.025 234.313 291.474C233.977 290.924 233.809 290.214 233.809 289.346V283.2ZM249.831 283.942H244.371V287.624H248.473V288.366H244.371V292.258H249.831V293H243.517V283.2H249.831V283.942Z" fill="black"/>
<path d="M352.084 293H351.174L348.444 283.2H349.354L351.636 291.908L354.198 283.2H355.136L357.698 291.894L359.98 283.2H360.89L358.16 293H357.236L354.66 284.488L352.084 293ZM368.846 283.942H363.386V287.624H367.488V288.366H363.386V292.258H368.846V293H362.532V283.2H368.846V283.942ZM374.158 283.2C375.259 283.2 376.192 283.396 376.958 283.788C377.732 284.18 378.32 284.745 378.722 285.482C379.132 286.22 379.338 287.097 379.338 288.114C379.338 289.132 379.132 290.004 378.722 290.732C378.32 291.46 377.732 292.02 376.958 292.412C376.192 292.804 375.259 293 374.158 293H371.036V283.2H374.158ZM374.158 292.258C375.595 292.258 376.673 291.894 377.392 291.166C378.12 290.429 378.484 289.412 378.484 288.114C378.484 286.817 378.12 285.8 377.392 285.062C376.673 284.316 375.595 283.942 374.158 283.942H371.89V292.258H374.158Z" fill="black"/>
<path d="M477.82 283.2H485.52V284.586H482.51V293H480.844V284.586H477.82V283.2ZM488.937 283.2H490.603V287.344H495.223V283.2H496.875V293H495.223V288.73H490.603V293H488.937V283.2ZM500.779 283.2H502.431V289.444C502.431 289.939 502.529 290.354 502.725 290.69C502.931 291.026 503.206 291.278 503.551 291.446C503.897 291.605 504.289 291.684 504.727 291.684C505.185 291.684 505.586 291.605 505.931 291.446C506.277 291.278 506.547 291.026 506.743 290.69C506.949 290.354 507.051 289.939 507.051 289.444V283.2H508.703V289.402C508.703 290.028 508.591 290.574 508.367 291.04C508.153 291.498 507.854 291.88 507.471 292.188C507.098 292.496 506.673 292.725 506.197 292.874C505.731 293.024 505.236 293.098 504.713 293.098C504.023 293.098 503.379 292.963 502.781 292.692C502.184 292.422 501.699 292.016 501.325 291.474C500.961 290.924 500.779 290.233 500.779 289.402V283.2Z" fill="black"/>
<path d="M609.69 283.2H616.004V283.942H610.544V287.624H614.646V288.366H610.544V293H609.69V283.2ZM623.564 286.056C623.564 285.412 623.377 284.899 623.004 284.516C622.63 284.134 622.005 283.942 621.128 283.942H618.72V288.156H621.156C621.716 288.156 622.173 288.068 622.528 287.89C622.882 287.713 623.144 287.466 623.312 287.148C623.48 286.831 623.564 286.467 623.564 286.056ZM621.128 283.2C621.902 283.2 622.528 283.326 623.004 283.578C623.489 283.83 623.848 284.171 624.082 284.6C624.315 285.03 624.432 285.515 624.432 286.056C624.432 286.458 624.366 286.831 624.236 287.176C624.105 287.522 623.904 287.825 623.634 288.086C623.363 288.338 623.022 288.539 622.612 288.688C622.201 288.838 621.716 288.912 621.156 288.912H618.72V293H617.866V283.2H621.128ZM621.87 288.59L624.6 293H623.634L620.946 288.59H621.87ZM626.452 283.2H627.306V293H626.452V283.2Z" fill="black"/>
<path d="M723.653 290.648C723.718 290.91 723.844 291.171 724.031 291.432C724.217 291.694 724.479 291.913 724.815 292.09C725.16 292.258 725.608 292.342 726.159 292.342C726.933 292.342 727.507 292.165 727.881 291.81C728.254 291.456 728.441 291.017 728.441 290.494C728.441 290.093 728.333 289.762 728.119 289.5C727.913 289.239 727.629 289.024 727.265 288.856C726.91 288.688 726.509 288.539 726.061 288.408C725.678 288.306 725.305 288.194 724.941 288.072C724.586 287.942 724.264 287.783 723.975 287.596C723.685 287.41 723.457 287.172 723.289 286.882C723.121 286.584 723.037 286.215 723.037 285.776C723.037 285.235 723.163 284.768 723.415 284.376C723.667 283.975 724.021 283.662 724.479 283.438C724.945 283.214 725.491 283.102 726.117 283.102C726.667 283.102 727.143 283.186 727.545 283.354C727.946 283.513 728.277 283.737 728.539 284.026C728.8 284.306 728.987 284.619 729.099 284.964L728.357 285.244C728.282 285.03 728.147 284.815 727.951 284.6C727.764 284.376 727.512 284.194 727.195 284.054C726.887 283.905 726.518 283.83 726.089 283.83C725.687 283.83 725.319 283.905 724.983 284.054C724.647 284.194 724.376 284.404 724.171 284.684C723.975 284.955 723.877 285.282 723.877 285.664C723.877 286.075 723.989 286.402 724.213 286.644C724.437 286.878 724.731 287.069 725.095 287.218C725.468 287.358 725.879 287.494 726.327 287.624C726.709 287.746 727.078 287.876 727.433 288.016C727.797 288.156 728.114 288.329 728.385 288.534C728.665 288.74 728.884 288.996 729.043 289.304C729.211 289.603 729.295 289.972 729.295 290.41C729.295 290.886 729.183 291.33 728.959 291.74C728.744 292.151 728.408 292.482 727.951 292.734C727.493 292.977 726.901 293.098 726.173 293.098C725.547 293.098 725.006 293.005 724.549 292.818C724.101 292.622 723.737 292.366 723.457 292.048C723.177 291.722 722.985 291.358 722.883 290.956L723.653 290.648ZM734.859 283.942H734.397L731.037 293H730.169L733.809 283.2H735.433L739.059 293H738.205L734.859 283.942ZM731.779 289.556H737.491V290.298H731.779V289.556ZM739.068 283.2H746.25V283.942H743.086V293H742.246V283.942H739.068V283.2Z" fill="black"/>
<path d="M840.854 290.648C840.919 290.91 841.045 291.171 841.232 291.432C841.418 291.694 841.68 291.913 842.016 292.09C842.361 292.258 842.809 292.342 843.36 292.342C844.134 292.342 844.708 292.165 845.082 291.81C845.455 291.456 845.642 291.017 845.642 290.494C845.642 290.093 845.534 289.762 845.32 289.5C845.114 289.239 844.83 289.024 844.466 288.856C844.111 288.688 843.71 288.539 843.262 288.408C842.879 288.306 842.506 288.194 842.142 288.072C841.787 287.942 841.465 287.783 841.176 287.596C840.886 287.41 840.658 287.172 840.49 286.882C840.322 286.584 840.238 286.215 840.238 285.776C840.238 285.235 840.364 284.768 840.616 284.376C840.868 283.975 841.222 283.662 841.68 283.438C842.146 283.214 842.692 283.102 843.318 283.102C843.868 283.102 844.344 283.186 844.746 283.354C845.147 283.513 845.478 283.737 845.74 284.026C846.001 284.306 846.188 284.619 846.3 284.964L845.558 285.244C845.483 285.03 845.348 284.815 845.152 284.6C844.965 284.376 844.713 284.194 844.396 284.054C844.088 283.905 843.719 283.83 843.29 283.83C842.888 283.83 842.52 283.905 842.184 284.054C841.848 284.194 841.577 284.404 841.372 284.684C841.176 284.955 841.078 285.282 841.078 285.664C841.078 286.075 841.19 286.402 841.414 286.644C841.638 286.878 841.932 287.069 842.296 287.218C842.669 287.358 843.08 287.494 843.528 287.624C843.91 287.746 844.279 287.876 844.634 288.016C844.998 288.156 845.315 288.329 845.586 288.534C845.866 288.74 846.085 288.996 846.244 289.304C846.412 289.603 846.496 289.972 846.496 290.41C846.496 290.886 846.384 291.33 846.16 291.74C845.945 292.151 845.609 292.482 845.152 292.734C844.694 292.977 844.102 293.098 843.374 293.098C842.748 293.098 842.207 293.005 841.75 292.818C841.302 292.622 840.938 292.366 840.658 292.048C840.378 291.722 840.186 291.358 840.084 290.956L840.854 290.648ZM848.42 283.2H849.274V289.36C849.274 290.07 849.4 290.648 849.652 291.096C849.904 291.535 850.24 291.857 850.66 292.062C851.089 292.258 851.565 292.356 852.088 292.356C852.611 292.356 853.077 292.258 853.488 292.062C853.908 291.857 854.239 291.535 854.482 291.096C854.734 290.648 854.86 290.07 854.86 289.36V283.2H855.714V289.346C855.714 290 855.616 290.564 855.42 291.04C855.233 291.507 854.972 291.894 854.636 292.202C854.3 292.501 853.913 292.725 853.474 292.874C853.035 293.024 852.569 293.098 852.074 293.098C851.411 293.098 850.805 292.968 850.254 292.706C849.703 292.436 849.26 292.025 848.924 291.474C848.588 290.924 848.42 290.214 848.42 289.346V283.2ZM865.422 283.2V293H864.568L858.982 284.572V293H858.128V283.2H858.982L864.568 291.614V283.2H865.422Z" fill="black"/>
<g filter="url(#filter3_d_294_142)">
<circle cx="493.5" cy="132.5" r="7.5" fill="url(#paint2_linear_294_142)"/>
</g>
<line x1="95" y1="216.75" x2="864" y2="216.75" stroke="white" stroke-opacity="0.2" stroke-width="0.5" stroke-dasharray="10 10"/>
<line x1="95" y1="141.95" x2="864" y2="141.95" stroke="#01A1F5" stroke-width="0.1"/>
<path d="M871.289 146.16L874.271 143.402C874.85 142.87 875.307 142.413 875.643 142.03C875.979 141.648 876.217 141.293 876.357 140.966C876.507 140.64 876.581 140.299 876.581 139.944C876.581 139.394 876.418 138.95 876.091 138.614C875.765 138.269 875.265 138.096 874.593 138.096C874.136 138.096 873.749 138.194 873.431 138.39C873.114 138.586 872.871 138.857 872.703 139.202C872.535 139.548 872.447 139.954 872.437 140.42H871.359C871.378 139.692 871.527 139.086 871.807 138.6C872.097 138.106 872.484 137.732 872.969 137.48C873.455 137.228 873.996 137.102 874.593 137.102C875.247 137.102 875.807 137.224 876.273 137.466C876.74 137.7 877.095 138.031 877.337 138.46C877.589 138.88 877.715 139.375 877.715 139.944C877.715 140.364 877.636 140.77 877.477 141.162C877.319 141.554 877.048 141.979 876.665 142.436C876.292 142.884 875.779 143.412 875.125 144.018L872.969 146.02H877.995V147H871.289V146.16ZM879.851 142.1C879.851 141.382 879.903 140.719 880.005 140.112C880.108 139.496 880.285 138.964 880.537 138.516C880.789 138.068 881.139 137.723 881.587 137.48C882.045 137.228 882.619 137.102 883.309 137.102C884 137.102 884.569 137.228 885.017 137.48C885.465 137.723 885.815 138.068 886.067 138.516C886.319 138.964 886.497 139.496 886.599 140.112C886.702 140.719 886.753 141.382 886.753 142.1C886.753 142.828 886.702 143.5 886.599 144.116C886.497 144.723 886.319 145.25 886.067 145.698C885.815 146.146 885.465 146.492 885.017 146.734C884.569 146.977 884 147.098 883.309 147.098C882.619 147.098 882.045 146.977 881.587 146.734C881.139 146.492 880.789 146.146 880.537 145.698C880.285 145.25 880.108 144.723 880.005 144.116C879.903 143.5 879.851 142.828 879.851 142.1ZM885.619 142.1C885.619 141.55 885.591 141.036 885.535 140.56C885.489 140.075 885.391 139.65 885.241 139.286C885.092 138.913 884.863 138.624 884.555 138.418C884.247 138.204 883.832 138.096 883.309 138.096C882.796 138.096 882.381 138.204 882.063 138.418C881.755 138.624 881.522 138.913 881.363 139.286C881.214 139.65 881.111 140.075 881.055 140.56C881.009 141.036 880.985 141.55 880.985 142.1C880.985 142.67 881.009 143.197 881.055 143.682C881.111 144.168 881.214 144.592 881.363 144.956C881.522 145.32 881.755 145.605 882.063 145.81C882.381 146.006 882.796 146.104 883.309 146.104C883.832 146.104 884.247 146.006 884.555 145.81C884.863 145.605 885.092 145.32 885.241 144.956C885.391 144.592 885.489 144.168 885.535 143.682C885.591 143.197 885.619 142.67 885.619 142.1ZM888.656 142.1C888.656 141.382 888.707 140.719 888.81 140.112C888.913 139.496 889.09 138.964 889.342 138.516C889.594 138.068 889.944 137.723 890.392 137.48C890.849 137.228 891.423 137.102 892.114 137.102C892.805 137.102 893.374 137.228 893.822 137.48C894.27 137.723 894.62 138.068 894.872 138.516C895.124 138.964 895.301 139.496 895.404 140.112C895.507 140.719 895.558 141.382 895.558 142.1C895.558 142.828 895.507 143.5 895.404 144.116C895.301 144.723 895.124 145.25 894.872 145.698C894.62 146.146 894.27 146.492 893.822 146.734C893.374 146.977 892.805 147.098 892.114 147.098C891.423 147.098 890.849 146.977 890.392 146.734C889.944 146.492 889.594 146.146 889.342 145.698C889.09 145.25 888.913 144.723 888.81 144.116C888.707 143.5 888.656 142.828 888.656 142.1ZM894.424 142.1C894.424 141.55 894.396 141.036 894.34 140.56C894.293 140.075 894.195 139.65 894.046 139.286C893.897 138.913 893.668 138.624 893.36 138.418C893.052 138.204 892.637 138.096 892.114 138.096C891.601 138.096 891.185 138.204 890.868 138.418C890.56 138.624 890.327 138.913 890.168 139.286C890.019 139.65 889.916 140.075 889.86 140.56C889.813 141.036 889.79 141.55 889.79 142.1C889.79 142.67 889.813 143.197 889.86 143.682C889.916 144.168 890.019 144.592 890.168 144.956C890.327 145.32 890.56 145.605 890.868 145.81C891.185 146.006 891.601 146.104 892.114 146.104C892.637 146.104 893.052 146.006 893.36 145.81C893.668 145.605 893.897 145.32 894.046 144.956C894.195 144.592 894.293 144.168 894.34 143.682C894.396 143.197 894.424 142.67 894.424 142.1Z" fill="#8A8B8C"/>
<path d="M874.03 213.18H872.658V212.2H875.15V222H874.03V213.18ZM877.287 217.1C877.287 216.382 877.338 215.719 877.441 215.112C877.544 214.496 877.721 213.964 877.973 213.516C878.225 213.068 878.575 212.723 879.023 212.48C879.48 212.228 880.054 212.102 880.745 212.102C881.436 212.102 882.005 212.228 882.453 212.48C882.901 212.723 883.251 213.068 883.503 213.516C883.755 213.964 883.932 214.496 884.035 215.112C884.138 215.719 884.189 216.382 884.189 217.1C884.189 217.828 884.138 218.5 884.035 219.116C883.932 219.723 883.755 220.25 883.503 220.698C883.251 221.146 882.901 221.492 882.453 221.734C882.005 221.977 881.436 222.098 880.745 222.098C880.054 222.098 879.48 221.977 879.023 221.734C878.575 221.492 878.225 221.146 877.973 220.698C877.721 220.25 877.544 219.723 877.441 219.116C877.338 218.5 877.287 217.828 877.287 217.1ZM883.055 217.1C883.055 216.55 883.027 216.036 882.971 215.56C882.924 215.075 882.826 214.65 882.677 214.286C882.528 213.913 882.299 213.624 881.991 213.418C881.683 213.204 881.268 213.096 880.745 213.096C880.232 213.096 879.816 213.204 879.499 213.418C879.191 213.624 878.958 213.913 878.799 214.286C878.65 214.65 878.547 215.075 878.491 215.56C878.444 216.036 878.421 216.55 878.421 217.1C878.421 217.67 878.444 218.197 878.491 218.682C878.547 219.168 878.65 219.592 878.799 219.956C878.958 220.32 879.191 220.605 879.499 220.81C879.816 221.006 880.232 221.104 880.745 221.104C881.268 221.104 881.683 221.006 881.991 220.81C882.299 220.605 882.528 220.32 882.677 219.956C882.826 219.592 882.924 219.168 882.971 218.682C883.027 218.197 883.055 217.67 883.055 217.1ZM886.092 217.1C886.092 216.382 886.143 215.719 886.246 215.112C886.348 214.496 886.526 213.964 886.778 213.516C887.03 213.068 887.38 212.723 887.828 212.48C888.285 212.228 888.859 212.102 889.55 212.102C890.24 212.102 890.81 212.228 891.258 212.48C891.706 212.723 892.056 213.068 892.308 213.516C892.56 213.964 892.737 214.496 892.84 215.112C892.942 215.719 892.994 216.382 892.994 217.1C892.994 217.828 892.942 218.5 892.84 219.116C892.737 219.723 892.56 220.25 892.308 220.698C892.056 221.146 891.706 221.492 891.258 221.734C890.81 221.977 890.24 222.098 889.55 222.098C888.859 222.098 888.285 221.977 887.828 221.734C887.38 221.492 887.03 221.146 886.778 220.698C886.526 220.25 886.348 219.723 886.246 219.116C886.143 218.5 886.092 217.828 886.092 217.1ZM891.86 217.1C891.86 216.55 891.832 216.036 891.776 215.56C891.729 215.075 891.631 214.65 891.482 214.286C891.332 213.913 891.104 213.624 890.796 213.418C890.488 213.204 890.072 213.096 889.55 213.096C889.036 213.096 888.621 213.204 888.304 213.418C887.996 213.624 887.762 213.913 887.604 214.286C887.454 214.65 887.352 215.075 887.296 215.56C887.249 216.036 887.226 216.55 887.226 217.1C887.226 217.67 887.249 218.197 887.296 218.682C887.352 219.168 887.454 219.592 887.604 219.956C887.762 220.32 887.996 220.605 888.304 220.81C888.621 221.006 889.036 221.104 889.55 221.104C890.072 221.104 890.488 221.006 890.796 220.81C891.104 220.605 891.332 220.32 891.482 219.956C891.631 219.592 891.729 219.168 891.776 218.682C891.832 218.197 891.86 217.67 891.86 217.1Z" fill="#8A8B8C"/>
</g>
<defs>
<filter id="filter0_d_294_142" x="0" y="0" width="988" height="388" filterUnits="userSpaceOnUse" color-interpolation-filters="sRGB">
<feFlood flood-opacity="0" result="BackgroundImageFix"/>
<feColorMatrix in="SourceAlpha" type="matrix" values="0 0 0 0 0 0 0 0 0 0 0 0 0 0 0 0 0 0 127 0" result="hardAlpha"/>
<feOffset dy="4"/>
<feGaussianBlur stdDeviation="27.5"/>
<feComposite in2="hardAlpha" operator="out"/>
<feColorMatrix type="matrix" values="0 0 0 0 0 0 0 0 0 0 0 0 0 0 0 0 0 0 0.11 0"/>
<feBlend mode="normal" in2="BackgroundImageFix" result="effect1_dropShadow_294_142"/>
<feBlend mode="normal" in="SourceGraphic" in2="effect1_dropShadow_294_142" result="shape"/>
</filter>
<filter id="filter1_d_294_142" x="73.666" y="44.3409" width="157.348" height="76.8381" filterUnits="userSpaceOnUse" color-interpolation-filters="sRGB">
<feFlood flood-opacity="0" result="BackgroundImageFix"/>
<feColorMatrix in="SourceAlpha" type="matrix" values="0 0 0 0 0 0 0 0 0 0 0 0 0 0 0 0 0 0 127 0" result="hardAlpha"/>
<feOffset dy="-1"/>
<feGaussianBlur stdDeviation="16.5"/>
<feComposite in2="hardAlpha" operator="out"/>
<feColorMatrix type="matrix" values="0 0 0 0 0.1 0 0 0 0 0.745395 0 0 0 0 1 0 0 0 0.5 0"/>
<feBlend mode="normal" in2="BackgroundImageFix" result="effect1_dropShadow_294_142"/>
<feBlend mode="normal" in="SourceGraphic" in2="effect1_dropShadow_294_142" result="shape"/>
</filter>
<filter id="filter2_d_294_142" x="60.5" y="97.5265" width="837" height="203.974" filterUnits="userSpaceOnUse" color-interpolation-filters="sRGB">
<feFlood flood-opacity="0" result="BackgroundImageFix"/>
<feColorMatrix in="SourceAlpha" type="matrix" values="0 0 0 0 0 0 0 0 0 0 0 0 0 0 0 0 0 0 127 0" result="hardAlpha"/>
<feOffset dy="-1"/>
<feGaussianBlur stdDeviation="16.5"/>
<feComposite in2="hardAlpha" operator="out"/>
<feColorMatrix type="matrix" values="0 0 0 0 0.1 0 0 0 0 0.745395 0 0 0 0 1 0 0 0 0.5 0"/>
<feBlend mode="normal" in2="BackgroundImageFix" result="effect1_dropShadow_294_142"/>
<feBlend mode="normal" in="SourceGraphic" in2="effect1_dropShadow_294_142" result="shape"/>
</filter>
<filter id="filter3_d_294_142" x="453" y="91" width="81" height="81" filterUnits="userSpaceOnUse" color-interpolation-filters="sRGB">
<feFlood flood-opacity="0" result="BackgroundImageFix"/>
<feColorMatrix in="SourceAlpha" type="matrix" values="0 0 0 0 0 0 0 0 0 0 0 0 0 0 0 0 0 0 127 0" result="hardAlpha"/>
<feOffset dy="-1"/>
<feGaussianBlur stdDeviation="16.5"/>
<feComposite in2="hardAlpha" operator="out"/>
<feColorMatrix type="matrix" values="0 0 0 0 0.1 0 0 0 0 0.745395 0 0 0 0 1 0 0 0 0.5 0"/>
<feBlend mode="normal" in2="BackgroundImageFix" result="effect1_dropShadow_294_142"/>
<feBlend mode="normal" in="SourceGraphic" in2="effect1_dropShadow_294_142" result="shape"/>
</filter>
<linearGradient id="paint0_linear_294_142" x1="507.19" y1="134.463" x2="508.113" y2="295.77" gradientUnits="userSpaceOnUse">
<stop stop-color="#67DE7F"/>
<stop offset="1" stop-color="white"/>
</linearGradient>
<linearGradient id="paint1_linear_294_142" x1="495.202" y1="119.043" x2="512.47" y2="307.213" gradientUnits="userSpaceOnUse">
<stop stop-color="#26E2B3" stop-opacity="0"/>
<stop offset="1" stop-color="#67DE7F"/>
</linearGradient>
<linearGradient id="paint2_linear_294_142" x1="495.758" y1="125.751" x2="494.195" y2="146.852" gradientUnits="userSpaceOnUse">
<stop stop-color="#67DE7F"/>
<stop offset="1" stop-color="white"/>
</linearGradient>
</defs>
</svg>
