<svg width="2195" height="1170" viewBox="0 0 2195 1170" fill="none" xmlns="http://www.w3.org/2000/svg">
<g filter="url(#filter0_d_2_91)">
<path d="M1980.6 264.989H214.394C180.564 264.989 153.139 292.439 153.139 326.299V802.234C153.139 836.094 180.564 863.544 214.394 863.544H1980.6C2014.43 863.544 2041.86 836.094 2041.86 802.234V326.299C2041.86 292.439 2014.43 264.989 1980.6 264.989Z" fill="white"/>
<g filter="url(#filter1_d_2_91)">
<path d="M284.215 361.626C284.46 362.771 284.95 363.833 285.685 364.814C286.461 365.795 287.502 366.592 288.809 367.205C290.116 367.819 291.729 368.125 293.648 368.125C296.507 368.125 298.61 367.471 299.958 366.163C301.346 364.814 302.04 363.241 302.04 361.442C302.04 359.971 301.612 358.765 300.754 357.825C299.937 356.844 298.794 356.027 297.324 355.373C295.894 354.678 294.24 354.065 292.362 353.533C290.728 353.043 289.115 352.532 287.523 352.001C285.971 351.428 284.562 350.733 283.296 349.916C282.03 349.058 281.03 347.975 280.295 346.667C279.559 345.318 279.192 343.642 279.192 341.639C279.192 339.146 279.784 337 280.968 335.202C282.153 333.403 283.807 332.034 285.93 331.094C288.094 330.113 290.585 329.622 293.403 329.622C295.772 329.622 297.895 329.97 299.774 330.665C301.652 331.319 303.225 332.279 304.491 333.546C305.797 334.772 306.757 336.264 307.37 338.022L301.795 340.045C301.55 339.146 301.04 338.308 300.264 337.531C299.488 336.714 298.508 336.06 297.324 335.569C296.139 335.079 294.812 334.834 293.342 334.834C291.831 334.793 290.463 335.038 289.238 335.569C288.054 336.06 287.094 336.775 286.359 337.715C285.665 338.655 285.318 339.779 285.318 341.087C285.318 342.518 285.726 343.642 286.543 344.459C287.359 345.277 288.442 345.951 289.789 346.483C291.178 347.014 292.689 347.525 294.322 348.015C296.037 348.547 297.712 349.119 299.345 349.732C300.979 350.345 302.449 351.122 303.755 352.062C305.103 353.002 306.185 354.187 307.002 355.618C307.819 357.008 308.227 358.765 308.227 360.891C308.227 363.179 307.696 365.264 306.635 367.144C305.573 369.024 303.96 370.537 301.795 371.681C299.672 372.826 296.997 373.398 293.771 373.398C291.116 373.398 288.727 372.989 286.604 372.172C284.48 371.354 282.724 370.23 281.336 368.799C279.988 367.328 279.09 365.632 278.641 363.711L284.215 361.626ZM341.129 372.969H335.861L335.432 369.351C334.452 370.659 333.207 371.661 331.696 372.355C330.226 373.05 328.572 373.398 326.734 373.398C324.366 373.398 322.303 372.907 320.547 371.926C318.791 370.904 317.423 369.433 316.443 367.512C315.504 365.55 315.034 363.118 315.034 360.216V342.314H320.854V359.48C320.854 362.301 321.425 364.447 322.569 365.918C323.753 367.389 325.529 368.125 327.898 368.125C330.226 368.125 332.043 367.369 333.35 365.857C334.697 364.344 335.371 362.096 335.371 359.113V342.314H341.129V372.969ZM349.861 342.314H355.129L355.496 346.421C356.354 345.359 357.334 344.48 358.437 343.785C359.58 343.049 360.805 342.538 362.112 342.252C363.459 341.966 364.848 341.987 366.277 342.314V347.77C364.93 347.443 363.623 347.402 362.357 347.648C361.091 347.893 359.947 348.424 358.927 349.242C357.946 350.018 357.15 351.06 356.538 352.368C355.925 353.676 355.619 355.25 355.619 357.089V372.969H349.861V342.314ZM394.487 342.314H399.755V367.941C399.755 371.538 398.897 374.624 397.182 377.199C395.467 379.774 392.996 381.756 389.77 383.146C386.585 384.536 382.725 385.231 378.193 385.231L377.274 380.142C382.746 380.019 386.891 378.916 389.709 376.831C392.526 374.787 393.935 371.824 393.935 367.941V367.635L394.609 367.696C393.629 369.249 392.22 370.598 390.382 371.742C388.586 372.846 386.34 373.398 383.644 373.398C380.908 373.398 378.478 372.744 376.355 371.436C374.272 370.128 372.639 368.289 371.454 365.918C370.311 363.547 369.739 360.788 369.739 357.641C369.739 354.494 370.311 351.735 371.454 349.364C372.639 346.994 374.272 345.154 376.355 343.846C378.478 342.538 380.908 341.884 383.644 341.884C385.319 341.884 386.809 342.109 388.116 342.559C389.464 343.008 390.627 343.622 391.608 344.398C392.588 345.134 393.404 345.972 394.058 346.912L394.487 342.314ZM375.926 357.641C375.926 360.788 376.743 363.322 378.376 365.244C380.051 367.165 382.276 368.125 385.053 368.125C386.687 368.125 388.177 367.716 389.525 366.899C390.872 366.041 391.934 364.835 392.71 363.282C393.527 361.688 393.935 359.807 393.935 357.641C393.935 355.434 393.527 353.554 392.71 352.001C391.934 350.447 390.852 349.262 389.464 348.445C388.116 347.586 386.646 347.157 385.053 347.157C382.276 347.157 380.051 348.118 378.376 350.039C376.743 351.96 375.926 354.494 375.926 357.641ZM421.777 373.398C418.837 373.398 416.223 372.723 413.936 371.375C411.69 369.985 409.914 368.084 408.607 365.673C407.341 363.261 406.708 360.502 406.708 357.396C406.708 354.412 407.341 351.755 408.607 349.426C409.873 347.096 411.609 345.256 413.814 343.908C416.06 342.559 418.592 341.884 421.41 341.884C424.268 341.884 426.8 342.518 429.005 343.785C431.21 345.011 432.926 346.748 434.151 348.996C435.376 351.204 435.968 353.758 435.927 356.66C435.927 357.151 435.907 357.662 435.866 358.193C435.825 358.683 435.764 359.235 435.682 359.848H413.018C413.14 361.483 413.589 362.934 414.365 364.201C415.182 365.427 416.203 366.388 417.428 367.083C418.694 367.778 420.123 368.125 421.716 368.125C423.758 368.125 425.534 367.737 427.045 366.96C428.556 366.143 429.618 365.06 430.23 363.711L435.253 365.489C434.028 367.982 432.231 369.924 429.863 371.313C427.535 372.703 424.84 373.398 421.777 373.398ZM429.618 354.882C429.618 353.411 429.25 352.082 428.515 350.897C427.78 349.712 426.78 348.792 425.514 348.138C424.289 347.443 422.9 347.096 421.348 347.096C419.96 347.096 418.673 347.443 417.489 348.138C416.346 348.792 415.366 349.712 414.549 350.897C413.773 352.041 413.283 353.37 413.079 354.882H429.618ZM443.001 342.314H448.269L448.636 346.421C449.494 345.359 450.474 344.48 451.576 343.785C452.72 343.049 453.945 342.538 455.252 342.252C456.599 341.966 457.988 341.987 459.417 342.314V347.77C458.07 347.443 456.763 347.402 455.497 347.648C454.231 347.893 453.087 348.424 452.067 349.242C451.086 350.018 450.29 351.06 449.678 352.368C449.065 353.676 448.759 355.25 448.759 357.089V372.969H443.001V342.314ZM486.142 342.314H492.145L474.381 385.231H468.684L474.075 372.355L461.946 342.314H468.317L477.199 365.55L486.142 342.314ZM531.261 350.468C533.262 350.468 534.895 350.161 536.161 349.548C537.468 348.894 538.428 347.995 539.04 346.851C539.653 345.706 539.959 344.378 539.959 342.865C539.959 340.454 539.265 338.574 537.876 337.225C536.488 335.876 534.283 335.202 531.261 335.202H521.398V350.468H531.261ZM546.085 342.865C546.085 344.419 545.819 345.972 545.288 347.525C544.757 349.037 543.9 350.406 542.715 351.633C541.531 352.859 539.979 353.84 538.06 354.576C536.181 355.27 533.915 355.618 531.261 355.618H521.398V372.969H515.273V330.052H531.261C534.609 330.052 537.366 330.644 539.53 331.83C541.735 332.974 543.369 334.527 544.431 336.489C545.533 338.41 546.085 340.536 546.085 342.865ZM563.91 373.398C560.97 373.398 558.356 372.723 556.069 371.375C553.823 369.985 552.047 368.084 550.74 365.673C549.474 363.261 548.841 360.502 548.841 357.396C548.841 354.412 549.474 351.755 550.74 349.426C552.006 347.096 553.742 345.256 555.947 343.908C558.193 342.559 560.725 341.884 563.542 341.884C566.401 341.884 568.933 342.518 571.138 343.785C573.343 345.011 575.059 346.748 576.284 348.996C577.509 351.204 578.101 353.758 578.06 356.66C578.06 357.151 578.04 357.662 577.999 358.193C577.958 358.683 577.897 359.235 577.815 359.848H555.15C555.273 361.483 555.722 362.934 556.498 364.201C557.315 365.427 558.336 366.388 559.561 367.083C560.827 367.778 562.256 368.125 563.849 368.125C565.891 368.125 567.667 367.737 569.178 366.96C570.689 366.143 571.751 365.06 572.363 363.711L577.386 365.489C576.161 367.982 574.364 369.924 571.996 371.313C569.668 372.703 566.973 373.398 563.91 373.398ZM571.751 354.882C571.751 353.411 571.383 352.082 570.648 350.897C569.913 349.712 568.913 348.792 567.647 348.138C566.421 347.443 565.033 347.096 563.481 347.096C562.093 347.096 560.806 347.443 559.622 348.138C558.479 348.792 557.499 349.712 556.682 350.897C555.906 352.041 555.416 353.37 555.212 354.882H571.751ZM585.135 342.314H590.403L590.771 346.421C591.628 345.359 592.608 344.48 593.711 343.785C594.854 343.049 596.079 342.538 597.386 342.252C598.734 341.966 600.122 341.987 601.552 342.314V347.77C600.204 347.443 598.897 347.402 597.631 347.648C596.365 347.893 595.222 348.424 594.201 349.242C593.221 350.018 592.425 351.06 591.812 352.368C591.199 353.676 590.893 355.25 590.893 357.089V372.969H585.135V342.314ZM608.856 338.88C608.856 336.55 609.244 334.589 610.02 332.994C610.837 331.4 612.083 330.256 613.757 329.561C615.431 328.825 617.636 328.58 620.372 328.825V333.914C618.249 333.71 616.758 334.037 615.901 334.895C615.084 335.753 614.676 337.082 614.676 338.88V342.314H620.74V347.464H614.676V372.969H608.856V347.464H604.936V342.314H608.856V338.88ZM640.005 373.398C637.106 373.398 634.492 372.764 632.164 371.497C629.877 370.189 628.081 368.37 626.774 366.041C625.467 363.67 624.814 360.891 624.814 357.702C624.814 354.473 625.487 351.674 626.835 349.303C628.183 346.932 630.02 345.113 632.348 343.846C634.676 342.538 637.289 341.884 640.189 341.884C643.088 341.884 645.702 342.538 648.029 343.846C650.398 345.113 652.256 346.932 653.604 349.303C654.951 351.633 655.625 354.392 655.625 357.58C655.625 360.809 654.931 363.609 653.543 365.979C652.195 368.35 650.337 370.189 647.968 371.497C645.6 372.764 642.945 373.398 640.005 373.398ZM639.944 368.125C641.577 368.125 643.109 367.757 644.538 367.022C645.967 366.245 647.131 365.08 648.029 363.527C648.969 361.974 649.438 359.991 649.438 357.58C649.438 355.209 648.989 353.268 648.091 351.755C647.233 350.202 646.09 349.058 644.66 348.322C643.231 347.545 641.7 347.157 640.066 347.157C638.474 347.157 636.983 347.545 635.595 348.322C634.247 349.058 633.144 350.202 632.287 351.755C631.429 353.309 631 355.291 631 357.702C631 360.073 631.409 362.035 632.225 363.588C633.083 365.1 634.186 366.245 635.533 367.022C636.881 367.757 638.351 368.125 639.944 368.125ZM662.659 342.314H667.927L668.295 346.421C669.153 345.359 670.133 344.48 671.235 343.785C672.379 343.049 673.604 342.538 674.911 342.252C676.258 341.966 677.647 341.987 679.076 342.314V347.77C677.728 347.443 676.422 347.402 675.156 347.648C673.89 347.893 672.746 348.424 671.725 349.242C670.745 350.018 669.949 351.06 669.336 352.368C668.724 353.676 668.417 355.25 668.417 357.089V372.969H662.659V342.314ZM684.916 342.314H690.184L690.551 345.87C691.531 344.643 692.756 343.683 694.227 342.988C695.697 342.252 697.351 341.884 699.188 341.884C701.271 341.884 703.15 342.354 704.824 343.295C706.539 344.194 707.887 345.543 708.867 347.341C709.888 345.543 711.337 344.194 713.216 343.295C715.094 342.354 717.157 341.884 719.403 341.884C721.73 341.884 723.772 342.395 725.528 343.417C727.325 344.398 728.714 345.87 729.694 347.831C730.674 349.793 731.164 352.246 731.164 355.189V372.969H725.345V355.924C725.345 353.063 724.732 350.897 723.507 349.426C722.282 347.913 720.526 347.157 718.239 347.157C715.911 347.157 714.073 347.934 712.726 349.487C711.378 351.04 710.704 353.309 710.704 356.292V372.969H704.885V355.924C704.885 353.063 704.313 350.897 703.17 349.426C702.027 347.913 700.311 347.157 698.024 347.157C695.697 347.157 693.879 347.934 692.573 349.487C691.307 351.04 690.674 353.309 690.674 356.292V372.969H684.916V342.314ZM752.7 373.398C749.76 373.398 747.147 372.723 744.86 371.375C742.614 369.985 740.837 368.084 739.53 365.673C738.264 363.261 737.631 360.502 737.631 357.396C737.631 354.412 738.264 351.755 739.53 349.426C740.796 347.096 742.532 345.256 744.737 343.908C746.983 342.559 749.515 341.884 752.333 341.884C755.191 341.884 757.723 342.518 759.929 343.785C762.134 345.011 763.849 346.748 765.074 348.996C766.299 351.204 766.891 353.758 766.85 356.66C766.85 357.151 766.83 357.662 766.789 358.193C766.748 358.683 766.687 359.235 766.605 359.848H743.941C744.063 361.483 744.513 362.934 745.288 364.201C746.105 365.427 747.126 366.388 748.351 367.083C749.617 367.778 751.046 368.125 752.639 368.125C754.681 368.125 756.457 367.737 757.968 366.96C759.479 366.143 760.541 365.06 761.154 363.711L766.177 365.489C764.952 367.982 763.155 369.924 760.786 371.313C758.458 372.703 755.763 373.398 752.7 373.398ZM760.541 354.882C760.541 353.411 760.174 352.082 759.439 350.897C758.703 349.712 757.703 348.792 756.437 348.138C755.212 347.443 753.823 347.096 752.272 347.096C750.883 347.096 749.597 347.443 748.412 348.138C747.269 348.792 746.289 349.712 745.472 350.897C744.696 352.041 744.206 353.37 744.002 354.882H760.541ZM797.019 347.525L796.345 347.709V328.825H802.164V372.969H796.896L796.468 368.37C795.447 369.76 794.058 370.945 792.302 371.926C790.587 372.907 788.484 373.398 785.993 373.398C783.216 373.398 780.786 372.744 778.703 371.436C776.662 370.128 775.049 368.289 773.864 365.918C772.721 363.547 772.149 360.788 772.149 357.641C772.149 354.494 772.721 351.735 773.864 349.364C775.049 346.994 776.662 345.154 778.703 343.846C780.786 342.538 783.216 341.884 785.993 341.884C788.647 341.884 790.893 342.436 792.731 343.54C794.61 344.602 796.039 345.931 797.019 347.525ZM778.336 357.641C778.336 360.788 779.153 363.322 780.786 365.244C782.42 367.165 784.604 368.125 787.341 368.125C789.015 368.125 790.526 367.716 791.873 366.899C793.221 366.081 794.303 364.896 795.12 363.343C795.937 361.749 796.345 359.848 796.345 357.641C796.345 355.434 795.937 353.554 795.12 352.001C794.303 350.447 793.221 349.262 791.873 348.445C790.526 347.586 789.015 347.157 787.341 347.157C784.645 347.157 782.46 348.118 780.786 350.039C779.153 351.96 778.336 354.494 778.336 357.641Z" fill="black"/>
</g>
<g filter="url(#filter2_d_2_91)">
<path d="M239.189 732.205C239.189 732.205 352.319 610.51 417.546 638.263C482.774 666.021 445.448 709.704 541.25 708.994C637.054 708.284 683.552 610.51 745.722 652.497C786.753 680.209 830.347 653.294 855.697 610.745C864.298 596.301 875.094 585.735 888.407 584.892C933.252 582.041 927.136 647.515 964.849 638.263C1002.56 629.015 1010.76 425.535 1114.71 442.616C1218.67 459.697 1225.76 680.255 1279.78 700.891C1333.79 721.527 1330.9 608.405 1400.82 621.321C1470.73 634.242 1490.09 649.528 1514.83 637.471C1530.97 629.608 1534.97 605.401 1574.32 610.51C1631.12 617.887 1689.86 663.211 1738.78 633.378C1753.44 624.432 1768.06 616.355 1781.21 610.51C1837.26 585.602 1891.28 580.621 1891.28 580.621" stroke="url(#paint0_linear_2_91)" stroke-width="3" stroke-linecap="round"/>
</g>
<path opacity="0.5" d="M1097.5 408.733H1092.39C1058.56 408.733 1031.14 436.183 1031.14 470.043V669.301C1031.14 703.162 1058.56 730.611 1092.39 730.611H1097.5C1131.33 730.611 1158.75 703.162 1158.75 669.301V470.043C1158.75 436.183 1131.33 408.733 1097.5 408.733Z" fill="url(#paint1_linear_2_91)"/>
<path d="M1400.01 330.052C1404.63 330.052 1408.61 330.952 1411.96 332.75C1415.34 334.508 1417.96 337.021 1419.8 340.291C1421.67 343.52 1422.61 347.28 1422.61 351.572C1422.61 355.864 1421.67 359.624 1419.8 362.853C1417.96 366.041 1415.34 368.535 1411.96 370.333C1408.61 372.091 1404.63 372.969 1400.01 372.969H1383.23V330.052H1400.01ZM1399.52 365.06C1403.77 365.06 1407.08 363.855 1409.44 361.443C1411.81 359.032 1413 355.741 1413 351.572C1413 347.362 1411.81 344.051 1409.44 341.64C1407.08 339.188 1403.77 337.961 1399.52 337.961H1392.72V365.06H1399.52ZM1450.57 372.969L1449.95 369.168C1448.89 370.476 1447.75 371.498 1446.52 372.234C1445.3 372.969 1443.65 373.337 1441.56 373.337C1439.68 373.337 1437.99 373.01 1436.48 372.356C1434.97 371.661 1433.76 370.66 1432.86 369.352C1432.01 368.044 1431.58 366.471 1431.58 364.631C1431.58 362.097 1432.48 359.992 1434.27 358.316C1436.11 356.641 1438.95 355.598 1442.79 355.189L1449.95 354.392V352.369C1449.95 351.674 1449.61 351 1448.91 350.346C1448.26 349.651 1447.22 349.304 1445.79 349.304C1444.52 349.304 1443.42 349.631 1442.48 350.285C1441.58 350.939 1440.97 351.879 1440.64 353.105L1432.99 350.346C1433.89 347.607 1435.46 345.523 1437.7 344.092C1439.99 342.621 1442.81 341.885 1446.16 341.885C1450.32 341.885 1453.49 342.927 1455.65 345.012C1457.82 347.097 1458.9 349.896 1458.9 353.411V372.969H1450.57ZM1449.95 359.91L1444.26 360.585C1443.11 360.748 1442.24 361.116 1441.62 361.688C1441.05 362.22 1440.77 362.894 1440.77 363.712C1440.77 364.488 1441.09 365.142 1441.75 365.673C1442.4 366.205 1443.3 366.471 1444.44 366.471C1445.59 366.471 1446.57 366.246 1447.38 365.796C1448.2 365.306 1448.83 364.631 1449.28 363.773C1449.73 362.874 1449.95 361.77 1449.95 360.462V359.91ZM1471.41 342.314H1480.36V372.969H1471.41V342.314ZM1475.89 339.188C1474.21 339.188 1472.84 338.697 1471.78 337.716C1470.76 336.694 1470.25 335.468 1470.25 334.038C1470.25 332.566 1470.76 331.34 1471.78 330.359C1472.84 329.337 1474.21 328.826 1475.89 328.826C1477.52 328.826 1478.85 329.337 1479.87 330.359C1480.93 331.34 1481.46 332.566 1481.46 334.038C1481.46 335.468 1480.93 336.694 1479.87 337.716C1478.85 338.697 1477.52 339.188 1475.89 339.188ZM1493.16 328.826H1502.1V372.969H1493.16V328.826ZM1534.86 342.314H1544.54L1526.41 385.231H1517.28L1523.34 371.559L1511.22 342.314H1521.2L1528 360.646L1534.86 342.314Z" fill="black"/>
<path d="M1598.95 372.969H1593.56L1581.5 330.052H1586.7L1596.26 367.022L1606.79 330.052H1612.25L1622.72 366.961L1632.34 330.052H1637.48L1625.42 372.969H1620.03L1609.49 337.41L1598.95 372.969ZM1654.97 373.399C1652.11 373.399 1649.56 372.704 1647.31 371.314C1645.11 369.924 1643.37 368.024 1642.1 365.612C1640.84 363.201 1640.2 360.442 1640.2 357.335C1640.2 354.352 1640.84 351.695 1642.1 349.365C1643.37 347.035 1645.11 345.216 1647.31 343.908C1649.52 342.56 1652.03 341.885 1654.84 341.885C1657.62 341.885 1660.09 342.498 1662.26 343.725C1664.46 344.951 1666.18 346.647 1667.4 348.813C1668.63 350.98 1669.2 353.452 1669.12 356.232C1669.12 356.681 1669.1 357.151 1669.06 357.642C1669.02 358.132 1668.97 358.664 1668.93 359.236H1645.23C1645.31 361.157 1645.78 362.853 1646.64 364.325C1647.49 365.796 1648.62 366.961 1650.01 367.819C1651.43 368.637 1653.05 369.046 1654.84 369.046C1657.21 369.046 1659.21 368.596 1660.85 367.697C1662.52 366.798 1663.73 365.51 1664.46 363.834L1668.44 365.428C1667.22 368.003 1665.44 369.986 1663.11 371.375C1660.79 372.724 1658.07 373.399 1654.97 373.399ZM1664.09 355.251C1664.14 353.493 1663.75 351.94 1662.93 350.591C1662.15 349.242 1661.05 348.18 1659.62 347.403C1658.19 346.627 1656.54 346.238 1654.66 346.238C1653.03 346.238 1651.54 346.627 1650.19 347.403C1648.84 348.18 1647.72 349.263 1646.82 350.653C1645.96 352.001 1645.45 353.534 1645.29 355.251H1664.09ZM1689.54 373.399C1686.68 373.399 1684.13 372.704 1681.88 371.314C1679.68 369.924 1677.94 368.024 1676.68 365.612C1675.41 363.201 1674.78 360.442 1674.78 357.335C1674.78 354.352 1675.41 351.695 1676.68 349.365C1677.94 347.035 1679.68 345.216 1681.88 343.908C1684.09 342.56 1686.6 341.885 1689.42 341.885C1692.2 341.885 1694.67 342.498 1696.83 343.725C1699.04 344.951 1700.75 346.647 1701.98 348.813C1703.2 350.98 1703.77 353.452 1703.69 356.232C1703.69 356.681 1703.67 357.151 1703.63 357.642C1703.59 358.132 1703.55 358.664 1703.51 359.236H1679.8C1679.88 361.157 1680.35 362.853 1681.21 364.325C1682.07 365.796 1683.19 366.961 1684.58 367.819C1686.01 368.637 1687.62 369.046 1689.42 369.046C1691.79 369.046 1693.79 368.596 1695.42 367.697C1697.1 366.798 1698.3 365.51 1699.04 363.834L1703.02 365.428C1701.79 368.003 1700.02 369.986 1697.69 371.375C1695.36 372.724 1692.64 373.399 1689.54 373.399ZM1698.67 355.251C1698.71 353.493 1698.32 351.94 1697.5 350.591C1696.73 349.242 1695.63 348.18 1694.2 347.403C1692.77 346.627 1691.11 346.238 1689.23 346.238C1687.6 346.238 1686.11 346.627 1684.76 347.403C1683.42 348.18 1682.29 349.263 1681.39 350.653C1680.54 352.001 1680.03 353.534 1679.86 355.251H1698.67ZM1711.26 328.826H1715.91V355.619H1718.73L1730.8 342.314H1737.29L1722.83 357.642L1737.35 372.969H1730.8L1718.73 359.604H1715.91V372.969H1711.26V328.826Z" fill="black"/>
<path d="M1785.92 372.969H1781.02V330.052H1786.41L1802.33 366.225L1818.2 330.052H1823.53V372.969H1818.63V339.739L1804.05 372.969H1800.56L1785.92 339.739V372.969ZM1846.7 373.399C1843.8 373.399 1841.21 372.765 1838.92 371.498C1836.63 370.231 1834.84 368.432 1833.53 366.103C1832.22 363.732 1831.57 360.932 1831.57 357.703C1831.57 354.433 1832.22 351.613 1833.53 349.242C1834.88 346.872 1836.69 345.053 1838.98 343.786C1841.31 342.519 1843.92 341.885 1846.82 341.885C1849.72 341.885 1852.31 342.519 1854.6 343.786C1856.93 345.053 1858.75 346.872 1860.05 349.242C1861.4 351.572 1862.07 354.352 1862.07 357.581C1862.07 360.85 1861.4 363.671 1860.05 366.041C1858.71 368.412 1856.87 370.231 1854.54 371.498C1852.21 372.765 1849.6 373.399 1846.7 373.399ZM1846.64 369.046C1848.43 369.046 1850.13 368.657 1851.72 367.881C1853.31 367.063 1854.6 365.817 1855.58 364.141C1856.6 362.424 1857.11 360.258 1857.11 357.642C1857.11 354.985 1856.62 352.819 1855.64 351.143C1854.66 349.467 1853.38 348.241 1851.78 347.464C1850.23 346.647 1848.56 346.238 1846.76 346.238C1844.96 346.238 1843.29 346.647 1841.74 347.464C1840.19 348.241 1838.92 349.488 1837.94 351.204C1837 352.88 1836.53 355.026 1836.53 357.642C1836.53 360.299 1837 362.465 1837.94 364.141C1838.88 365.817 1840.1 367.063 1841.61 367.881C1843.17 368.657 1844.84 369.046 1846.64 369.046ZM1869.6 342.314H1873.83L1874.07 346.667C1875.05 345.155 1876.34 343.99 1877.93 343.173C1879.52 342.314 1881.38 341.885 1883.5 341.885C1885.83 341.885 1887.87 342.396 1889.63 343.418C1891.39 344.399 1892.75 345.891 1893.73 347.894C1894.71 349.856 1895.2 352.328 1895.2 355.312V372.969H1890.61V355.864C1890.61 352.676 1889.92 350.264 1888.53 348.629C1887.18 346.954 1885.22 346.116 1882.65 346.116C1879.99 346.116 1877.91 346.994 1876.4 348.752C1874.93 350.509 1874.19 353.105 1874.19 356.538V372.969H1869.6V342.314ZM1906.08 342.314V333.731H1910.67V342.314H1918.82V346.606H1910.67V363.098C1910.67 364.979 1911.06 366.348 1911.83 367.206C1912.65 368.065 1913.67 368.575 1914.9 368.739C1916.16 368.902 1917.47 368.902 1918.82 368.739V372.724C1917.22 373.092 1915.65 373.194 1914.1 373.031C1912.59 372.867 1911.22 372.418 1910 371.682C1908.81 370.905 1907.85 369.822 1907.12 368.432C1906.42 367.043 1906.08 365.265 1906.08 363.098V346.606H1901.48V342.314H1906.08ZM1925.65 328.826H1930.25V346.483C1931.23 345.012 1932.55 343.888 1934.23 343.111C1935.9 342.294 1937.78 341.885 1939.86 341.885C1942.11 341.885 1944.11 342.396 1945.87 343.418C1947.62 344.44 1948.99 345.952 1949.97 347.955C1950.99 349.958 1951.5 352.451 1951.5 355.435V372.969H1946.6V355.987C1946.6 352.798 1945.93 350.366 1944.58 348.691C1943.23 346.974 1941.27 346.116 1938.7 346.116C1936.05 346.116 1933.96 347.015 1932.45 348.813C1930.98 350.612 1930.25 353.228 1930.25 356.661V372.969H1925.65V328.826Z" fill="black"/>
<path d="M249.354 812.358H245.617V769.441H249.66L266.26 807.269L282.799 769.441H286.842V812.358H283.106V776.982L267.608 812.358H264.852L249.354 776.982V812.358ZM316.1 812.787C313.078 812.787 310.281 812.256 307.708 811.193C305.135 810.13 302.889 808.638 300.97 806.717C299.051 804.755 297.56 802.446 296.498 799.789C295.477 797.092 294.967 794.128 294.967 790.899C294.967 787.67 295.477 784.728 296.498 782.071C297.56 779.373 299.051 777.064 300.97 775.143C302.889 773.181 305.135 771.668 307.708 770.606C310.281 769.543 313.078 769.012 316.1 769.012C319.081 769.012 321.838 769.543 324.37 770.606C326.942 771.668 329.168 773.181 331.047 775.143C332.966 777.064 334.457 779.373 335.518 782.071C336.58 784.728 337.111 787.67 337.111 790.899C337.111 794.128 336.58 797.092 335.518 799.789C334.457 802.446 332.966 804.755 331.047 806.717C329.168 808.638 326.942 810.13 324.37 811.193C321.838 812.256 319.081 812.787 316.1 812.787ZM316.1 809.538C319.326 809.538 322.226 808.781 324.799 807.269C327.412 805.757 329.474 803.611 330.985 800.832C332.537 798.052 333.313 794.741 333.313 790.899C333.313 787.057 332.537 783.747 330.985 780.967C329.474 778.147 327.412 776.001 324.799 774.53C322.226 773.017 319.326 772.261 316.1 772.261C312.833 772.261 309.893 773.017 307.279 774.53C304.666 776.001 302.583 778.147 301.031 780.967C299.52 783.747 298.765 787.057 298.765 790.899C298.765 794.741 299.52 798.052 301.031 800.832C302.583 803.611 304.666 805.757 307.279 807.269C309.893 808.781 312.833 809.538 316.1 809.538ZM377.132 769.441V812.358H373.396L348.955 775.449V812.358H345.218V769.441H348.955L373.396 806.288V769.441H377.132Z" fill="black"/>
<path d="M489.373 771.326H520.797V774.576H506.953V814.243H503.278V774.576H489.373V771.326ZM528.612 771.326H532.349V798.303C532.349 801.409 532.9 803.943 534.002 805.905C535.105 807.826 536.575 809.236 538.413 810.135C540.291 810.994 542.374 811.423 544.661 811.423C546.948 811.423 548.99 810.994 550.787 810.135C552.624 809.236 554.074 807.826 555.136 805.905C556.238 803.943 556.79 801.409 556.79 798.303V771.326H560.526V798.241C560.526 801.102 560.097 803.575 559.24 805.66C558.423 807.703 557.28 809.4 555.81 810.749C554.339 812.056 552.645 813.037 550.725 813.691C548.806 814.345 546.764 814.672 544.6 814.672C541.7 814.672 539.046 814.1 536.636 812.956C534.227 811.77 532.287 809.972 530.817 807.56C529.347 805.149 528.612 802.043 528.612 798.241V771.326ZM598.714 774.576H574.824V790.7H592.772V793.95H574.824V810.994H598.714V814.243H571.088V771.326H598.714V774.576Z" fill="black"/>
<path d="M761.925 814.243H757.943L745.998 771.326H749.98L759.964 809.461L771.174 771.326H775.278L786.488 809.4L796.473 771.326H800.454L788.51 814.243H784.467L773.196 776.967L761.925 814.243ZM835.263 774.576H811.373V790.7H829.321V793.95H811.373V810.994H835.263V814.243H807.637V771.326H835.263V774.576ZM858.505 771.326C863.323 771.326 867.407 772.185 870.756 773.901C874.145 775.618 876.718 778.091 878.474 781.32C880.271 784.549 881.169 788.391 881.169 792.846C881.169 797.301 880.271 801.123 878.474 804.311C876.718 807.499 874.145 809.952 870.756 811.668C867.407 813.385 863.323 814.243 858.505 814.243H844.844V771.326H858.505ZM858.505 810.994C864.793 810.994 869.51 809.4 872.655 806.212C875.84 802.983 877.433 798.527 877.433 792.846C877.433 787.165 875.84 782.709 872.655 779.48C869.51 776.211 864.793 774.576 858.505 774.576H848.581V810.994H858.505Z" fill="black"/>
<path d="M1022.95 771.326H1056.64V777.396H1043.47V814.243H1036.18V777.396H1022.95V771.326ZM1071.59 771.326H1078.88V789.474H1099.1V771.326H1106.33V814.243H1099.1V795.544H1078.88V814.243H1071.59V771.326ZM1123.41 771.326H1130.63V798.67C1130.63 800.837 1131.06 802.656 1131.92 804.127C1132.82 805.599 1134.02 806.702 1135.53 807.438C1137.05 808.133 1138.76 808.48 1140.68 808.48C1142.68 808.48 1144.44 808.133 1145.95 807.438C1147.46 806.702 1148.64 805.599 1149.5 804.127C1150.4 802.656 1150.85 800.837 1150.85 798.67V771.326H1158.08V798.487C1158.08 801.225 1157.59 803.616 1156.61 805.66C1155.67 807.663 1154.36 809.338 1152.69 810.687C1151.05 812.036 1149.19 813.037 1147.11 813.691C1145.07 814.345 1142.91 814.672 1140.62 814.672C1137.6 814.672 1134.78 814.08 1132.17 812.894C1129.55 811.709 1127.43 809.931 1125.79 807.56C1124.2 805.149 1123.41 802.124 1123.41 798.487V771.326Z" fill="black"/>
<path d="M1324.61 771.326H1352.23V774.576H1328.34V790.7H1346.29V793.95H1328.34V814.243H1324.61V771.326ZM1385.3 783.833C1385.3 781.013 1384.49 778.765 1382.85 777.089C1381.22 775.414 1378.49 774.576 1374.65 774.576H1364.11V793.03H1374.77C1377.22 793.03 1379.22 792.642 1380.77 791.865C1382.32 791.088 1383.47 790.005 1384.2 788.616C1384.94 787.226 1385.3 785.632 1385.3 783.833ZM1374.65 771.326C1378.04 771.326 1380.77 771.878 1382.85 772.982C1384.98 774.085 1386.55 775.577 1387.57 777.457C1388.59 779.337 1389.1 781.463 1389.1 783.833C1389.1 785.591 1388.82 787.226 1388.25 788.738C1387.67 790.251 1386.8 791.579 1385.61 792.723C1384.43 793.827 1382.94 794.706 1381.14 795.36C1379.34 796.014 1377.22 796.341 1374.77 796.341H1364.11V814.243H1360.37V771.326H1374.65ZM1377.89 794.931L1389.84 814.243H1385.61L1373.85 794.931H1377.89ZM1397.94 771.326H1401.68V814.243H1397.94V771.326Z" fill="black"/>
<path d="M1566.03 803.943C1566.31 805.087 1566.86 806.232 1567.68 807.376C1568.5 808.52 1569.64 809.481 1571.11 810.258C1572.62 810.993 1574.58 811.361 1576.99 811.361C1580.38 811.361 1582.89 810.585 1584.52 809.031C1586.16 807.478 1586.97 805.557 1586.97 803.268C1586.97 801.511 1586.51 800.06 1585.57 798.915C1584.67 797.771 1583.42 796.831 1581.83 796.095C1580.28 795.359 1578.52 794.705 1576.56 794.133C1574.89 793.683 1573.25 793.193 1571.66 792.662C1570.11 792.089 1568.7 791.395 1567.43 790.577C1566.17 789.76 1565.17 788.717 1564.43 787.45C1563.7 786.142 1563.33 784.528 1563.33 782.607C1563.33 780.236 1563.88 778.192 1564.98 776.476C1566.09 774.718 1567.64 773.349 1569.64 772.368C1571.68 771.387 1574.07 770.896 1576.81 770.896C1579.22 770.896 1581.3 771.264 1583.05 772C1584.81 772.695 1586.26 773.676 1587.4 774.943C1588.55 776.169 1589.36 777.538 1589.85 779.051L1586.61 780.277C1586.28 779.337 1585.69 778.397 1584.83 777.457C1584.01 776.476 1582.91 775.679 1581.52 775.066C1580.18 774.412 1578.56 774.085 1576.68 774.085C1574.93 774.085 1573.31 774.412 1571.84 775.066C1570.37 775.679 1569.19 776.598 1568.29 777.825C1567.43 779.01 1567.01 780.44 1567.01 782.116C1567.01 783.915 1567.5 785.345 1568.48 786.408C1569.46 787.43 1570.74 788.268 1572.33 788.922C1573.97 789.535 1575.76 790.127 1577.73 790.7C1579.4 791.231 1581.01 791.803 1582.56 792.416C1584.16 793.029 1585.55 793.786 1586.73 794.685C1587.95 795.584 1588.91 796.708 1589.61 798.057C1590.34 799.365 1590.71 800.979 1590.71 802.9C1590.71 804.985 1590.22 806.926 1589.24 808.725C1588.3 810.523 1586.83 811.974 1584.83 813.078C1582.83 814.141 1580.24 814.672 1577.05 814.672C1574.32 814.672 1571.95 814.263 1569.95 813.446C1567.99 812.587 1566.39 811.463 1565.17 810.074C1563.94 808.643 1563.11 807.049 1562.66 805.291L1566.03 803.943ZM1615.06 774.575H1613.04L1598.34 814.243H1594.54L1610.47 771.326H1617.57L1633.44 814.243H1629.7L1615.06 774.575ZM1601.58 799.16H1626.58V802.41H1601.58V799.16ZM1633.47 771.326H1664.9V774.575H1651.05V814.243H1647.38V774.575H1633.47V771.326Z" fill="black"/>
<path d="M1812.03 803.943C1812.31 805.087 1812.86 806.232 1813.68 807.376C1814.5 808.52 1815.64 809.481 1817.11 810.258C1818.62 810.993 1820.58 811.361 1822.99 811.361C1826.38 811.361 1828.89 810.585 1830.53 809.031C1832.16 807.478 1832.98 805.557 1832.98 803.268C1832.98 801.511 1832.51 800.06 1831.57 798.915C1830.67 797.771 1829.42 796.831 1827.83 796.095C1826.28 795.359 1824.52 794.705 1822.56 794.133C1820.89 793.683 1819.26 793.193 1817.66 792.662C1816.11 792.089 1814.7 791.395 1813.44 790.577C1812.17 789.76 1811.17 788.717 1810.43 787.45C1809.7 786.142 1809.33 784.528 1809.33 782.607C1809.33 780.236 1809.88 778.192 1810.99 776.476C1812.09 774.718 1813.64 773.349 1815.64 772.368C1817.68 771.387 1820.07 770.896 1822.81 770.896C1825.22 770.896 1827.3 771.264 1829.06 772C1830.81 772.695 1832.26 773.676 1833.41 774.943C1834.55 776.169 1835.37 777.538 1835.86 779.051L1832.61 780.277C1832.28 779.337 1831.69 778.397 1830.83 777.457C1830.02 776.476 1828.91 775.679 1827.52 775.066C1826.18 774.412 1824.56 774.085 1822.69 774.085C1820.93 774.085 1819.32 774.412 1817.85 775.066C1816.38 775.679 1815.19 776.598 1814.29 777.825C1813.44 779.01 1813.01 780.44 1813.01 782.116C1813.01 783.915 1813.5 785.345 1814.48 786.408C1815.46 787.43 1816.74 788.268 1818.34 788.922C1819.97 789.535 1821.77 790.127 1823.73 790.7C1825.4 791.231 1827.01 791.803 1828.57 792.416C1830.16 793.029 1831.55 793.786 1832.73 794.685C1833.96 795.584 1834.92 796.708 1835.61 798.057C1836.35 799.365 1836.71 800.979 1836.71 802.9C1836.71 804.985 1836.22 806.926 1835.24 808.725C1834.3 810.523 1832.83 811.974 1830.83 813.078C1828.83 814.141 1826.24 814.672 1823.05 814.672C1820.32 814.672 1817.95 814.263 1815.95 813.446C1813.99 812.587 1812.39 811.463 1811.17 810.074C1809.94 808.643 1809.11 807.049 1808.66 805.291L1812.03 803.943ZM1845.13 771.326H1848.87V798.302C1848.87 801.408 1849.42 803.943 1850.52 805.905C1851.62 807.826 1853.09 809.236 1854.93 810.135C1856.81 810.993 1858.89 811.422 1861.18 811.422C1863.47 811.422 1865.51 810.993 1867.31 810.135C1869.14 809.236 1870.59 807.826 1871.65 805.905C1872.76 803.943 1873.31 801.408 1873.31 798.302V771.326H1877.05V798.241C1877.05 801.102 1876.62 803.575 1875.76 805.659C1874.94 807.703 1873.8 809.399 1872.33 810.748C1870.86 812.056 1869.16 813.037 1867.24 813.691C1865.32 814.345 1863.28 814.672 1861.12 814.672C1858.22 814.672 1855.56 814.1 1853.16 812.955C1850.75 811.77 1848.81 809.971 1847.34 807.56C1845.87 805.148 1845.13 802.042 1845.13 798.241V771.326ZM1919.53 771.326V814.243H1915.79L1891.35 777.334V814.243H1887.61V771.326H1891.35L1915.79 808.173V771.326H1919.53Z" fill="black"/>
<g filter="url(#filter3_d_2_91)">
<path d="M1096.43 456.611C1105.34 456.611 1112.56 449.382 1112.56 440.463C1112.56 431.545 1105.34 424.315 1096.43 424.315C1087.52 424.315 1080.29 431.545 1080.29 440.463C1080.29 449.382 1087.52 456.611 1096.43 456.611Z" fill="url(#paint2_linear_2_91)"/>
</g>
<path d="M239.189 621.121H1893.43" stroke="white" stroke-opacity="0.2" stroke-width="0.5" stroke-dasharray="10 10"/>
<path d="M239.189 460.663H1893.43" stroke="#01A1F5" stroke-width="0.1"/>
<path d="M1881.24 476.583L1894.28 464.505C1896.82 462.175 1898.82 460.172 1900.29 458.496C1901.76 456.82 1902.8 455.267 1903.41 453.837C1904.06 452.406 1904.39 450.914 1904.39 449.361C1904.39 446.949 1903.68 445.008 1902.25 443.537C1900.82 442.024 1898.63 441.268 1895.69 441.268C1893.69 441.268 1892 441.697 1890.61 442.556C1889.22 443.414 1888.16 444.599 1887.42 446.112C1886.69 447.624 1886.3 449.402 1886.26 451.446H1881.54C1881.62 448.257 1882.28 445.601 1883.5 443.475C1884.77 441.309 1886.46 439.674 1888.59 438.57C1890.71 437.467 1893.08 436.915 1895.69 436.915C1898.55 436.915 1901 437.446 1903.04 438.509C1905.09 439.531 1906.64 440.982 1907.7 442.862C1908.8 444.701 1909.35 446.868 1909.35 449.361C1909.35 451.2 1909.01 452.978 1908.31 454.695C1907.62 456.412 1906.43 458.271 1904.76 460.274C1903.13 462.236 1900.88 464.545 1898.02 467.202L1888.59 475.97H1910.58V480.261H1881.24V476.583ZM1918.7 458.803C1918.7 455.655 1918.92 452.753 1919.37 450.097C1919.82 447.399 1920.6 445.069 1921.7 443.107C1922.8 441.145 1924.33 439.633 1926.3 438.57C1928.3 437.467 1930.81 436.915 1933.83 436.915C1936.85 436.915 1939.34 437.467 1941.3 438.57C1943.26 439.633 1944.79 441.145 1945.9 443.107C1947 445.069 1947.78 447.399 1948.22 450.097C1948.67 452.753 1948.9 455.655 1948.9 458.803C1948.9 461.991 1948.67 464.934 1948.22 467.631C1947.78 470.288 1947 472.598 1945.9 474.559C1944.79 476.521 1943.26 478.034 1941.3 479.096C1939.34 480.159 1936.85 480.69 1933.83 480.69C1930.81 480.69 1928.3 480.159 1926.3 479.096C1924.33 478.034 1922.8 476.521 1921.7 474.559C1920.6 472.598 1919.82 470.288 1919.37 467.631C1918.92 464.934 1918.7 461.991 1918.7 458.803ZM1943.94 458.803C1943.94 456.391 1943.81 454.143 1943.57 452.059C1943.37 449.933 1942.94 448.073 1942.28 446.479C1941.63 444.844 1940.63 443.577 1939.28 442.678C1937.93 441.738 1936.12 441.268 1933.83 441.268C1931.58 441.268 1929.77 441.738 1928.38 442.678C1927.03 443.577 1926.01 444.844 1925.32 446.479C1924.66 448.073 1924.21 449.933 1923.97 452.059C1923.76 454.143 1923.66 456.391 1923.66 458.803C1923.66 461.296 1923.76 463.605 1923.97 465.731C1924.21 467.856 1924.66 469.716 1925.32 471.31C1926.01 472.904 1927.03 474.151 1928.38 475.05C1929.77 475.908 1931.58 476.337 1933.83 476.337C1936.12 476.337 1937.93 475.908 1939.28 475.05C1940.63 474.151 1941.63 472.904 1942.28 471.31C1942.94 469.716 1943.37 467.856 1943.57 465.731C1943.81 463.605 1943.94 461.296 1943.94 458.803ZM1957.22 458.803C1957.22 455.655 1957.45 452.753 1957.9 450.097C1958.35 447.399 1959.12 445.069 1960.23 443.107C1961.33 441.145 1962.86 439.633 1964.82 438.57C1966.82 437.467 1969.33 436.915 1972.35 436.915C1975.38 436.915 1977.87 437.467 1979.83 438.57C1981.79 439.633 1983.32 441.145 1984.42 443.107C1985.52 445.069 1986.3 447.399 1986.75 450.097C1987.2 452.753 1987.42 455.655 1987.42 458.803C1987.42 461.991 1987.2 464.934 1986.75 467.631C1986.3 470.288 1985.52 472.598 1984.42 474.559C1983.32 476.521 1981.79 478.034 1979.83 479.096C1977.87 480.159 1975.38 480.69 1972.35 480.69C1969.33 480.69 1966.82 480.159 1964.82 479.096C1962.86 478.034 1961.33 476.521 1960.23 474.559C1959.12 472.598 1958.35 470.288 1957.9 467.631C1957.45 464.934 1957.22 461.991 1957.22 458.803ZM1982.46 458.803C1982.46 456.391 1982.34 454.143 1982.09 452.059C1981.89 449.933 1981.46 448.073 1980.81 446.479C1980.15 444.844 1979.15 443.577 1977.81 442.678C1976.46 441.738 1974.64 441.268 1972.35 441.268C1970.11 441.268 1968.29 441.738 1966.9 442.678C1965.56 443.577 1964.53 444.844 1963.84 446.479C1963.19 448.073 1962.74 449.933 1962.49 452.059C1962.29 454.143 1962.19 456.391 1962.19 458.803C1962.19 461.296 1962.29 463.605 1962.49 465.731C1962.74 467.856 1963.19 469.716 1963.84 471.31C1964.53 472.904 1965.56 474.151 1966.9 475.05C1968.29 475.908 1970.11 476.337 1972.35 476.337C1974.64 476.337 1976.46 475.908 1977.81 475.05C1979.15 474.151 1980.15 472.904 1980.81 471.31C1981.46 469.716 1981.89 467.856 1982.09 465.731C1982.34 463.605 1982.46 461.296 1982.46 458.803Z" fill="#8A8B8C"/>
<path d="M1895.41 600.021H1889.41V595.729H1900.31V638.646H1895.41V600.021ZM1909.67 617.188C1909.67 614.04 1909.89 611.138 1910.34 608.481C1910.79 605.784 1911.56 603.454 1912.67 601.492C1913.77 599.53 1915.3 598.018 1917.26 596.955C1919.26 595.852 1921.77 595.3 1924.8 595.3C1927.82 595.3 1930.31 595.852 1932.27 596.955C1934.23 598.018 1935.76 599.53 1936.86 601.492C1937.97 603.454 1938.74 605.784 1939.19 608.481C1939.64 611.138 1939.86 614.04 1939.86 617.188C1939.86 620.376 1939.64 623.319 1939.19 626.016C1938.74 628.673 1937.97 630.982 1936.86 632.944C1935.76 634.906 1934.23 636.418 1932.27 637.481C1930.31 638.544 1927.82 639.075 1924.8 639.075C1921.77 639.075 1919.26 638.544 1917.26 637.481C1915.3 636.418 1913.77 634.906 1912.67 632.944C1911.56 630.982 1910.79 628.673 1910.34 626.016C1909.89 623.319 1909.67 620.376 1909.67 617.188ZM1934.9 617.188C1934.9 614.776 1934.78 612.528 1934.54 610.443C1934.33 608.318 1933.9 606.458 1933.25 604.864C1932.6 603.229 1931.59 601.962 1930.25 601.063C1928.9 600.123 1927.08 599.653 1924.8 599.653C1922.55 599.653 1920.73 600.123 1919.34 601.063C1918 601.962 1916.98 603.229 1916.28 604.864C1915.63 606.458 1915.18 608.318 1914.93 610.443C1914.73 612.528 1914.63 614.776 1914.63 617.188C1914.63 619.681 1914.73 621.99 1914.93 624.116C1915.18 626.241 1915.63 628.101 1916.28 629.695C1916.98 631.289 1918 632.535 1919.34 633.435C1920.73 634.293 1922.55 634.722 1924.8 634.722C1927.08 634.722 1928.9 634.293 1930.25 633.435C1931.59 632.535 1932.6 631.289 1933.25 629.695C1933.9 628.101 1934.33 626.241 1934.54 624.116C1934.78 621.99 1934.9 619.681 1934.9 617.188ZM1948.19 617.188C1948.19 614.04 1948.41 611.138 1948.86 608.481C1949.31 605.784 1950.09 603.454 1951.19 601.492C1952.29 599.53 1953.83 598.018 1955.79 596.955C1957.79 595.852 1960.3 595.3 1963.32 595.3C1966.34 595.3 1968.83 595.852 1970.79 596.955C1972.75 598.018 1974.29 599.53 1975.39 601.492C1976.49 603.454 1977.27 605.784 1977.72 608.481C1978.16 611.138 1978.39 614.04 1978.39 617.188C1978.39 620.376 1978.16 623.319 1977.72 626.016C1977.27 628.673 1976.49 630.982 1975.39 632.944C1974.29 634.906 1972.75 636.418 1970.79 637.481C1968.83 638.544 1966.34 639.075 1963.32 639.075C1960.3 639.075 1957.79 638.544 1955.79 637.481C1953.83 636.418 1952.29 634.906 1951.19 632.944C1950.09 630.982 1949.31 628.673 1948.86 626.016C1948.41 623.319 1948.19 620.376 1948.19 617.188ZM1973.43 617.188C1973.43 614.776 1973.31 612.528 1973.06 610.443C1972.86 608.318 1972.43 606.458 1971.77 604.864C1971.12 603.229 1970.12 601.962 1968.77 601.063C1967.42 600.123 1965.61 599.653 1963.32 599.653C1961.07 599.653 1959.26 600.123 1957.87 601.063C1956.52 601.962 1955.5 603.229 1954.81 604.864C1954.15 606.458 1953.7 608.318 1953.46 610.443C1953.25 612.528 1953.15 614.776 1953.15 617.188C1953.15 619.681 1953.25 621.99 1953.46 624.116C1953.7 626.241 1954.15 628.101 1954.81 629.695C1955.5 631.289 1956.52 632.535 1957.87 633.435C1959.26 634.293 1961.07 634.722 1963.32 634.722C1965.61 634.722 1967.42 634.293 1968.77 633.435C1970.12 632.535 1971.12 631.289 1971.77 629.695C1972.43 628.101 1972.86 626.241 1973.06 624.116C1973.31 621.99 1973.43 619.681 1973.43 617.188Z" fill="#8A8B8C"/>
</g>
<defs>
<filter id="filter0_d_2_91" x="98.1387" y="213.989" width="1998.72" height="708.555" filterUnits="userSpaceOnUse" color-interpolation-filters="sRGB">
<feFlood flood-opacity="0" result="BackgroundImageFix"/>
<feColorMatrix in="SourceAlpha" type="matrix" values="0 0 0 0 0 0 0 0 0 0 0 0 0 0 0 0 0 0 127 0" result="hardAlpha"/>
<feOffset dy="4"/>
<feGaussianBlur stdDeviation="27.5"/>
<feComposite in2="hardAlpha" operator="out"/>
<feColorMatrix type="matrix" values="0 0 0 0 0 0 0 0 0 0 0 0 0 0 0 0 0 0 0.11 0"/>
<feBlend mode="normal" in2="BackgroundImageFix" result="effect1_dropShadow_2_91"/>
<feBlend mode="normal" in="SourceGraphic" in2="effect1_dropShadow_2_91" result="shape"/>
</filter>
<filter id="filter1_d_2_91" x="245.641" y="294.733" width="589.523" height="122.497" filterUnits="userSpaceOnUse" color-interpolation-filters="sRGB">
<feFlood flood-opacity="0" result="BackgroundImageFix"/>
<feColorMatrix in="SourceAlpha" type="matrix" values="0 0 0 0 0 0 0 0 0 0 0 0 0 0 0 0 0 0 127 0" result="hardAlpha"/>
<feOffset dy="-1"/>
<feGaussianBlur stdDeviation="16.5"/>
<feComposite in2="hardAlpha" operator="out"/>
<feColorMatrix type="matrix" values="0 0 0 0 0.1 0 0 0 0 0.745395 0 0 0 0 1 0 0 0 0.5 0"/>
<feBlend mode="normal" in2="BackgroundImageFix" result="effect1_dropShadow_2_91"/>
<feBlend mode="normal" in="SourceGraphic" in2="effect1_dropShadow_2_91" result="shape"/>
</filter>
<filter id="filter2_d_2_91" x="204.689" y="406.099" width="1721.09" height="359.606" filterUnits="userSpaceOnUse" color-interpolation-filters="sRGB">
<feFlood flood-opacity="0" result="BackgroundImageFix"/>
<feColorMatrix in="SourceAlpha" type="matrix" values="0 0 0 0 0 0 0 0 0 0 0 0 0 0 0 0 0 0 127 0" result="hardAlpha"/>
<feOffset dy="-1"/>
<feGaussianBlur stdDeviation="16.5"/>
<feComposite in2="hardAlpha" operator="out"/>
<feColorMatrix type="matrix" values="0 0 0 0 0.1 0 0 0 0 0.745395 0 0 0 0 1 0 0 0 0.5 0"/>
<feBlend mode="normal" in2="BackgroundImageFix" result="effect1_dropShadow_2_91"/>
<feBlend mode="normal" in="SourceGraphic" in2="effect1_dropShadow_2_91" result="shape"/>
</filter>
<filter id="filter3_d_2_91" x="1047.29" y="390.315" width="98.2676" height="98.2959" filterUnits="userSpaceOnUse" color-interpolation-filters="sRGB">
<feFlood flood-opacity="0" result="BackgroundImageFix"/>
<feColorMatrix in="SourceAlpha" type="matrix" values="0 0 0 0 0 0 0 0 0 0 0 0 0 0 0 0 0 0 127 0" result="hardAlpha"/>
<feOffset dy="-1"/>
<feGaussianBlur stdDeviation="16.5"/>
<feComposite in2="hardAlpha" operator="out"/>
<feColorMatrix type="matrix" values="0 0 0 0 0.1 0 0 0 0 0.745395 0 0 0 0 1 0 0 0 0.5 0"/>
<feBlend mode="normal" in2="BackgroundImageFix" result="effect1_dropShadow_2_91"/>
<feBlend mode="normal" in="SourceGraphic" in2="effect1_dropShadow_2_91" result="shape"/>
</filter>
<linearGradient id="paint0_linear_2_91" x1="1125.88" y1="444.691" x2="1127.86" y2="791.998" gradientUnits="userSpaceOnUse">
<stop stop-color="#67DE7F"/>
<stop offset="1" stop-color="white"/>
</linearGradient>
<linearGradient id="paint1_linear_2_91" x1="1099.63" y1="412.158" x2="1122.52" y2="728.616" gradientUnits="userSpaceOnUse">
<stop stop-color="#26E2B3" stop-opacity="0"/>
<stop offset="1" stop-color="#67DE7F"/>
</linearGradient>
<linearGradient id="paint2_linear_2_91" x1="1101.28" y1="425.932" x2="1097.91" y2="471.363" gradientUnits="userSpaceOnUse">
<stop stop-color="#67DE7F"/>
<stop offset="1" stop-color="white"/>
</linearGradient>
</defs>
</svg>
