<svg xmlns="http://www.w3.org/2000/svg" width="16" height="16" viewBox="0 0 16 16" fill="none">
  <path d="M11.5503 1.85694L11.5498 1.85667C9.33176 0.58127 6.64133 0.580907 4.44992 1.8568C2.23139 3.13257 0.9 5.46252 0.9 7.98633C0.9 10.5373 2.2312 12.8673 4.44992 14.1432C6.64133 15.4191 9.33176 15.4187 11.5498 14.1433L11.5503 14.1431C13.7409 12.8675 15.1 10.538 15.1 7.98633C15.1 5.46183 13.7407 3.13235 11.5503 1.85694ZM11.0393 9.10858L11.0393 9.10849L11.0355 9.10595L8.75625 7.60433V4.26758C8.75625 3.85688 8.4107 3.51133 8 3.51133C7.55925 3.51133 7.24375 3.85963 7.24375 4.26758V7.98633C7.24375 8.23421 7.36643 8.48622 7.56172 8.61641L10.1851 10.3653C10.5341 10.6177 11.0047 10.519 11.2527 10.178L11.2529 10.1781L11.2562 10.1728C11.4773 9.82539 11.3807 9.35691 11.0393 9.10858ZM5.20652 3.1509C6.92502 2.1575 9.04679 2.157 10.7935 3.15091C12.5138 4.17272 13.5875 5.99979 13.5875 7.98633C13.5875 10.0005 12.5136 11.8274 10.7935 12.8491C9.04679 13.843 6.92499 13.8425 5.20648 12.8491C3.4599 11.8279 2.4125 10.0014 2.4125 7.98633C2.4125 5.99883 3.45968 4.17222 5.20652 3.1509Z" fill="white" stroke="white" stroke-width="0.2"/>
</svg>