<svg width="15" height="16" viewBox="0 0 15 16" fill="none" xmlns="http://www.w3.org/2000/svg">
<path id="clock" d="M10.9898 1.97727L10.9893 1.977C8.77122 0.701601 6.08078 0.701238 3.88937 1.97713C1.67084 3.2529 0.339453 5.58285 0.339453 8.10666C0.339453 10.6576 1.67065 12.9876 3.88937 14.2635C6.08078 15.5394 8.77121 15.5391 10.9893 14.2637L10.9898 14.2634C13.1803 12.9879 14.5395 10.6583 14.5395 8.10666C14.5395 5.58216 13.1801 3.25268 10.9898 1.97727ZM10.4787 9.22891L10.4788 9.22882L10.4749 9.22628L8.1957 7.72466V4.38791C8.1957 3.97721 7.85015 3.63166 7.43945 3.63166C6.9987 3.63166 6.6832 3.97996 6.6832 4.38791V8.10666C6.6832 8.35454 6.80589 8.60655 7.00117 8.73674L9.62455 10.4857C9.97359 10.7381 10.4442 10.6393 10.6922 10.2983L10.6924 10.2984L10.6957 10.2932C10.9168 9.94572 10.8202 9.47724 10.4787 9.22891ZM4.64597 3.27123C6.36447 2.27783 8.48625 2.27733 10.2329 3.27124C11.9533 4.29305 13.027 6.12012 13.027 8.10666C13.027 10.1208 11.953 11.9477 10.2329 12.9694C8.48624 13.9633 6.36444 13.9628 4.64594 12.9694C2.89935 11.9482 1.85195 10.1218 1.85195 8.10666C1.85195 6.11916 2.89914 4.29255 4.64597 3.27123Z" fill="#0075D5" stroke="#0075D5" stroke-width="0.2"/>
</svg>
