<svg width="85" height="110" viewBox="0 0 85 110" fill="none" xmlns="http://www.w3.org/2000/svg">
<path d="M73.5821 23.7048C71.9508 10.3694 60.4301 0 46.4936 0H0.896484V89.2775H55.5532L60.5656 103.483C61.3671 105.763 63.021 107.608 65.2168 108.673C66.4981 109.297 67.8754 109.609 69.2583 109.609C70.2687 109.609 71.2847 109.442 72.2725 109.102C79.5315 106.599 84.4084 99.8198 84.4084 92.2211V91.8532L73.5877 23.7048H73.5821ZM10.4923 79.8001V49.3775H29.4751V39.9H10.4923V9.47744H46.4936C55.5758 9.47744 63.0775 16.2678 64.0766 24.9759C64.1556 25.656 64.1951 26.325 64.1951 26.9661C64.1951 27.2672 64.1838 27.5682 64.1725 27.8637C64.1725 27.964 64.1612 28.0644 64.1499 28.1647C64.1386 28.3599 64.1217 28.5606 64.0991 28.7557C64.0878 28.8728 64.0766 28.9954 64.0596 29.1125C64.037 29.2853 64.0145 29.4637 63.9862 29.6365C63.9693 29.7592 63.9467 29.8874 63.9298 30.01C63.8959 30.194 63.8564 30.3724 63.8226 30.5508C63.7718 30.8017 63.7097 31.047 63.6476 31.2979C63.625 31.3982 63.5968 31.493 63.5685 31.5933C63.5177 31.7773 63.4613 31.9557 63.4048 32.1397C63.3823 32.2177 63.354 32.2902 63.3315 32.3683C63.2694 32.5634 63.2016 32.7585 63.1283 32.9536C63.1226 32.9759 63.1113 32.9982 63.1057 33.0205C62.8573 33.684 62.5694 34.3251 62.2477 34.9495C62.2308 34.9885 62.2082 35.0219 62.1913 35.061C62.0897 35.2505 61.9881 35.4401 61.8752 35.6296C61.8469 35.6742 61.8187 35.7244 61.7905 35.769C61.4857 36.2819 61.1583 36.7836 60.8027 37.2631C60.7067 37.3969 60.6051 37.5307 60.5035 37.6589C60.4358 37.7425 60.368 37.8317 60.3003 37.9154C60.1479 38.1049 59.9899 38.2889 59.8262 38.4729C59.8036 38.5007 59.7754 38.5286 59.7528 38.5565C59.1037 39.2812 58.3868 39.9558 57.6135 40.5746L57.303 40.8255C55.175 42.4534 52.6462 43.613 49.8634 44.1426C47.4475 44.5997 45.3534 46.0715 44.1285 48.1677C42.9093 50.2583 42.6722 52.7615 43.4737 55.0361L52.2116 79.8112H10.4923V79.8001ZM69.501 100.009L52.9736 53.1573C58.6408 51.797 63.5516 48.7141 67.1811 44.544L74.8013 92.55C74.6715 95.8504 72.5886 98.7717 69.501 100.009Z" fill="url(#paint0_linear_294_174)"/>
<defs>
<linearGradient id="paint0_linear_294_174" x1="42.6496" y1="11.3506" x2="42.6496" y2="125.336" gradientUnits="userSpaceOnUse">
<stop stop-color="#4699F7"/>
<stop offset="1" stop-color="#67DE7F"/>
</linearGradient>
</defs>
</svg>
