<svg width="32" height="42" viewBox="0 0 32 42" fill="none" xmlns="http://www.w3.org/2000/svg">
<path d="M27.8516 9.08316C27.2265 3.97335 22.812 0 17.4718 0H0V34.2092H20.9433L22.8639 39.6523C23.1711 40.526 23.8048 41.2331 24.6462 41.6411C25.1371 41.8804 25.6649 42 26.1948 42C26.582 42 26.9713 41.9359 27.3498 41.8056C30.1313 40.8464 32 38.2488 32 35.3372V35.1962L27.8537 9.08316H27.8516ZM3.67692 30.5777V18.9204H10.9507V15.2888H3.67692V3.63155H17.4718C20.9519 3.63155 23.8264 6.23346 24.2093 9.57022C24.2395 9.83083 24.2547 10.0872 24.2547 10.3328C24.2547 10.4482 24.2504 10.5636 24.246 10.6768C24.246 10.7152 24.2417 10.7537 24.2374 10.7921C24.2331 10.8669 24.2266 10.9438 24.2179 11.0186C24.2136 11.0634 24.2093 11.1104 24.2028 11.1553C24.1941 11.2215 24.1855 11.2899 24.1747 11.3561C24.1682 11.4031 24.1595 11.4522 24.153 11.4992C24.14 11.5697 24.1249 11.6381 24.1119 11.7064C24.0925 11.8026 24.0687 11.8965 24.0449 11.9927C24.0362 12.0311 24.0254 12.0674 24.0146 12.1059C23.9951 12.1764 23.9735 12.2447 23.9519 12.3152C23.9432 12.3452 23.9324 12.3729 23.9238 12.4028C23.9 12.4776 23.874 12.5524 23.8459 12.6271C23.8437 12.6357 23.8394 12.6442 23.8372 12.6528C23.7421 12.907 23.6318 13.1526 23.5085 13.3919C23.502 13.4068 23.4933 13.4197 23.4869 13.4346C23.4479 13.5072 23.409 13.5799 23.3657 13.6525C23.3549 13.6696 23.3441 13.6888 23.3333 13.7059C23.2165 13.9024 23.091 14.0947 22.9548 14.2784C22.918 14.3297 22.8791 14.381 22.8401 14.4301C22.8142 14.4621 22.7882 14.4963 22.7623 14.5284C22.7039 14.601 22.6433 14.6715 22.5806 14.742C22.572 14.7527 22.5611 14.7633 22.5525 14.774C22.3038 15.0517 22.0291 15.3102 21.7327 15.5473L21.6138 15.6435C20.7984 16.2672 19.8294 16.7116 18.7631 16.9145C17.8374 17.0897 17.0349 17.6536 16.5656 18.4568C16.0984 19.2579 16.0076 20.2171 16.3147 21.0887L19.6629 30.582H3.67692V30.5777ZM26.2878 38.3214L19.9549 20.3687C22.1264 19.8475 24.0081 18.6662 25.3989 17.0683L28.3188 35.4632C28.269 36.7278 27.4709 37.8472 26.2878 38.3214Z" fill="url(#paint0_linear_240_170)"/>
<defs>
<linearGradient id="paint0_linear_240_170" x1="15.9989" y1="4.34932" x2="15.9989" y2="48.0262" gradientUnits="userSpaceOnUse">
<stop stop-color="#4699F7"/>
<stop offset="1" stop-color="#67DE7F"/>
</linearGradient>
</defs>
</svg>
