<svg width="198" height="42" viewBox="0 0 198 42" fill="none" xmlns="http://www.w3.org/2000/svg">
<path d="M27.8516 9.08316C27.2265 3.97335 22.812 0 17.4718 0H0V34.2092H20.9433L22.8639 39.6523C23.1711 40.526 23.8048 41.2331 24.6462 41.6411C25.1371 41.8804 25.6649 42 26.1948 42C26.582 42 26.9713 41.9359 27.3498 41.8056C30.1313 40.8464 32 38.2488 32 35.3372V35.1962L27.8537 9.08316H27.8516ZM3.67692 30.5777V18.9204H10.9507V15.2888H3.67692V3.63155H17.4718C20.9519 3.63155 23.8264 6.23346 24.2093 9.57022C24.2395 9.83083 24.2547 10.0872 24.2547 10.3328C24.2547 10.4482 24.2504 10.5636 24.246 10.6768C24.246 10.7152 24.2417 10.7537 24.2374 10.7921C24.2331 10.8669 24.2266 10.9438 24.2179 11.0186C24.2136 11.0634 24.2093 11.1104 24.2028 11.1553C24.1941 11.2215 24.1855 11.2899 24.1747 11.3561C24.1682 11.4031 24.1595 11.4522 24.153 11.4992C24.14 11.5697 24.1249 11.6381 24.1119 11.7064C24.0925 11.8026 24.0687 11.8965 24.0449 11.9927C24.0362 12.0311 24.0254 12.0674 24.0146 12.1059C23.9951 12.1764 23.9735 12.2447 23.9519 12.3152C23.9432 12.3452 23.9324 12.3729 23.9238 12.4028C23.9 12.4776 23.874 12.5524 23.8459 12.6271C23.8437 12.6357 23.8394 12.6442 23.8372 12.6528C23.7421 12.907 23.6318 13.1526 23.5085 13.3919C23.502 13.4068 23.4933 13.4197 23.4869 13.4346C23.4479 13.5072 23.409 13.5799 23.3657 13.6525C23.3549 13.6696 23.3441 13.6888 23.3333 13.7059C23.2165 13.9024 23.091 14.0947 22.9548 14.2784C22.918 14.3297 22.8791 14.381 22.8401 14.4301C22.8142 14.4621 22.7882 14.4963 22.7623 14.5284C22.7039 14.601 22.6433 14.6715 22.5806 14.742C22.572 14.7527 22.5611 14.7633 22.5525 14.774C22.3038 15.0517 22.0291 15.3102 21.7327 15.5473L21.6138 15.6435C20.7984 16.2672 19.8294 16.7116 18.7631 16.9145C17.8374 17.0897 17.0349 17.6536 16.5656 18.4568C16.0984 19.2579 16.0076 20.2171 16.3147 21.0887L19.6629 30.582H3.67692V30.5777ZM26.2878 38.3214L19.9549 20.3687C22.1264 19.8475 24.0081 18.6662 25.3989 17.0683L28.3188 35.4632C28.269 36.7278 27.4709 37.8472 26.2878 38.3214Z" fill="white"/>
<path d="M56.2416 29.913C54.6443 29.913 53.2253 29.5222 51.9849 28.749C50.7444 27.9758 49.7673 26.9138 49.0621 25.5713C48.3569 24.2289 48 22.691 48 20.9577C48 19.2244 48.3569 17.814 49.0621 16.5141C49.7673 15.2141 50.7359 14.1945 51.9679 13.4553C53.1999 12.7161 54.6018 12.3423 56.1736 12.3423C57.7455 12.3423 59.1049 12.6821 60.3284 13.3704C61.5434 14.0501 62.495 15.0017 63.1832 16.2082C63.863 17.4147 64.1858 18.7911 64.1433 20.346C64.1433 20.5924 64.1348 20.8558 64.1094 21.1277C64.0839 21.3995 64.0669 21.6969 64.0414 22.0198H50.8123C50.8548 23.0903 51.1182 24.0335 51.6025 24.8576C52.0783 25.6818 52.7156 26.319 53.4972 26.7863C54.2789 27.2536 55.1795 27.483 56.1821 27.483C57.4991 27.483 58.6206 27.2366 59.5467 26.7353C60.4728 26.234 61.1356 25.5203 61.5434 24.5857L63.761 25.4779C63.0813 26.9138 62.0872 28.0098 60.7872 28.7745C59.4873 29.5392 57.9749 29.9215 56.2416 29.9215V29.913ZM61.331 19.8022C61.3565 18.8251 61.1441 17.9585 60.7023 17.2023C60.2604 16.4546 59.6402 15.8598 58.8415 15.4265C58.0429 14.9932 57.1252 14.7808 56.0717 14.7808C55.1625 14.7808 54.3299 14.9932 53.5822 15.4265C52.8345 15.8598 52.2058 16.4546 51.7215 17.2193C51.2287 17.984 50.9398 18.8421 50.8463 19.8022H61.331Z" fill="white"/>
<path d="M77.016 5.76562C78.9532 5.76562 80.5505 6.10548 81.8165 6.7767C83.0825 7.44793 84.0256 8.34855 84.6543 9.47859C85.2831 10.6086 85.5974 11.8321 85.5974 13.1491C85.5974 14.0412 85.436 14.9163 85.1216 15.8C84.7988 16.6751 84.2975 17.4738 83.6178 18.1875C82.938 18.9012 82.0544 19.479 80.9669 19.9123C79.8878 20.3456 78.5708 20.558 77.0245 20.558H71.7991V29.6832H67.1855V5.76562H77.0245H77.016ZM80.8734 13.1491C80.8734 12.0785 80.5505 11.2289 79.8963 10.5831C79.2421 9.9374 78.2395 9.62303 76.8715 9.62303H71.7821V16.6921H76.8715C77.7807 16.6921 78.5369 16.5477 79.1231 16.2673C79.7179 15.9869 80.1512 15.5706 80.4401 15.0353C80.729 14.5 80.8649 13.8713 80.8649 13.1406L80.8734 13.1491ZM79.6074 19.0286L86.0648 29.6917H80.9074L74.7219 19.0286H79.6074Z" fill="white"/>
<path d="M96.2776 29.913C94.5698 29.913 93.0659 29.5392 91.7659 28.783C90.466 28.0353 89.4634 26.9817 88.7412 25.6393C88.0275 24.2969 87.6621 22.7505 87.6621 20.9917C87.6621 19.2329 88.019 17.814 88.7412 16.5141C89.4549 15.2141 90.4405 14.1945 91.6979 13.4553C92.9469 12.7161 94.3828 12.3423 96.0057 12.3423C97.6285 12.3423 99.0899 12.6991 100.347 13.4043C101.596 14.1096 102.573 15.0951 103.27 16.3611C103.967 17.6271 104.315 19.097 104.315 20.7878C104.315 21.0342 104.298 21.3146 104.264 21.629C104.23 21.9348 104.188 22.2577 104.145 22.606H92.3947C92.4881 23.3367 92.7175 23.957 93.0914 24.4668C93.4652 24.9766 93.9325 25.3759 94.4933 25.6648C95.0541 25.9537 95.6828 26.0896 96.388 26.0896C97.2292 26.0896 97.9853 25.9197 98.6566 25.5798C99.3278 25.24 99.8121 24.7727 100.109 24.1779L103.967 25.3419C103.287 26.8033 102.268 27.9249 100.925 28.7235C99.5827 29.5222 98.0363 29.9215 96.2776 29.9215V29.913ZM99.5232 19.4284C99.4977 18.7911 99.3278 18.2134 99.0134 17.7036C98.6906 17.1938 98.2742 16.7944 97.7474 16.5056C97.2207 16.2252 96.6429 16.0807 96.0057 16.0807C95.4364 16.0807 94.9011 16.2252 94.3998 16.5056C93.8985 16.7944 93.4737 17.1853 93.1169 17.6866C92.76 18.1879 92.5306 18.7656 92.4201 19.4284H99.5232Z" fill="white"/>
<path d="M107.62 11.0592C107.62 9.58081 107.892 8.3743 108.427 7.43969C108.963 6.50507 109.761 5.83386 110.815 5.42602C111.877 5.01819 113.202 4.89924 114.791 5.08616V8.94357C113.789 8.80763 113.075 8.94357 112.659 9.3514C112.234 9.75923 112.03 10.3965 112.03 11.2631V12.5971H114.97V16.4545H112.03V29.675H107.62V16.4545H105.606V12.5971H107.62V11.0592Z" fill="white"/>
<path d="M124.639 29.913C122.931 29.913 121.427 29.5392 120.127 28.783C118.827 28.0353 117.825 26.9817 117.102 25.6393C116.389 24.2969 116.023 22.7505 116.023 20.9917C116.023 19.2329 116.38 17.814 117.102 16.5141C117.816 15.2141 118.802 14.1945 120.059 13.4553C121.308 12.7161 122.744 12.3423 124.367 12.3423C125.99 12.3423 127.451 12.6991 128.709 13.4043C129.958 14.1096 130.935 15.0951 131.631 16.3611C132.328 17.6271 132.677 19.097 132.677 20.7878C132.677 21.0342 132.66 21.3146 132.626 21.629C132.592 21.9348 132.549 22.2577 132.507 22.606H120.756C120.849 23.3367 121.079 23.957 121.453 24.4668C121.827 24.9766 122.294 25.3759 122.855 25.6648C123.415 25.9537 124.044 26.0896 124.749 26.0896C125.59 26.0896 126.347 25.9197 127.018 25.5798C127.689 25.24 128.173 24.7727 128.471 24.1779L132.328 25.3419C131.648 26.8033 130.629 27.9249 129.286 28.7235C127.944 29.5222 126.398 29.9215 124.639 29.9215V29.913ZM127.885 19.4284C127.859 18.7911 127.689 18.2134 127.375 17.7036C127.052 17.1938 126.636 16.7944 126.109 16.5056C125.582 16.2252 125.004 16.0807 124.367 16.0807C123.798 16.0807 123.262 16.2252 122.761 16.5056C122.26 16.7944 121.835 17.1853 121.478 17.6866C121.121 18.1879 120.892 18.7656 120.781 19.4284H127.885Z" fill="white"/>
<path d="M135.157 12.5971H139.116L139.422 14.7807C139.898 14.1859 140.442 13.7016 141.045 13.3278C141.648 12.9539 142.311 12.6905 143.042 12.5376C143.772 12.3932 144.537 12.4102 145.327 12.5886V16.6924C144.715 16.4885 144.07 16.429 143.399 16.5225C142.727 16.6159 142.099 16.8538 141.521 17.2362C140.943 17.627 140.459 18.1793 140.085 18.893C139.711 19.6067 139.524 20.5158 139.524 21.6119V29.675H135.148V12.5971H135.157Z" fill="white"/>
<path d="M147.282 12.5971H151.241L151.547 14.7807C152.023 14.1859 152.567 13.7016 153.17 13.3278C153.773 12.9539 154.436 12.6905 155.167 12.5376C155.897 12.3932 156.662 12.4102 157.452 12.5886V16.6924C156.84 16.4885 156.195 16.429 155.524 16.5225C154.852 16.6159 154.224 16.8538 153.646 17.2362C153.068 17.627 152.584 18.1793 152.21 18.893C151.836 19.6067 151.649 20.5158 151.649 21.6119V29.675H147.273V12.5971H147.282Z" fill="white"/>
<path d="M169.458 29.6749L169.118 27.5933C168.549 28.2985 167.903 28.8593 167.19 29.2671C166.476 29.6749 165.507 29.8788 164.301 29.8788C163.162 29.8788 162.168 29.6834 161.31 29.2841C160.452 28.8848 159.789 28.324 159.313 27.6103C158.838 26.8966 158.6 26.0469 158.6 25.0613C158.6 23.6254 159.118 22.4359 160.154 21.4928C161.191 20.5497 162.754 19.9464 164.853 19.7L169.127 19.2242V18.0262C169.127 17.5504 168.906 17.1001 168.481 16.6923C168.048 16.2845 167.368 16.0805 166.433 16.0805C165.609 16.0805 164.904 16.276 164.301 16.6753C163.697 17.0746 163.29 17.6694 163.086 18.4681L159.33 17.1001C159.789 15.5708 160.647 14.3982 161.93 13.5826C163.205 12.7584 164.777 12.3506 166.646 12.3506C168.923 12.3506 170.639 12.9114 171.786 14.0414C172.933 15.1714 173.511 16.6583 173.511 18.502V29.6749H169.484H169.458ZM169.118 22.266L165.431 22.7418C164.683 22.8353 164.105 23.0562 163.723 23.4045C163.332 23.7614 163.145 24.1862 163.145 24.6875C163.145 25.1888 163.341 25.5711 163.723 25.9025C164.114 26.2339 164.658 26.3953 165.363 26.3953C166.161 26.3953 166.841 26.2508 167.393 25.9535C167.954 25.6561 168.379 25.2228 168.676 24.6535C168.974 24.0842 169.118 23.379 169.118 22.5379V22.266Z" fill="white"/>
<path d="M176.629 5.07739H181.005V29.6747H176.629V5.07739Z" fill="white"/>
<path d="M187.428 24.11C187.564 24.6793 187.802 25.1126 188.125 25.41C188.456 25.7074 188.83 25.9198 189.255 26.0387C189.68 26.1662 190.104 26.2256 190.538 26.2256C191.336 26.2256 191.965 26.0727 192.415 25.7668C192.874 25.461 193.095 25.0701 193.095 24.5858C193.095 24.178 192.934 23.8551 192.619 23.6087C192.296 23.3708 191.897 23.1839 191.404 23.048C190.912 22.912 190.393 22.7846 189.85 22.6741C189.238 22.5127 188.584 22.3343 187.887 22.1473C187.19 21.9519 186.536 21.6715 185.924 21.3062C185.312 20.9408 184.803 20.465 184.403 19.8873C184.004 19.3095 183.809 18.5703 183.809 17.6867C183.809 16.6161 184.097 15.69 184.667 14.8998C185.236 14.1097 186.035 13.4979 187.071 13.0391C188.108 12.5803 189.306 12.3594 190.674 12.3594C192.288 12.3594 193.656 12.6992 194.777 13.3874C195.891 14.0672 196.698 15.0528 197.199 16.3272L193.376 17.4233C193.24 17.1004 193.036 16.8455 192.764 16.6331C192.492 16.4292 192.169 16.2763 191.787 16.1913C191.404 16.1063 191.031 16.0553 190.64 16.0553C189.977 16.0553 189.433 16.1828 189 16.4462C188.567 16.7096 188.354 17.0664 188.354 17.5252C188.354 17.7971 188.431 18.018 188.592 18.188C188.753 18.3579 188.974 18.5023 189.255 18.6128C189.535 18.7232 189.867 18.8252 190.249 18.9187C190.631 19.0121 191.039 19.1141 191.498 19.2245C192.203 19.4115 192.917 19.6154 193.63 19.8533C194.344 20.0912 195.007 20.3971 195.61 20.7624C196.213 21.1278 196.698 21.6121 197.063 22.2323C197.428 22.844 197.632 23.6257 197.675 24.5518C197.675 25.5544 197.386 26.4636 196.817 27.2707C196.247 28.0779 195.423 28.7236 194.353 29.1994C193.282 29.6752 191.982 29.9131 190.461 29.9131C188.685 29.9131 187.173 29.5393 185.933 28.7831C184.692 28.0354 183.876 26.8629 183.494 25.2655L187.42 24.1015L187.428 24.11Z" fill="white"/>
</svg>
