<svg width="198" height="42" viewBox="0 0 198 42" fill="none" xmlns="http://www.w3.org/2000/svg">
<g id="Group 614">
<path id="Vector" d="M27.8516 9.08316C27.2265 3.97335 22.812 0 17.4718 0H0V34.2092H20.9433L22.8639 39.6523C23.1711 40.526 23.8048 41.2331 24.6462 41.6411C25.1371 41.8804 25.6649 42 26.1948 42C26.582 42 26.9713 41.9359 27.3498 41.8056C30.1313 40.8464 32 38.2488 32 35.3372V35.1962L27.8537 9.08316H27.8516ZM3.67692 30.5777V18.9204H10.9507V15.2888H3.67692V3.63155H17.4718C20.9519 3.63155 23.8264 6.23346 24.2093 9.57022C24.2395 9.83083 24.2547 10.0872 24.2547 10.3328C24.2547 10.4482 24.2504 10.5636 24.246 10.6768C24.246 10.7152 24.2417 10.7537 24.2374 10.7921C24.2331 10.8669 24.2266 10.9438 24.2179 11.0186C24.2136 11.0634 24.2093 11.1104 24.2028 11.1553C24.1941 11.2215 24.1855 11.2899 24.1747 11.3561C24.1682 11.4031 24.1595 11.4522 24.153 11.4992C24.14 11.5697 24.1249 11.6381 24.1119 11.7064C24.0925 11.8026 24.0687 11.8965 24.0449 11.9927C24.0362 12.0311 24.0254 12.0674 24.0146 12.1059C23.9951 12.1764 23.9735 12.2447 23.9519 12.3152C23.9432 12.3452 23.9324 12.3729 23.9238 12.4028C23.9 12.4776 23.874 12.5524 23.8459 12.6271C23.8437 12.6357 23.8394 12.6442 23.8372 12.6528C23.7421 12.907 23.6318 13.1526 23.5085 13.3919C23.502 13.4068 23.4933 13.4197 23.4869 13.4346C23.4479 13.5072 23.409 13.5799 23.3657 13.6525C23.3549 13.6696 23.3441 13.6888 23.3333 13.7059C23.2165 13.9024 23.091 14.0947 22.9548 14.2784C22.918 14.3297 22.8791 14.381 22.8401 14.4301C22.8142 14.4621 22.7882 14.4963 22.7623 14.5284C22.7039 14.601 22.6433 14.6715 22.5806 14.742C22.572 14.7527 22.5611 14.7633 22.5525 14.774C22.3038 15.0517 22.0291 15.3102 21.7327 15.5473L21.6138 15.6435C20.7984 16.2672 19.8294 16.7116 18.7631 16.9145C17.8374 17.0897 17.0349 17.6536 16.5656 18.4568C16.0984 19.2579 16.0076 20.2171 16.3147 21.0887L19.6629 30.582H3.67692V30.5777ZM26.2878 38.3214L19.9549 20.3687C22.1264 19.8475 24.0081 18.6662 25.3989 17.0683L28.3188 35.4632C28.269 36.7278 27.4709 37.8472 26.2878 38.3214Z" fill="url(#paint0_linear_554_1096)"/>
<g id="Group">
<path id="Vector_2" d="M56.2416 29.9132C54.6443 29.9132 53.2253 29.5223 51.9849 28.7491C50.7444 27.976 49.7673 26.9139 49.0621 25.5714C48.3569 24.229 48 22.6911 48 20.9578C48 19.2246 48.3569 17.8141 49.0621 16.5142C49.7673 15.2142 50.7359 14.1946 51.9679 13.4554C53.1999 12.7163 54.6018 12.3424 56.1736 12.3424C57.7455 12.3424 59.1049 12.6823 60.3284 13.3705C61.5434 14.0502 62.495 15.0018 63.1832 16.2083C63.863 17.4148 64.1858 18.7912 64.1433 20.3461C64.1433 20.5925 64.1348 20.8559 64.1094 21.1278C64.0839 21.3997 64.0669 21.697 64.0414 22.0199H50.8123C50.8548 23.0905 51.1182 24.0336 51.6025 24.8577C52.0783 25.6819 52.7156 26.3191 53.4972 26.7864C54.2789 27.2538 55.1795 27.4832 56.1821 27.4832C57.4991 27.4832 58.6206 27.2368 59.5467 26.7355C60.4728 26.2342 61.1356 25.5205 61.5434 24.5858L63.761 25.478C63.0813 26.9139 62.0872 28.0099 60.7872 28.7746C59.4873 29.5393 57.9749 29.9216 56.2416 29.9216V29.9132ZM61.331 19.8023C61.3565 18.8252 61.1441 17.9586 60.7023 17.2024C60.2604 16.4547 59.6402 15.86 58.8415 15.4266C58.0429 14.9933 57.1252 14.7809 56.0717 14.7809C55.1625 14.7809 54.3299 14.9933 53.5822 15.4266C52.8345 15.86 52.2058 16.4547 51.7215 17.2194C51.2287 17.9841 50.9398 18.8422 50.8463 19.8023H61.331Z" fill="url(#paint1_linear_554_1096)"/>
<path id="Vector_3" d="M77.016 5.76575C78.9532 5.76575 80.5505 6.1056 81.8165 6.77683C83.0825 7.44805 84.0256 8.34868 84.6543 9.47871C85.2831 10.6087 85.5974 11.8322 85.5974 13.1492C85.5974 14.0413 85.436 14.9165 85.1216 15.8001C84.7988 16.6752 84.2975 17.4739 83.6178 18.1876C82.938 18.9013 82.0544 19.4791 80.9669 19.9124C79.8878 20.3457 78.5708 20.5581 77.0245 20.5581H71.7991V29.6834H67.1855V5.76575H77.0245H77.016ZM80.8734 13.1492C80.8734 12.0786 80.5505 11.229 79.8963 10.5833C79.2421 9.93752 78.2395 9.62315 76.8715 9.62315H71.7821V16.6922H76.8715C77.7807 16.6922 78.5369 16.5478 79.1231 16.2674C79.7179 15.987 80.1512 15.5707 80.4401 15.0354C80.729 14.5001 80.8649 13.8714 80.8649 13.1407L80.8734 13.1492ZM79.6074 19.0288L86.0648 29.6919H80.9074L74.7219 19.0288H79.6074Z" fill="#17355D"/>
<path id="Vector_4" d="M96.2776 29.9132C94.5698 29.9132 93.0659 29.5393 91.7659 28.7831C90.466 28.0354 89.4634 26.9819 88.7412 25.6394C88.0275 24.297 87.6621 22.7506 87.6621 20.9918C87.6621 19.2331 88.019 17.8141 88.7412 16.5142C89.4549 15.2142 90.4405 14.1946 91.6979 13.4554C92.9469 12.7163 94.3828 12.3424 96.0057 12.3424C97.6285 12.3424 99.0899 12.6993 100.347 13.4045C101.596 14.1097 102.573 15.0953 103.27 16.3612C103.967 17.6272 104.315 19.0971 104.315 20.7879C104.315 21.0343 104.298 21.3147 104.264 21.6291C104.23 21.9349 104.188 22.2578 104.145 22.6062H92.3947C92.4881 23.3369 92.7175 23.9571 93.0914 24.4669C93.4652 24.9767 93.9325 25.376 94.4933 25.6649C95.0541 25.9538 95.6828 26.0897 96.388 26.0897C97.2292 26.0897 97.9853 25.9198 98.6566 25.5799C99.3278 25.2401 99.8121 24.7728 100.109 24.178L103.967 25.342C103.287 26.8034 102.268 27.925 100.925 28.7236C99.5827 29.5223 98.0363 29.9216 96.2776 29.9216V29.9132ZM99.5232 19.4285C99.4977 18.7912 99.3278 18.2135 99.0134 17.7037C98.6906 17.1939 98.2742 16.7946 97.7474 16.5057C97.2207 16.2253 96.6429 16.0809 96.0057 16.0809C95.4364 16.0809 94.9011 16.2253 94.3998 16.5057C93.8985 16.7946 93.4737 17.1854 93.1169 17.6867C92.76 18.188 92.5306 18.7658 92.4201 19.4285H99.5232Z" fill="#17355D"/>
<path id="Vector_5" d="M107.619 11.0592C107.619 9.58081 107.891 8.3743 108.426 7.43969C108.962 6.50507 109.76 5.83386 110.814 5.42602C111.876 5.01819 113.201 4.89924 114.79 5.08616V8.94357C113.788 8.80763 113.074 8.94357 112.658 9.3514C112.233 9.75923 112.029 10.3965 112.029 11.2631V12.5971H114.969V16.4545H112.029V29.675H107.619V16.4545H105.605V12.5971H107.619V11.0592Z" fill="#17355D"/>
<path id="Vector_6" d="M124.639 29.9132C122.931 29.9132 121.427 29.5393 120.127 28.7831C118.827 28.0354 117.825 26.9819 117.102 25.6394C116.389 24.297 116.023 22.7506 116.023 20.9918C116.023 19.2331 116.38 17.8141 117.102 16.5142C117.816 15.2142 118.802 14.1946 120.059 13.4554C121.308 12.7163 122.744 12.3424 124.367 12.3424C125.99 12.3424 127.451 12.6993 128.709 13.4045C129.958 14.1097 130.935 15.0953 131.631 16.3612C132.328 17.6272 132.677 19.0971 132.677 20.7879C132.677 21.0343 132.66 21.3147 132.626 21.6291C132.592 21.9349 132.549 22.2578 132.507 22.6062H120.756C120.849 23.3369 121.079 23.9571 121.453 24.4669C121.827 24.9767 122.294 25.376 122.855 25.6649C123.415 25.9538 124.044 26.0897 124.749 26.0897C125.59 26.0897 126.347 25.9198 127.018 25.5799C127.689 25.2401 128.173 24.7728 128.471 24.178L132.328 25.342C131.648 26.8034 130.629 27.925 129.286 28.7236C127.944 29.5223 126.398 29.9216 124.639 29.9216V29.9132ZM127.885 19.4285C127.859 18.7912 127.689 18.2135 127.375 17.7037C127.052 17.1939 126.636 16.7946 126.109 16.5057C125.582 16.2253 125.004 16.0809 124.367 16.0809C123.798 16.0809 123.262 16.2253 122.761 16.5057C122.26 16.7946 121.835 17.1854 121.478 17.6867C121.121 18.188 120.892 18.7658 120.781 19.4285H127.885Z" fill="#17355D"/>
<path id="Vector_7" d="M135.157 12.5971H139.116L139.422 14.7807C139.898 14.1859 140.442 13.7016 141.045 13.3278C141.648 12.9539 142.311 12.6905 143.042 12.5376C143.772 12.3932 144.537 12.4102 145.327 12.5886V16.6924C144.715 16.4885 144.07 16.429 143.399 16.5225C142.727 16.6159 142.099 16.8538 141.521 17.2362C140.943 17.627 140.459 18.1793 140.085 18.893C139.711 19.6067 139.524 20.5158 139.524 21.6119V29.675H135.148V12.5971H135.157Z" fill="#17355D"/>
<path id="Vector_8" d="M147.282 12.5971H151.241L151.547 14.7807C152.023 14.1859 152.567 13.7016 153.17 13.3278C153.773 12.9539 154.436 12.6905 155.167 12.5376C155.897 12.3932 156.662 12.4102 157.452 12.5886V16.6924C156.84 16.4885 156.195 16.429 155.524 16.5225C154.852 16.6159 154.224 16.8538 153.646 17.2362C153.068 17.627 152.584 18.1793 152.21 18.893C151.836 19.6067 151.649 20.5158 151.649 21.6119V29.675H147.273V12.5971H147.282Z" fill="#17355D"/>
<path id="Vector_9" d="M169.458 29.6748L169.118 27.5932C168.549 28.2984 167.903 28.8591 167.19 29.267C166.476 29.6748 165.507 29.8787 164.301 29.8787C163.162 29.8787 162.168 29.6833 161.31 29.284C160.452 28.8846 159.789 28.3239 159.313 27.6102C158.838 26.8965 158.6 26.0468 158.6 25.0612C158.6 23.6253 159.118 22.4358 160.154 21.4927C161.191 20.5496 162.754 19.9463 164.853 19.6999L169.127 19.2241V18.0261C169.127 17.5503 168.906 17.1 168.481 16.6922C168.048 16.2843 167.368 16.0804 166.433 16.0804C165.609 16.0804 164.904 16.2758 164.301 16.6752C163.697 17.0745 163.29 17.6693 163.086 18.4679L159.33 17.1C159.789 15.5706 160.647 14.3981 161.93 13.5825C163.205 12.7583 164.777 12.3505 166.646 12.3505C168.923 12.3505 170.639 12.9112 171.786 14.0413C172.933 15.1713 173.511 16.6582 173.511 18.5019V29.6748H169.484H169.458ZM169.118 22.2659L165.431 22.7417C164.683 22.8351 164.105 23.056 163.723 23.4044C163.332 23.7612 163.145 24.1861 163.145 24.6874C163.145 25.1887 163.341 25.571 163.723 25.9024C164.114 26.2337 164.658 26.3952 165.363 26.3952C166.161 26.3952 166.841 26.2507 167.393 25.9533C167.954 25.656 168.379 25.2226 168.676 24.6534C168.974 24.0841 169.118 23.3789 169.118 22.5378V22.2659Z" fill="#17355D"/>
<path id="Vector_10" d="M176.629 5.07751H181.005V29.6749H176.629V5.07751Z" fill="#17355D"/>
<path id="Vector_11" d="M187.428 24.11C187.564 24.6793 187.802 25.1126 188.125 25.41C188.456 25.7074 188.83 25.9198 189.255 26.0387C189.68 26.1662 190.104 26.2256 190.538 26.2256C191.336 26.2256 191.965 26.0727 192.415 25.7668C192.874 25.461 193.095 25.0701 193.095 24.5858C193.095 24.178 192.934 23.8551 192.619 23.6087C192.296 23.3708 191.897 23.1839 191.404 23.048C190.912 22.912 190.393 22.7846 189.85 22.6741C189.238 22.5127 188.584 22.3343 187.887 22.1473C187.19 21.9519 186.536 21.6715 185.924 21.3062C185.312 20.9408 184.803 20.465 184.403 19.8873C184.004 19.3095 183.809 18.5703 183.809 17.6867C183.809 16.6161 184.097 15.69 184.667 14.8998C185.236 14.1097 186.035 13.4979 187.071 13.0391C188.108 12.5803 189.306 12.3594 190.674 12.3594C192.288 12.3594 193.656 12.6992 194.777 13.3874C195.891 14.0672 196.698 15.0528 197.199 16.3272L193.376 17.4233C193.24 17.1004 193.036 16.8455 192.764 16.6331C192.492 16.4292 192.169 16.2763 191.787 16.1913C191.404 16.1063 191.031 16.0553 190.64 16.0553C189.977 16.0553 189.433 16.1828 189 16.4462C188.567 16.7096 188.354 17.0664 188.354 17.5252C188.354 17.7971 188.431 18.018 188.592 18.188C188.753 18.3579 188.974 18.5023 189.255 18.6128C189.535 18.7232 189.867 18.8252 190.249 18.9187C190.631 19.0121 191.039 19.1141 191.498 19.2245C192.203 19.4115 192.917 19.6154 193.63 19.8533C194.344 20.0912 195.007 20.3971 195.61 20.7624C196.213 21.1278 196.698 21.6121 197.063 22.2323C197.428 22.844 197.632 23.6257 197.675 24.5518C197.675 25.5544 197.386 26.4636 196.817 27.2707C196.247 28.0779 195.423 28.7236 194.353 29.1994C193.282 29.6752 191.982 29.9131 190.461 29.9131C188.685 29.9131 187.173 29.5393 185.933 28.7831C184.692 28.0354 183.876 26.8629 183.494 25.2655L187.42 24.1015L187.428 24.11Z" fill="#17355D"/>
</g>
</g>
<defs>
<linearGradient id="paint0_linear_554_1096" x1="15.9989" y1="4.34932" x2="15.9989" y2="48.0262" gradientUnits="userSpaceOnUse">
<stop stop-color="#4699F7"/>
<stop offset="1" stop-color="#67DE7F"/>
</linearGradient>
<linearGradient id="paint1_linear_554_1096" x1="36.0964" y1="38.5031" x2="72.3594" y2="7.42293" gradientUnits="userSpaceOnUse">
<stop stop-color="#67DE7F"/>
<stop offset="1" stop-color="#4699F7"/>
</linearGradient>
</defs>
</svg>
